<?xml version="1.0" standalone="no"?>
<!DOCTYPE svg PUBLIC "-//W3C//DTD SVG 1.1//EN" "http://www.w3.org/Graphics/SVG/1.1/DTD/svg11.dtd" >
<svg xmlns="http://www.w3.org/2000/svg" xmlns:xlink="http://www.w3.org/1999/xlink" version="1.1">
<metadata></metadata>
<defs>
<font id="uni_sans_bookregular" horiz-adv-x="491" >
<font-face units-per-em="2048" ascent="1548" descent="-500" />
<missing-glyph horiz-adv-x="489" />
<glyph unicode="&#xfb01;" horiz-adv-x="976" d="M129 0v1114q0 166 100.5 254t257.5 90v-115q-109 0 -176 -60t-67 -169v-237h229v-115h-229v-762h-115zM662 1321q0 39 26.5 65.5t65.5 26.5t65.5 -26.5t26.5 -65.5t-26.5 -65.5t-65.5 -26.5t-65.5 26.5t-26.5 65.5zM700 0v1061h115v-1061h-115z" />
<glyph unicode="&#xfb02;" horiz-adv-x="1028" d="M129 0v1114q0 166 100.5 254t257.5 90v-115q-109 0 -176 -60t-67 -169v-237h229v-115h-229v-762h-115zM684 328v1124h115v-1124q0 -222 209 -222v-114q-154 0 -239 88t-85 248z" />
<glyph horiz-adv-x="0" />
<glyph unicode="&#xd;" horiz-adv-x="681" />
<glyph unicode=" "  horiz-adv-x="489" />
<glyph unicode="&#x09;" horiz-adv-x="489" />
<glyph unicode="&#xa0;" horiz-adv-x="489" />
<glyph unicode="!" horiz-adv-x="600" d="M199 86q0 41 28.5 69.5t69.5 28.5t69.5 -28.5t28.5 -69.5t-28.5 -69.5t-69.5 -28.5t-69.5 28.5t-28.5 69.5zM236 381v1069h120v-1069h-120z" />
<glyph unicode="&#x22;" horiz-adv-x="712" d="M143 983v467h123l-35 -467h-88zM426 983v467h123l-37 -467h-86z" />
<glyph unicode="#" horiz-adv-x="1464" d="M41 455l25 114h331l97 326h-369l25 117h378l129 436h129l-129 -436h328l129 436h131l-131 -436h324l-31 -117h-330l-94 -326h369l-29 -114h-377l-133 -457h-129l135 457h-330l-133 -457h-129l135 457h-321zM526 569h328l96 326h-327z" />
<glyph unicode="$" horiz-adv-x="1165" d="M51 256l111 49q41 -88 138 -143.5t220 -65.5v611q-84 18 -137 32.5t-120.5 45t-104.5 69.5t-62.5 103.5t-21.5 146.5q6 164 134 262t312 113v209h101v-209q158 -10 285.5 -81t180.5 -192l-108 -49q-39 88 -137 141.5t-221 61.5v-557q88 -16 144 -31.5t128 -49.5 t111.5 -77t65.5 -116.5t22 -168.5q-8 -172 -143.5 -272t-327.5 -113v-208h-101v208q-158 12 -287 85t-182 196zM193 1098q-4 -68 18 -116t73.5 -78t102.5 -47t133 -34v537q-133 -12 -226 -79.5t-101 -182.5zM621 96q141 10 240.5 80t109.5 189q12 147 -79 213.5t-271 105.5 v-588z" />
<glyph unicode="%" horiz-adv-x="1529" d="M70 1063q0 176 85 281.5t218 105.5q141 0 222 -103.5t81 -287.5q0 -178 -84 -283.5t-219 -105.5q-145 0 -224 101t-79 292zM188 -82l1022 1618l101 -61l-1020 -1618zM190 1063q0 -145 44.5 -210t138.5 -65q184 1 184 271q0 274 -186 274q-92 0 -136.5 -64.5t-44.5 -205.5 zM860 385q0 178 84 282.5t219 104.5q141 0 221 -102.5t80 -288.5q0 -178 -84 -282.5t-217 -104.5q-145 0 -224 100.5t-79 290.5zM979 385q0 -145 44 -209.5t140 -64.5q183 0 183 270q0 276 -187 276q-92 0 -136 -65.5t-44 -206.5z" />
<glyph unicode="&#x26;" horiz-adv-x="1288" d="M102 399q0 78 25 140.5t81 115t97 81t123 77.5q-55 63 -85 103t-59.5 105.5t-29.5 125.5q0 145 105.5 232t252.5 87q131 0 226.5 -84t95.5 -213q0 -72 -24.5 -129t-79 -104t-97.5 -73.5t-119 -67.5l351 -369l114 192l101 -49l-136 -221l228 -260h-156l-137 156 q-92 -125 -196.5 -188.5t-245.5 -63.5q-186 0 -310.5 111.5t-124.5 295.5zM225 403q0 -133 95.5 -217t234.5 -84q190 1 346 224l-399 411q-66 -39 -100.5 -62.5t-83 -66.5t-71 -93t-22.5 -112zM377 1151q0 -47 30.5 -106.5t56 -92t73.5 -88.5q63 33 96 52.5t83 58.5t73.5 85 t23.5 101q0 88 -59.5 144.5t-149.5 56.5q-94 0 -160.5 -60.5t-66.5 -150.5z" />
<glyph unicode="'" horiz-adv-x="415" d="M139 983v467h123l-24 -467h-99z" />
<glyph unicode="(" horiz-adv-x="532" d="M119 698q0 244 74.5 483t209.5 427l99 -66q-127 -162 -194.5 -390t-67.5 -454q0 -422 268 -848l-96 -61q-141 195 -217 434.5t-76 474.5z" />
<glyph unicode=")" horiz-adv-x="532" d="M25 -209q129 162 197.5 391.5t68.5 452.5q0 465 -266 887l96 61q139 -193 216 -451t77 -497q0 -244 -75 -482.5t-210 -426.5z" />
<glyph unicode="*" horiz-adv-x="858" d="M45 1145l29 94l303 -98v309h96v-311l295 98l31 -98l-295 -92l186 -254l-76 -60l-192 256l-182 -256l-82 60l186 258z" />
<glyph unicode="+" horiz-adv-x="1271" d="M115 639v119h473v461h117v-461h454v-119h-454v-465h-117v465h-473z" />
<glyph unicode="," horiz-adv-x="550" d="M131 -283l135 467h144l-158 -467h-121z" />
<glyph unicode="-" horiz-adv-x="681" d="M88 555v119h506v-119h-506z" />
<glyph unicode="." horiz-adv-x="471" d="M143 86q0 41 29 69.5t70 28.5t69.5 -28.5t28.5 -69.5t-28.5 -69.5t-69.5 -28.5t-70 28.5t-29 69.5z" />
<glyph unicode="/" horiz-adv-x="757" d="M18 -37l623 1561l107 -37l-621 -1561z" />
<glyph unicode="0" horiz-adv-x="1230" d="M94 399v660q0 203 159 312.5t365 109.5q129 0 245 -43t197 -142.5t81 -236.5v-660q0 -137 -81 -236.5t-197 -142.5t-245 -43q-131 0 -246.5 43t-196.5 142.5t-81 236.5zM215 399q0 -104 64.5 -175.5t151.5 -98.5t187.5 -27t186.5 27t150.5 98.5t64.5 175.5v660 q0 106 -64.5 177t-150.5 97.5t-186.5 26.5t-187.5 -26.5t-151.5 -97.5t-64.5 -177v-660z" />
<glyph unicode="1" horiz-adv-x="665" d="M43 1104l330 348h123v-1452h-119v1286l-246 -254z" />
<glyph unicode="2" horiz-adv-x="1128" d="M59 94l721 686q102 96 133 199.5t-2.5 183.5t-124 133.5t-217.5 59.5q-137 4 -243.5 -54.5t-151.5 -160.5l-106 47q57 137 194 213t309 72q131 -4 236.5 -52.5t164 -129.5t75 -177t-28.5 -206.5t-150 -209.5l-604 -575h785v-121h-951z" />
<glyph unicode="3" horiz-adv-x="1183" d="M39 246l108 53q51 -102 184.5 -154.5t270.5 -43t243.5 90t106.5 218.5q0 328 -360 323h-121v113h121q295 0 295 244q0 121 -88 192.5t-204 78.5t-229.5 -38t-162.5 -133l-103 53q41 82 125 139.5t183.5 79t206 9t192.5 -55.5t141.5 -128t55.5 -197q0 -205 -160 -297 q229 -82 229 -385q-2 -125 -66.5 -220.5t-161.5 -143.5t-218 -61.5t-234.5 11t-210 90.5t-143.5 162z" />
<glyph unicode="4" horiz-adv-x="1101" d="M25 506l780 946h143v-965h121v-108h-121v-375h-121v375h-708zM158 487h669l4 824z" />
<glyph unicode="5" horiz-adv-x="1196" d="M72 246l108 53q51 -102 182.5 -151.5t266.5 -37t239.5 95.5t104.5 220v90q0 150 -112.5 224.5t-282.5 74.5q-205 0 -394 -90l-63 -4v729h897v-121h-776v-459q174 72 336 70q133 -2 245.5 -43t190.5 -139.5t80 -239.5v-27.5v-37v-29.5q-2 -125 -64.5 -221.5t-160 -146.5 t-216 -66.5t-231.5 7t-208 88.5t-142 161z" />
<glyph unicode="6" horiz-adv-x="1265" d="M109 406v641q0 201 159.5 312t378.5 109q164 0 297 -66.5t195 -189.5l-109 -55q-45 94 -149.5 143.5t-233.5 49.5q-172 0 -295 -80t-123 -226v-311q127 182 418 182q217 -2 373 -112.5t156 -308.5v-88q0 -199 -156 -310.5t-373 -111.5q-139 -2 -259 44t-198.5 144 t-80.5 234zM229 408q0 -145 123 -225.5t295 -80.5q168 0 288 81t120 225v84q0 143 -120 224t-288 81q-172 0 -295 -80t-123 -225v-84z" />
<glyph unicode="7" horiz-adv-x="1046" d="M53 1331v121h914l43 -90l-779 -1362h-137l760 1331h-801z" />
<glyph unicode="8" horiz-adv-x="1193" d="M49 410q0 131 63.5 235.5t178.5 138.5v7q-84 35 -129 114.5t-45 175.5q2 182 135 283.5t319 101.5h39q186 0 320.5 -101t134.5 -284q0 -96 -45 -176t-129 -114v-7q115 -35 179.5 -139t64.5 -235q-4 -205 -159 -320t-366 -115h-39q-211 0 -365.5 115t-156.5 320zM168 412 q0 -156 123 -236t280 -80h39q158 0 281 80t123 236q0 94 -32 158.5t-92.5 97t-126 45t-153.5 12.5h-39q-88 0 -153.5 -12.5t-126 -45t-92 -97t-31.5 -158.5zM233 1081q0 -76 28 -126t80 -74.5t105.5 -32.5t124.5 -8h39q72 0 125 8t105.5 32.5t80 75t27.5 125.5 q0 131 -98 201t-240 70h-39q-141 0 -239.5 -70t-98.5 -201z" />
<glyph unicode="9" horiz-adv-x="1247" d="M72 956v88q0 199 155.5 310.5t372.5 111.5q139 2 259 -44t199 -144t81 -234v-641q0 -201 -160 -312t-379 -109q-164 0 -297 66.5t-194 189.5l108 55q45 -94 149.5 -143.5t233.5 -49.5q172 0 295 80t123 226v311q-127 -182 -418 -182q-217 2 -372.5 112.5t-155.5 308.5z M193 958q0 -143 119.5 -224t287.5 -81q172 0 295 80t123 225v84q0 145 -123 225.5t-295 80.5q-168 0 -287.5 -81.5t-119.5 -224.5v-84z" />
<glyph unicode=":" horiz-adv-x="479" d="M143 117q0 41 29 69.5t70 28.5t69.5 -28.5t28.5 -69.5t-28.5 -70t-69.5 -29t-70 29t-29 70zM143 891q0 41 29 69.5t70 28.5t69.5 -28.5t28.5 -69.5t-28.5 -69.5t-69.5 -28.5t-70 28.5t-29 69.5z" />
<glyph unicode=";" horiz-adv-x="507" d="M88 -283l119 467h160l-158 -467h-121zM154 860q0 41 28.5 69.5t69.5 28.5t69.5 -28.5t28.5 -69.5t-28.5 -69.5t-69.5 -28.5t-69.5 28.5t-28.5 69.5z" />
<glyph unicode="&#x3c;" horiz-adv-x="970" d="M119 571v99l721 430v-137l-588 -342l588 -338v-136z" />
<glyph unicode="=" horiz-adv-x="1146" d="M160 424v113h833v-113h-833zM160 707v110h833v-110h-833z" />
<glyph unicode="&#x3e;" horiz-adv-x="983" d="M154 147v136l587 338l-587 342v137l720 -430v-99z" />
<glyph unicode="?" horiz-adv-x="974" d="M33 1294q86 109 234.5 152t287.5 15.5t240.5 -135t99.5 -271.5q-2 -193 -120 -300.5t-300 -140.5l-16 -333h-101l-12 430q176 2 305 96t127 250q-2 121 -81 197.5t-183 95t-215 -14t-174 -112.5h-2zM313 88q0 41 29 69.5t70 28.5q39 0 66.5 -28.5t27.5 -69.5t-26.5 -68.5 t-67.5 -27.5t-70 27.5t-29 68.5z" />
<glyph unicode="@" horiz-adv-x="1583" d="M82 729q0 313 216 529.5t527 216.5q293 0 489.5 -173.5t196.5 -429.5q0 -244 -146 -418.5t-323 -174.5q-55 0 -89.5 34.5t-34.5 100.5h-5q-45 -55 -115.5 -95t-144.5 -40q-129 0 -199.5 83.5t-70.5 210.5q0 225 132 404.5t341 179.5q166 0 213 -166h4l49 127h121 l-194 -581q-23 -68 -23 -97q0 -53 51 -53q106 0 216 160t110 325q0 219 -170 362.5t-404 143.5q-270 0 -454.5 -193.5t-184.5 -455.5q0 -270 188.5 -461.5t455.5 -191.5q111 0 206 37l47 -86q-121 -47 -253 -47q-324 0 -538 217t-214 532zM496 578q0 -84 49 -137.5 t127 -53.5q88 0 170 78t126 183.5t44 195.5q0 209 -164 209q-162 2 -257 -151.5t-95 -323.5z" />
<glyph unicode="A" horiz-adv-x="1267" d="M20 0l521 1450h176l524 -1450h-127l-174 483h-623l-170 -483h-127zM360 604h537l-268 756z" />
<glyph unicode="B" horiz-adv-x="1290" d="M162 0v1452h551q178 0 295.5 -95t117.5 -277q0 -221 -155 -308q225 -78 225 -369q-8 -403 -485 -403h-549zM283 121h430h20q158 1 247 61q95 64 95 224q0 164 -93 234q-90 69 -259 69h-10h-430v-588zM283 829h430q137 0 217 61.5t80 192.5q0 129 -81 188.5t-216 59.5 h-430v-502z" />
<glyph unicode="C" horiz-adv-x="1179" d="M98 426v598q0 145 88 252.5t222 148.5q125 38 259 38h19q143 -3 268 -72.5t183 -186.5l-109 -53v-2q-43 86 -140 138q-97 51 -209 55q-12 0 -24 1q-99 0 -193 -26q-104 -29 -173.5 -106.5t-69.5 -186.5v-598q0 -109 69.5 -186.5t173.5 -106.5q93 -26 193 -26q12 1 24 1 q112 4 209 55.5t140 137.5l109 -53q-47 -96 -145 -160q-98 -65 -212 -89q-68 -14 -138 -14q-48 1 -98 7q-122 16 -220.5 66.5t-162 146.5t-63.5 221z" />
<glyph unicode="D" horiz-adv-x="1269" d="M162 0v1450h483q225 0 384 -107.5t159 -316.5v-604q0 -141 -81 -239.5t-200 -140.5t-262 -42h-483zM283 121h362q113 0 204 28.5t154.5 99t63.5 173.5v604q0 152 -123 227.5t-299 75.5h-362v-1208z" />
<glyph unicode="E" horiz-adv-x="1171" d="M162 0v1452h909v-121h-788v-545h727v-122h-727v-543h788v-121h-909z" />
<glyph unicode="F" horiz-adv-x="1118" d="M162 0v1450h907v-121h-786v-586h690v-120h-690v-623h-121z" />
<glyph unicode="G" horiz-adv-x="1337" d="M90 426v608q0 123 63.5 218.5t162 146.5t218.5 67q53 8 104 8q67 0 132 -12q115 -22 212 -86.5t144 -163.5l-108 -53q-41 86 -138.5 138.5t-209.5 55.5h-20q-101 0 -196 -26q-104 -29 -173.5 -106.5t-69.5 -186.5v-608q0 -88 47 -158.5t121 -106.5t165 -53q46 -8 91 -8 t90 8q90 17 164 53t121 106.5t47 158.5v180h-445v121h566v-301q0 -123 -60.5 -219t-156 -145.5t-211.5 -73.5q-57 -11 -115.5 -11t-116.5 11q-117 24 -212 73.5t-155.5 145.5t-60.5 219z" />
<glyph unicode="H" horiz-adv-x="1409" d="M160 0v1450h121v-666h845v666h121v-1450h-121v664h-845v-664h-121z" />
<glyph unicode="I" horiz-adv-x="475" d="M164 0v1450h121v-1450h-121z" />
<glyph unicode="J" horiz-adv-x="1185" d="M-2 332l119 22q18 -88 83.5 -151.5t152.5 -90.5q71 -21 149 -21q18 0 36 1q97 6 178 41t134 108.5t53 172.5v915h-483v121h604v-1036q0 -131 -69.5 -230.5t-175 -148.5t-232.5 -57q-25 -2 -49 -2q-100 0 -192 28q-113 35 -199.5 120t-108.5 208z" />
<glyph unicode="K" horiz-adv-x="1245" d="M162 0v1450h121v-797l811 797h155l-698 -698l694 -752h-155l-625 666l-182 -183v-483h-121z" />
<glyph unicode="L" horiz-adv-x="1021" d="M164 0v1450h121v-1329h725v-121h-846z" />
<glyph unicode="M" horiz-adv-x="1632" d="M156 0v1450h176l485 -1096l483 1096h177v-1450h-121v1282l-482 -1083h-114l-484 1083v-1282h-120z" />
<glyph unicode="N" horiz-adv-x="1411" d="M162 0v1450h147l819 -1317v1317h121v-1450h-180l-786 1264v-1264h-121z" />
<glyph unicode="O" horiz-adv-x="1396" d="M123 410v632q0 123 63.5 218.5t165.5 145.5t224 72q61 11 122 11.5t122 -11.5q122 -22 223.5 -72t165 -145.5t63.5 -218.5v-632q0 -123 -63.5 -218.5t-165 -145.5t-224.5 -72q-62 -11 -123 -12q-62 0 -122 12q-122 22 -223 72t-164.5 145.5t-63.5 218.5zM244 410 q0 -90 50 -160t130 -106q80 -34 176 -52q48 -9 96 -10q50 0 98 10q98 18 177.5 53t129.5 104.5t50 160.5v632q0 162 -134 244t-323 82q-186 -2 -318 -85t-132 -241v-632z" />
<glyph unicode="P" horiz-adv-x="1261" d="M164 0v1450h547q102 0 189 -30.5t142.5 -84t95.5 -121t48 -143.5q4 -38 4 -75.5t-4 -75.5q-8 -74 -47 -141.5t-95.5 -121t-142.5 -84t-188 -30.5h-428v-543h-121zM285 664h426q100 0 178 36.5t118 96t57 131.5q8 34 8 68q0 37 -10 74q-18 71 -58.5 129t-117.5 95 q-73 35 -165 35h-10h-426v-665z" />
<glyph unicode="Q" horiz-adv-x="1398" d="M125 416v618q0 141 85 245.5t212 152t276.5 47.5t276.5 -47.5t212 -151.5t85 -246v-618q-1 -160 -107 -273l97 -125l-101 -59l-86 111q-123 -76 -287 -94q-51 -5 -99 -5q-111 0 -213 28q-146 40 -248.5 150.5t-102.5 266.5zM246 416q0 -115 82 -196t198 -110 q80 -19 166 -19q41 0 83 5q132 13 226 70l-122 162l96 65l115 -151q61 74 61 174v618q0 162 -133 244t-322 82q-186 -2 -318 -85t-132 -241v-618z" />
<glyph unicode="R" horiz-adv-x="1277" d="M162 0v1450h547q217 0 349 -103.5t136 -318.5q0 -213 -135 -313.5t-348 -100.5h-4l485 -614h-145l-488 614h-276v-614h-121zM283 725h428q178 0 270 69.5t92 233.5q0 301 -348 301h-14h-428v-604z" />
<glyph unicode="S" horiz-adv-x="1218" d="M90 256l109 49h2q37 -84 130 -139q93 -54 203 -66q39 -4 78 -5q68 -1 136 13q106 20 179.5 88t82.5 169q1 15 1 29q0 82 -39 138q-46 66 -126 98t-178.5 53.5t-197.5 45t-181 61t-131 116.5q-45 73 -45 179v17q4 113 68.5 196.5t162.5 126.5t217 51q29 2 57 2 q88 0 172 -20q110 -26 202.5 -92t133.5 -160l-108 -49q-37 82 -128 137q-92 54 -198 64q-36 3 -71 3q-69 -1 -137 -13q-102 -20 -174.5 -86t-78.5 -164q-1 -10 0 -20q1 -78 43 -130q48 -58 128.5 -84t179 -44.5t198 -44t180 -67.5t128.5 -130q42 -77 43 -186q0 -16 -1 -32 q-6 -115 -73.5 -201.5t-168 -129.5t-222.5 -51q-29 -2 -57 -3q-91 0 -177 21q-113 27 -206 94.5t-136 165.5z" />
<glyph unicode="T" horiz-adv-x="1128" d="M20 1331v121h1088v-121h-483v-1331h-121v1331h-484z" />
<glyph unicode="U" horiz-adv-x="1400" d="M156 424v1026h120v-1026q0 -90 47.5 -162t120.5 -108q74 -38 165 -54q46 -8 91 -8q44 0 90 8q90 16 164 53t121 109t47 162v1026h121v-1026q0 -123 -60.5 -220.5t-155.5 -148.5t-211 -73q-58 -11 -116 -11.5t-116 11.5q-116 22 -212 73t-156 147.5t-60 221.5z" />
<glyph unicode="V" horiz-adv-x="1243" d="M6 1452h127l485 -1360l482 1360h127l-520 -1450h-179z" />
<glyph unicode="W" horiz-adv-x="1892" d="M8 1450h127l381 -1360l369 1170h116l369 -1170l381 1360h127l-420 -1450h-176l-338 1069l-340 -1069h-176z" />
<glyph unicode="X" horiz-adv-x="1206" d="M27 0l497 723l-493 727h141l424 -621l422 621h143l-493 -727l495 -723h-145l-422 629l-424 -629h-145z" />
<glyph unicode="Y" horiz-adv-x="1171" d="M20 1450h142l424 -762l422 762h143l-506 -883v-567h-121v567z" />
<glyph unicode="Z" horiz-adv-x="1153" d="M43 92l903 1237h-866v121h995l43 -92l-903 -1237h883v-121h-1018z" />
<glyph unicode="[" horiz-adv-x="524" d="M152 -272v1818h307v-104h-185v-1610h185v-104h-307z" />
<glyph unicode="\" horiz-adv-x="757" d="M10 1487l109 37l622 -1561l-110 -37z" />
<glyph unicode="]" horiz-adv-x="520" d="M55 -172h185v1622h-185v98h307v-1818h-307v98z" />
<glyph unicode="^" horiz-adv-x="1239" d="M154 870l409 580h94l424 -580h-143l-328 463l-315 -463h-141z" />
<glyph unicode="_" horiz-adv-x="1024" d="M0 -63h1024v-115h-1024v115z" />
<glyph unicode="`" horiz-adv-x="430" d="M10 1450h164l166 -266h-119z" />
<glyph unicode="a" horiz-adv-x="1026" d="M92 332q0 127 70 213q70 87 176 115q80 22 169 21q28 0 56 -2q119 -9 219 -54v118q0 123 -112 181q-82 43 -177 43q-35 1 -71 -5q-135 -22 -201 -104l-78 74q80 86 209 120q82 22 160 22q45 0 89 -7q120 -20 208 -105t88 -219v-702q-198 -68 -410 -68h-24 q-160 2 -265.5 99.5t-105.5 259.5zM207 332q0 -119 73.5 -186.5t188.5 -69.5q24 -1 47 0q152 0 266 28v414q-78 31 -170 44q-57 8 -115 8q-36 0 -71 -3q-94 -8 -156.5 -68.5t-62.5 -166.5z" />
<glyph unicode="b" horiz-adv-x="1026" d="M121 45v1409h115v-438q139 63 288 63h7q158 0 276 -91q121 -93 121 -253v-418q0 -162 -118 -251t-280 -93q-201 0 -409 72zM236 125q113 -39 294 -39q115 0 199 60.5t82 166.5v4v418v2v5q0 104 -82 162q-84 58 -203 61q-153 -1 -290 -60v-780z" />
<glyph unicode="c" horiz-adv-x="917" d="M98 328v407q0 164 120 254t282 90q117 0 214 -47t148 -135l-96 -61q-70 129 -266 129q-117 0 -202 -58.5t-85 -167.5v-4v-407v-4q0 -109 85 -167.5t202 -58.5q98 0 177 42t101 122l105 -51q-39 -111 -145.5 -169t-237.5 -58q-162 0 -282 90t-120 254z" />
<glyph unicode="d" horiz-adv-x="1046" d="M117 317v418q1 160 121 253q118 91 275 91h7q150 0 289 -63v438h115v-1409q-209 -72 -410 -72q-162 4 -279.5 93.5t-117.5 250.5zM233 313q-2 -106 82 -166.5t199 -60.5q182 0 295 39v780q-137 59 -291 60q-119 -3 -203 -61q-82 -57 -82 -162v-5v-2v-418v-4z" />
<glyph unicode="e" horiz-adv-x="1009" d="M106 317v422q0 164 120 254t284 90q162 0 281.5 -90t119.5 -254v-174v-100h-688v-148v-5q0 -107 83 -165q85 -59 204 -59q90 0 165 36t105 105l103 -51q-45 -98 -148.5 -151.5t-224.5 -53.5q-164 0 -284 90.5t-120 253.5zM223 565h574v174v4q0 109 -85 167.5t-202 58.5 q-119 0 -204 -58.5t-83 -167.5v-4v-174z" />
<glyph unicode="f" horiz-adv-x="536" d="M129 0v1114q0 166 100.5 254t257.5 90v-115q-109 0 -176 -60t-67 -169v-237h229v-115h-229v-762h-115z" />
<glyph unicode="g" horiz-adv-x="1026" d="M109 328v413q0 160 115.5 249t275.5 91q127 0 293 -47q57 -16 112 -35v-1046q0 -137 -89 -223t-211 -104q-43 -7 -87 -7q-80 0 -162 21q-127 34 -198 114l78 72q63 -82 197 -102q33 -4 64 -4q98 0 183 46q113 60 113 185v98q-127 -63 -285 -63h-7q-158 0 -273 90 q-119 92 -119 252zM223 324q-2 -104 81 -163t200 -63q152 5 289 60v749q-147 61 -293 62q-113 0 -196 -59q-81 -59 -81 -162v-5v-2v-413v-4z" />
<glyph unicode="h" horiz-adv-x="1073" d="M141 0v1450h115v-453q137 63 287 64h13q152 0 268 -89q120 -93 120 -253v-719h-115v719v2q0 106 -83.5 164.5t-200.5 60.5q-150 0 -289 -57v-889h-115z" />
<glyph unicode="i" horiz-adv-x="440" d="M125 1321q0 39 26.5 65.5t65.5 26.5t65.5 -26.5t26.5 -65.5t-26.5 -65.5t-65.5 -26.5t-65.5 26.5t-26.5 65.5zM164 0h115v1061h-115v-1061z" />
<glyph unicode="j" horiz-adv-x="448" d="M-63 -279v-114q158 0 252 94t94 254v1106h-115v-1106q0 -109 -61 -171.5t-170 -62.5zM133 1321q0 39 26.5 65.5t65.5 26.5t65.5 -26.5t26.5 -65.5t-26.5 -65.5t-65.5 -26.5t-65.5 26.5t-26.5 65.5z" />
<glyph unicode="k" horiz-adv-x="966" d="M139 0v1450h115v-946l559 557h143l-475 -479l471 -582h-141l-410 500l-147 -148v-352h-115z" />
<glyph unicode="l" horiz-adv-x="499" d="M147 328v1124h115v-1124q0 -222 209 -222v-114q-154 0 -239 88t-85 248z" />
<glyph unicode="m" horiz-adv-x="1683" d="M145 -4v971q162 90 370 90t319 -144q106 131 309 140h20q155 -1 263 -89q114 -94 114 -266v-702h-117v698v6q1 120 -77 180q-75 58 -185 58h-14q-96 -2 -175 -52t-79 -138v-752h-113v752q0 102 -102 154q-89 45 -193 45q-17 0 -33 -1q-122 -8 -190 -59v-891h-117z" />
<glyph unicode="n" horiz-adv-x="1089" d="M143 0v977q244 84 408 84q162 -4 277.5 -93t115.5 -249v-719h-115v719q0 109 -82.5 168t-195.5 59q-145 0 -293 -61v-885h-115z" />
<glyph unicode="o" horiz-adv-x="1046" d="M113 324v419q0 164 119.5 254t283.5 93q164 -2 283 -92.5t119 -254.5v-419q0 -164 -119 -254t-283 -93q-164 2 -283.5 92.5t-119.5 254.5zM227 324q0 -113 86 -172.5t203 -59.5q115 0 201 59.5t86 172.5v419q0 113 -86 171.5t-201 58.5q-117 0 -203 -58.5t-86 -171.5 v-419z" />
<glyph unicode="p" horiz-adv-x="1034" d="M123 -391v1399q206 71 404 71h5q162 -2 280 -91t118 -251v-411q0 -160 -121 -254q-117 -92 -273 -92h-10q-152 4 -288 65v-436h-115zM238 154q145 -59 290 -60q117 2 202 61.5t83 166.5v4v411v4q2 106 -82 165t-199 59q-195 0 -294 -35v-776z" />
<glyph unicode="q" horiz-adv-x="1034" d="M106 326v411q0 162 118 251t280 91q201 0 409 -71v-1399h-114v436q-137 -61 -289 -65h-7q-158 0 -276 92q-121 94 -121 254zM223 322q-2 -106 83 -166t202 -62q146 1 291 60v776q-100 35 -295 35q-115 0 -199 -58.5t-82 -165.5v-4v-411v-4z" />
<glyph unicode="r" horiz-adv-x="628" d="M127 0v727q0 133 84 220t213 114q38 8 87 9q35 0 75 -5v-115q-32 7 -66 7q-39 0 -82 -9q-86 -20 -141 -76.5t-55 -144.5v-727h-115z" />
<glyph unicode="s" horiz-adv-x="874" d="M45 207l88 55q123 -166 309 -166h13q101 2 169 47q67 44 66 135v5q0 51 -20.5 88t-61.5 58.5t-75.5 31.5t-86.5 20q-61 10 -105 21.5t-97.5 35t-87 53.5t-56 78t-22.5 111q0 147 114.5 221t262.5 74q184 0 297 -106l-74 -86q-80 82 -223 82q-102 0 -183.5 -43t-81.5 -142 q0 -41 21.5 -72.5t44.5 -49t71 -34t68.5 -20.5t71.5 -14q336 -61 338 -307q0 -143 -101.5 -217t-248.5 -78h-17q-118 0 -218 53q-108 57 -175 166z" />
<glyph unicode="t" horiz-adv-x="563" d="M137 334v1116h115v-389h229v-115h-229v-612q0 -112 76 -184q60 -56 140 -56q22 0 46 4v-102q-31 -4 -60 -4q-120 0 -208 76q-110 96 -109 266z" />
<glyph unicode="u" horiz-adv-x="1058" d="M131 324v739h115v-739v-5q0 -106 82 -164.5t196 -60.5q141 0 293 64v905h115v-1000q-76 -25 -115 -34q-166 -47 -293 -47q-160 2 -276.5 91t-116.5 251z" />
<glyph unicode="v" horiz-adv-x="956" d="M25 1061h120l336 -957l334 957h121l-373 -1061h-166z" />
<glyph unicode="w" horiz-adv-x="1458" d="M25 1061h120l281 -942l229 942h146l229 -942l281 942h121l-320 -1061h-164l-219 907l-221 -907h-164z" />
<glyph unicode="x" horiz-adv-x="923" d="M25 0l364 530l-364 531h139l295 -449l293 449h139l-365 -531l365 -530h-139l-293 446l-295 -446h-139z" />
<glyph unicode="y" horiz-adv-x="1062" d="M117 338v723h119v-723v-4q-2 -109 85 -169.5t205 -62.5q158 0 299 62v897h117v-1102q0 -115 -59.5 -198t-152.5 -115.5t-198 -35.5h-14q-97 0 -190 36q-99 39 -160 106l82 76q47 -61 144 -89q68 -19 134 -19q30 0 59 4q95 12 166.5 74.5t71.5 160.5v94q-102 -66 -295 -69 h-7q-163 0 -283 94q-123 96 -123 260z" />
<glyph unicode="z" horiz-adv-x="897" d="M29 82l667 868l-628 -6v117h718l68 -84l-661 -864l657 4v-117h-750z" />
<glyph unicode="{" horiz-adv-x="587" d="M102 590v98q143 0 144 316v296q0 117 47 182.5t133 65.5h102v-98h-75q-57 0 -70.5 -35t-13.5 -127v-327q0 -98 -23.5 -174t-47.5 -107t-42 -39v-4q18 -10 42 -40t47.5 -106.5t23.5 -173.5v-335q0 -84 17 -119t77 -35h65v-98h-102q-86 0 -133 66.5t-47 180.5v299 q0 313 -144 314z" />
<glyph unicode="|" horiz-adv-x="454" d="M178 -365v1909h115v-1909h-115z" />
<glyph unicode="}" horiz-adv-x="563" d="M47 -172h66q59 0 76.5 35t17.5 119v335q0 96 23.5 173t47 107t41.5 40v4q-18 8 -41.5 39t-47 106.5t-23.5 174.5v327q0 63 -3 90t-21.5 49.5t-59.5 22.5h-76v98h103q86 0 133 -65.5t47 -182.5v-296q0 -315 143 -316v-98q-143 0 -143 -314v-299q0 -115 -47 -181t-133 -66 h-103v98z" />
<glyph unicode="~" horiz-adv-x="1112" d="M147 561q96 184 256 184q84 0 190.5 -69.5t151.5 -69.5q55 0 96.5 35.5t84.5 103.5l67 -61q-90 -188 -256 -188q-72 0 -178 70.5t-162 70.5q-92 0 -180 -135z" />
<glyph unicode="&#xa1;" horiz-adv-x="569" d="M180 909q0 41 29 70t69.5 29t69.5 -29t29 -70t-29 -69.5t-69.5 -28.5t-69.5 28.5t-29 69.5zM217 -455v1069h123v-1069h-123z" />
<glyph unicode="&#xa2;" horiz-adv-x="942" d="M102 338v389q0 147 99.5 236.5t244.5 103.5v190h95v-188q229 -14 323 -180l-96 -62q-59 113 -227 127v-843q86 6 152.5 48t88.5 113l103 -51q-37 -102 -131.5 -159.5t-212.5 -65.5v-189h-95v189q-145 16 -244.5 105t-99.5 237zM217 334q-2 -94 63.5 -151.5t165.5 -69.5 v839q-100 -12 -165.5 -69.5t-63.5 -151.5v-4v-389v-4z" />
<glyph unicode="&#xa3;" horiz-adv-x="991" d="M66 0v104h213v603h-213v98h213v246q0 76 20 145.5t65.5 135t129.5 104.5t196 39q152 0 279 -113l-82 -78q-80 80 -203 80q-141 0 -215 -94t-74 -205v-260h338v-98h-338v-603h502v-104h-831z" />
<glyph unicode="&#xa4;" horiz-adv-x="1148" d="M72 724.5q0 188.5 123 322.5l-117 112l69 76l117 -115q141 109 317.5 109t317.5 -109l117 115l69 -76l-116 -112q123 -133 123 -321.5t-123 -322.5l116 -112l-69 -76l-117 115q-141 -109 -317 -109t-318 109l-117 -115l-69 76l117 112q-123 133 -123 321.5zM182 723 q0 -166 117 -281.5t279 -115.5q164 0 280.5 115.5t116.5 281.5q0 168 -117 285.5t-280 117.5q-162 0 -279 -117.5t-117 -285.5z" />
<glyph unicode="&#xa5;" horiz-adv-x="1077" d="M-33 1452h142l423 -778l422 778h144l-469 -819h307l-21 -90h-323v-109h346l-20 -90h-326v-342h-121v342h-344l18 90h326v109h-338l21 90h280z" />
<glyph unicode="&#xa6;" horiz-adv-x="436" d="M160 -295v717h119v-717h-119zM160 729v717h119v-717h-119z" />
<glyph unicode="&#xa7;" horiz-adv-x="1015" d="M98 -49l109 51q33 -88 110.5 -134t171.5 -46q100 0 180.5 56t80.5 149q0 76 -64.5 132t-156 95t-182.5 84t-155.5 122t-64.5 181q0 172 217 264q-168 102 -168 260q0 150 113.5 236t267.5 86q111 0 201 -47t127 -146l-109 -59q-57 137 -225 137q-100 0 -176 -56t-76 -151 q0 -72 62.5 -126t150.5 -93t176 -83t150.5 -118.5t62.5 -175.5q0 -170 -182 -270q154 -90 153 -252q0 -158 -112.5 -250t-267.5 -92q-135 0 -241 61.5t-153 184.5zM254 645q0 -74 35.5 -114.5t107.5 -77.5l217 -105q66 35 118 92.5t52 118.5q0 113 -166 203l-155 88 q-209 -70 -209 -205z" />
<glyph unicode="&#xa8;" horiz-adv-x="575" d="M23 1351.5q0 34.5 24.5 59.5t59 25t59 -25t24.5 -59.5t-24.5 -59t-59 -24.5t-59 24.5t-24.5 59zM391 1351.5q0 34.5 24.5 59.5t59.5 25t59.5 -25t24.5 -59.5t-24.5 -59t-59.5 -24.5t-59.5 24.5t-24.5 59z" />
<glyph unicode="&#xa9;" horiz-adv-x="1626" d="M61 725q0 315 223.5 538.5t539 223.5t538.5 -223.5t223 -538.5t-223 -538.5t-538.5 -223.5t-539 223.5t-223.5 538.5zM182 725q0 -266 187.5 -453.5t454 -187.5t453.5 187.5t187 453.5t-187 453.5t-453.5 187.5t-454 -187.5t-187.5 -453.5zM422 571q0 -164 120 -254 t281 -90q131 0 237.5 58.5t145.5 169.5l-104 51q-23 -80 -101.5 -122t-177.5 -42q-117 0 -201.5 58.5t-84.5 166.5v4v310v4q0 109 85 167t201 58q197 0 267 -129l96 61q-51 88 -148.5 135.5t-214.5 47.5q-162 0 -281.5 -90.5t-119.5 -253.5v-310z" />
<glyph unicode="&#xaa;" horiz-adv-x="677" d="M43 981q2 119 82 170t205 51q81 1 155 -28v75q0 57 -49 87t-119 30q-123 0 -178 -70l-69 68q98 111 256 111q113 0 192.5 -59.5t79.5 -170.5v-471q-141 -47 -299 -43q-111 2 -183.5 69.5t-72.5 180.5zM156 981q0 -68 42 -107.5t105 -42.5q102 1 182 17v233 q-80 27 -159 27q-168 0 -170 -127z" />
<glyph unicode="&#xab;" horiz-adv-x="854" d="M72 604l280 416l99 -59l-244 -357l244 -356l-99 -60zM369 604l280 416l99 -59l-244 -357l244 -356l-99 -60z" />
<glyph unicode="&#xac;" horiz-adv-x="1161" d="M88 705v112h977v-469h-113v357h-864z" />
<glyph unicode="&#xad;" horiz-adv-x="681" d="M88 436v119h506v-119h-506z" />
<glyph unicode="&#xae;" horiz-adv-x="1607" d="M47 725q0 315 223.5 538.5t538.5 223.5t538.5 -223.5t223.5 -538.5t-223.5 -538.5t-538.5 -223.5t-538.5 223.5t-223.5 538.5zM164 725q0 -266 188.5 -455.5t456.5 -189.5t456.5 189.5t188.5 455.5t-188.5 455.5t-456.5 189.5t-456.5 -189.5t-188.5 -455.5zM532 289v878 h314q147 0 224 -67.5t77 -188.5q0 -115 -62.5 -182t-158.5 -84l262 -356h-125l-262 356h-160v-356h-109zM641 743h143q252 0 252 168q0 78 -58 118t-138 40h-199v-326z" />
<glyph unicode="&#xaf;" d="M-25 1311v119h541v-119h-541z" />
<glyph unicode="&#xb0;" horiz-adv-x="714" d="M80 1196q0 113 80 192.5t194.5 79.5t194.5 -79.5t80 -192.5t-81 -194.5t-194 -81.5q-115 0 -194.5 80.5t-79.5 195.5zM182 1194q0 -72 50.5 -122t122 -50t121.5 50t50 122t-50 122t-121.5 50t-122 -50t-50.5 -122z" />
<glyph unicode="&#xb1;" horiz-adv-x="1161" d="M133 776v117h385v367h117v-367h395v-117h-395v-368h-117v368h-385zM141 195v112h881v-112h-881z" />
<glyph unicode="&#xb2;" horiz-adv-x="692" d="M31 657l426 404q111 102 69 201q-16 43 -61 69q-111 61 -242 10q-63 -27 -92 -86l-96 41q41 100 158 146q180 66 331 -27q72 -43 103 -119q31 -78 0 -163t-97 -146l-315 -301h426v-104h-580z" />
<glyph unicode="&#xb3;" horiz-adv-x="706" d="M43 768l92 45l8 -16q23 -47 79.5 -76t115.5 -33q127 -8 197 76q27 35 26 86q0 72 -35 113q-53 51 -149 47h-66v82h66q68 0 119 51q31 25 30 84q0 47 -30 84q-57 66 -169 53.5t-155 -88.5l-8 -16l-86 47q57 145 260 155q63 2 127 -18q68 -27 102 -64q57 -59 58 -153 q-1 -117 -95 -168q135 -51 136 -209v-2q-4 -94 -64 -164q-94 -104 -270 -96q-90 4 -168 47t-113 117z" />
<glyph unicode="&#xb4;" horiz-adv-x="436" d="M82 1184l166 266h164l-211 -266h-119z" />
<glyph unicode="&#xb5;" horiz-adv-x="1028" d="M117 -467v1516h123v-660q0 -303 237 -303q143 0 235.5 100.5t92.5 286.5v576h123l6 -1049h-119q-4 127 -8 147h-6q-37 -80 -123 -126t-201 -46q-154 0 -239 117v-559h-121z" />
<glyph unicode="&#xb6;" horiz-adv-x="1128" d="M56.5 864q-27.5 133 4 266.5t160.5 226.5t318 93h465v-1708h-119v1610h-256v-1610h-123v803q-178 0 -300 93t-149.5 226z" />
<glyph unicode="&#xb7;" horiz-adv-x="532" d="M168 651q0 41 28.5 70t69.5 29t70 -29t29 -70t-29 -69.5t-70 -28.5t-69.5 28.5t-28.5 69.5z" />
<glyph unicode="&#xb8;" d="M68 -365l24 68q59 -31 133 -31q41 0 77 19.5t36 58.5q0 55 -70.5 68.5t-109.5 -11.5l-27 27l107 166h65l-74 -115l4 -4q68 31 130.5 -11t60.5 -120t-59.5 -115.5t-135.5 -37.5q-80 0 -161 38z" />
<glyph unicode="&#xb9;" horiz-adv-x="577" d="M96 1223l207 237h98v-868h-102v708l-125 -139z" />
<glyph unicode="&#xba;" horiz-adv-x="745" d="M53 973v237q0 121 94.5 188.5t219.5 67.5t219 -67.5t94 -188.5v-237q0 -121 -94 -188.5t-219 -67.5t-219.5 67.5t-94.5 188.5zM158 973q0 -80 62.5 -117t146.5 -37t146 37t62 117v237q0 80 -62 117t-146 37t-146.5 -37t-62.5 -117v-237z" />
<glyph unicode="&#xbb;" horiz-adv-x="829" d="M90 248l244 356l-244 357l98 59l281 -416l-281 -416zM387 248l244 356l-244 357l98 59l281 -416l-281 -416z" />
<glyph unicode="&#xbc;" horiz-adv-x="1482" d="M61 1223l78 -62l125 139v-708h103v868h-99zM201 -12l934 1532l94 -58l-936 -1532zM774 309l68 -98h395v-209h104v209h70v96h-70v565h-108zM899 307l346 434l-8 -434h-338z" />
<glyph unicode="&#xbd;" horiz-adv-x="1585" d="M74 1223l78 -62l124 139v-708h103v868h-98zM172 -12l934 1532l94 -58l-936 -1532zM899 70l31 -76h579v104h-426l316 301q66 61 96.5 146.5t-0.5 163.5q-31 76 -102 118q-152 92 -332 27q-117 -45 -158 -145l96 -41q29 59 93 86q131 51 241 -11q45 -27 62 -69 q41 -98 -70 -201z" />
<glyph unicode="&#xbe;" horiz-adv-x="1556" d="M35 768l8 -16q35 -74 112.5 -117t168.5 -47q129 -4 232 65.5t101 196.5q0 158 -135 209q94 51 94 168q0 94 -57 153q-35 37 -102 64q-63 20 -127 18q-203 -10 -260 -155l86 -47l8 16q43 76 154.5 88t168.5 -53q31 -37 31 -84q0 -59 -31 -84q-51 -51 -118 -51h-66v-82h66 q96 4 149 -47q35 -41 35 -113q0 -82 -70.5 -125t-152.5 -37q-59 4 -115.5 33t-79.5 76l-8 16zM340 -12l934 1532l94 -58l-936 -1532zM846 309l67 -98h396v-209h104v209h70v96h-70v565h-108zM971 307l346 434l-8 -434h-338z" />
<glyph unicode="&#xbf;" horiz-adv-x="978" d="M61 -4q-2 -164 99.5 -271.5t241 -135t288 15t234.5 151.5l-90 72h-3q-63 -80 -173.5 -112.5t-215 -14.5t-183.5 95t-81 198q-2 156 127 250t305 96l-14 442h-100l-15 -346q-182 -33 -300 -140.5t-120 -299.5zM451 991q0 39 26.5 66.5t65.5 27.5q41 0 68.5 -27.5 t27.5 -66.5q0 -41 -28.5 -68.5t-67.5 -27.5t-65.5 27.5t-26.5 68.5z" />
<glyph unicode="&#xc0;" horiz-adv-x="1267" d="M20 0h127l170 483h623l174 -483h127l-524 1450h-176zM360 604l269 756l268 -756h-537zM377 1802h164l166 -266h-119z" />
<glyph unicode="&#xc1;" horiz-adv-x="1267" d="M20 0l521 1450h176l524 -1450h-127l-174 483h-623l-170 -483h-127zM360 604h537l-268 756zM565 1528l166 266h164l-211 -266h-119z" />
<glyph unicode="&#xc2;" horiz-adv-x="1267" d="M20 0h127l170 483h623l174 -483h127l-524 1450h-176zM340 1503l221 244h144l221 -244h-135l-162 168l-152 -168h-137zM360 604l269 756l268 -756h-537z" />
<glyph unicode="&#xc3;" horiz-adv-x="1267" d="M20 0h127l170 483h623l174 -483h127l-524 1450h-176zM360 604l269 756l268 -756h-537zM385 1567q18 94 101 123.5t165 -19.5q37 -27 87 -24.5t71 49.5l74 -29q-16 -92 -98.5 -116.5t-153.5 18.5q-143 73 -176 -27z" />
<glyph unicode="&#xc4;" horiz-adv-x="1267" d="M20 0h127l170 483h623l174 -483h127l-524 1450h-176zM360 604l269 756l268 -756h-537zM365 1616q0 35 24.5 59.5t59 24.5t59 -24.5t24.5 -59.5t-24.5 -59.5t-59 -24.5t-59 24.5t-24.5 59.5zM733 1616q0 35 24.5 59.5t59.5 24.5t59.5 -24.5t24.5 -59.5t-24.5 -59.5 t-59.5 -24.5t-59.5 24.5t-24.5 59.5z" />
<glyph unicode="&#xc5;" horiz-adv-x="1267" d="M20 0h127l170 483h623l174 -483h127l-524 1450h-176zM360 604l269 756l268 -756h-537zM442 1694q0 80 56.5 137t136.5 57q78 0 133 -59.5t55 -136.5q0 -76 -55 -134.5t-133 -58.5q-80 0 -136.5 57.5t-56.5 137.5zM532 1692q0 -43 30 -73t71 -30q43 0 71.5 31t28.5 74 t-28.5 73.5t-71.5 30.5t-72 -31.5t-29 -74.5z" />
<glyph unicode="&#xc6;" horiz-adv-x="1669" d="M18 0l740 1450h821v-121h-618v-545h555v-120h-555v-543h618v-121h-739v483h-441l-239 -483h-142zM461 604h379v750z" />
<glyph unicode="&#xc7;" horiz-adv-x="1179" d="M98 426v598q0 145 88 252.5t222.5 148.5t277.5 38t268 -72.5t183 -186.5l-109 -53v-2q-43 86 -140 138t-209 55.5t-216.5 -25.5t-174 -106.5t-69.5 -186.5v-598q0 -109 69.5 -186.5t174 -106.5t216.5 -25.5t209 55.5t140 138l109 -53q-61 -127 -201.5 -195.5 t-306.5 -66.5l-54 -80l5 -4q66 31 132 -15.5t62 -119.5q-2 -78 -61.5 -118t-137.5 -40q-72 0 -161 43l28 72q59 -31 129 -31q104 0 105 74q0 55 -68.5 68t-107.5 -11l-27 26l84 140q-197 18 -328 132t-131 304z" />
<glyph unicode="&#xc8;" horiz-adv-x="1171" d="M162 0v1452h909v-121h-788v-545h727v-122h-727v-543h788v-121h-909zM393 1798h164l166 -266h-119z" />
<glyph unicode="&#xc9;" horiz-adv-x="1171" d="M162 0v1452h909v-121h-788v-545h727v-122h-727v-543h788v-121h-909zM545 1528l166 266h163l-210 -266h-119z" />
<glyph unicode="&#xca;" horiz-adv-x="1171" d="M162 0v1452h909v-121h-788v-545h727v-122h-727v-543h788v-121h-909zM336 1528l221 244h143l222 -244h-136l-161 168l-152 -168h-137z" />
<glyph unicode="&#xcb;" horiz-adv-x="1171" d="M162 0v1452h909v-121h-788v-545h727v-122h-727v-543h788v-121h-909zM371 1626q0 35 24.5 59.5t59 24.5t59.5 -24.5t25 -59.5t-25 -59.5t-59.5 -24.5t-59 24.5t-24.5 59.5zM739 1626q0 35 24.5 59.5t59.5 24.5t59.5 -24.5t24.5 -59.5t-24.5 -59.5t-59.5 -24.5t-59.5 24.5 t-24.5 59.5z" />
<glyph unicode="&#xcc;" horiz-adv-x="475" d="M-37 1808h164l166 -266h-119zM164 0v1450h121v-1450h-121z" />
<glyph unicode="&#xcd;" horiz-adv-x="475" d="M164 0v1450h121v-1450h-121zM164 1538l166 266h164l-211 -266h-119z" />
<glyph unicode="&#xce;" horiz-adv-x="475" d="M-61 1524l221 237h143l221 -237h-135l-162 162l-151 -162h-137zM164 0v1450h121v-1450h-121z" />
<glyph unicode="&#xcf;" horiz-adv-x="475" d="M-41 1620q0 35 24.5 59.5t59.5 24.5t59.5 -24.5t24.5 -59.5t-24.5 -59.5t-59.5 -24.5t-59.5 24.5t-24.5 59.5zM164 0v1450h121v-1450h-121zM328 1620q0 35 24.5 59.5t59 24.5t59.5 -24.5t25 -59.5t-25 -59.5t-59.5 -24.5t-59 24.5t-24.5 59.5z" />
<glyph unicode="&#xd0;" horiz-adv-x="1255" d="M18 662v108h129v680h484q225 0 384 -107.5t159 -316.5v-604q0 -141 -81 -239.5t-200 -140.5t-262 -42h-484v662h-129zM268 121h363q113 0 204 28.5t154.5 99t63.5 173.5v604q0 152 -123 227.5t-299 75.5h-363v-559h256v-108h-256v-541z" />
<glyph unicode="&#xd1;" horiz-adv-x="1411" d="M162 0v1450h147l819 -1317v1317h121v-1450h-180l-786 1264v-1264h-121zM477 1561q18 94 101.5 123.5t164.5 -19.5q37 -27 87.5 -25t70.5 50l74 -29q-16 -92 -98 -116.5t-154 18.5q-143 73 -176 -27z" />
<glyph unicode="&#xd2;" horiz-adv-x="1396" d="M123 410v632q0 123 63.5 218.5t165 145.5t224 72.5t244.5 0t223.5 -72.5t165 -145.5t63.5 -218.5v-632q0 -123 -63.5 -218.5t-165 -145.5t-224.5 -72.5t-244.5 0t-223 72.5t-165 145.5t-63.5 218.5zM244 410q0 -90 50 -160t130 -105.5t176 -53t193.5 0t177.5 53t130 105 t50 160.5v632q0 162 -134 244t-323 82q-186 -2 -318 -85t-132 -241v-632zM446 1810h164l166 -266h-119z" />
<glyph unicode="&#xd3;" horiz-adv-x="1396" d="M123 410v632q0 123 63.5 218.5t165 145.5t224 72.5t244.5 0t223.5 -72.5t165 -145.5t63.5 -218.5v-632q0 -123 -63.5 -218.5t-165 -145.5t-224.5 -72.5t-244.5 0t-223 72.5t-165 145.5t-63.5 218.5zM244 410q0 -90 50 -160t130 -105.5t176 -53t193.5 0t177.5 53t130 105 t50 160.5v632q0 162 -134 244t-323 82q-186 -2 -318 -85t-132 -241v-632zM643 1546l166 266h164l-211 -266h-119z" />
<glyph unicode="&#xd4;" horiz-adv-x="1396" d="M123 410v632q0 123 63.5 218.5t165 145.5t224 72.5t244.5 0t223.5 -72.5t165 -145.5t63.5 -218.5v-632q0 -123 -63.5 -218.5t-165 -145.5t-224.5 -72.5t-244.5 0t-223 72.5t-165 145.5t-63.5 218.5zM244 410q0 -90 50 -160t130 -105.5t176 -53t193.5 0t177.5 53t130 105 t50 160.5v632q0 162 -134 244t-323 82q-186 -2 -318 -85t-132 -241v-632zM408 1538l221 244h143l221 -244h-135l-162 168l-151 -168h-137z" />
<glyph unicode="&#xd5;" horiz-adv-x="1396" d="M123 410v632q0 123 63.5 218.5t165 145.5t224 72.5t244.5 0t223.5 -72.5t165 -145.5t63.5 -218.5v-632q0 -123 -63.5 -218.5t-165 -145.5t-224.5 -72.5t-244.5 0t-223 72.5t-165 145.5t-63.5 218.5zM244 410q0 -90 50 -160t130 -105.5t176 -53t193.5 0t177.5 53t130 105 t50 160.5v632q0 162 -134 244t-323 82q-186 -2 -318 -85t-132 -241v-632zM444 1579q18 94 101.5 124t165.5 -20q37 -27 87 -24.5t70 49.5l74 -29q-16 -92 -98 -116.5t-154 18.5q-143 73 -176 -27z" />
<glyph unicode="&#xd6;" horiz-adv-x="1396" d="M123 410v632q0 123 63.5 218.5t165 145.5t224 72.5t244.5 0t223.5 -72.5t165 -145.5t63.5 -218.5v-632q0 -123 -63.5 -218.5t-165 -145.5t-224.5 -72.5t-244.5 0t-223 72.5t-165 145.5t-63.5 218.5zM244 410q0 -90 50 -160t130 -105.5t176 -53t193.5 0t177.5 53t130 105 t50 160.5v632q0 162 -134 244t-323 82q-186 -2 -318 -85t-132 -241v-632zM438 1618q0 35 24.5 59.5t59.5 24.5t59.5 -24.5t24.5 -59.5t-24.5 -59.5t-59.5 -24.5t-59.5 24.5t-24.5 59.5zM807 1618q0 35 24.5 59.5t59.5 24.5t59.5 -24.5t24.5 -59.5t-24.5 -59.5t-59.5 -24.5 t-59.5 24.5t-24.5 59.5z" />
<glyph unicode="&#xd7;" horiz-adv-x="978" d="M82 954l82 82l336 -338l329 330l80 -82l-325 -325l321 -322l-82 -84l-323 324l-332 -332l-80 84l328 327z" />
<glyph unicode="&#xd8;" horiz-adv-x="1396" d="M123 410v632q0 109 51 198t135 141.5t188.5 81t216 25.5t214.5 -34l57 143l107 -36l-60 -150q240 -123 240 -369v-632q0 -135 -78 -237.5t-195.5 -149t-259 -58.5t-268.5 31l-59 -152l-109 37l62 158q-242 123 -242 371zM244 410q0 -166 166 -260l473 1193 q-90 25 -189 25q-186 -2 -318 -85t-132 -241v-632zM516 109q100 -33 212 -24t205 42t155.5 108.5t62.5 174.5v632q0 170 -162 261z" />
<glyph unicode="&#xd9;" horiz-adv-x="1400" d="M156 424v1026h120v-1026q0 -90 47.5 -162t121 -108.5t164.5 -53t181.5 0t164 53t120.5 108.5t47 162v1026h121v-1026q0 -123 -60.5 -220.5t-155.5 -148.5t-211 -73.5t-232.5 0t-212 73.5t-155.5 147.5t-60 221.5zM451 1794h163l166 -266h-118z" />
<glyph unicode="&#xda;" horiz-adv-x="1400" d="M156 424v1026h120v-1026q0 -90 47.5 -162t121 -108.5t164.5 -53t181.5 0t164 53t120.5 108.5t47 162v1026h121v-1026q0 -123 -60.5 -220.5t-155.5 -148.5t-211 -73.5t-232.5 0t-212 73.5t-155.5 147.5t-60 221.5zM588 1524l166 266h164l-211 -266h-119z" />
<glyph unicode="&#xdb;" horiz-adv-x="1400" d="M156 424v1026h120v-1026q0 -90 47.5 -162t121 -108.5t164.5 -53t181.5 0t164 53t120.5 108.5t47 162v1026h121v-1026q0 -123 -60.5 -220.5t-155.5 -148.5t-211 -73.5t-232.5 0t-212 73.5t-155.5 147.5t-60 221.5zM416 1540l221 244h143l221 -244h-135l-161 168l-152 -168 h-137z" />
<glyph unicode="&#xdc;" horiz-adv-x="1400" d="M156 424v1026h120v-1026q0 -92 47.5 -165t121 -110.5t164.5 -55t181.5 0t164 55t120.5 110.5t47 165v1026h121v-1026q0 -123 -60.5 -220.5t-155.5 -148.5t-211 -73.5t-232.5 0t-212 73.5t-155.5 147.5t-60 221.5zM434 1630q0 35 24.5 59.5t59.5 24.5t59.5 -24.5 t24.5 -59.5t-24.5 -59.5t-59.5 -24.5t-59.5 24.5t-24.5 59.5zM803 1630q0 35 24.5 59.5t59.5 24.5t59.5 -24.5t24.5 -59.5t-24.5 -59.5t-59.5 -24.5t-59.5 24.5t-24.5 59.5z" />
<glyph unicode="&#xdd;" horiz-adv-x="1122" d="M-4 1450h141l424 -762l422 762h143l-505 -883v-567h-121v567zM494 1522l165 266h164l-211 -266h-118z" />
<glyph unicode="&#xde;" horiz-adv-x="1124" d="M160 2v1462h123v-284q90 12 192 12q276 0 422.5 -114.5t146.5 -329.5q0 -121 -50 -210t-138 -137.5t-188.5 -71t-216.5 -22.5h-54l11 119h36q92 0 169 14.5t151 47t116 99t42 161.5q0 96 -42 163.5t-113 100t-143.5 46t-156.5 13.5q-100 0 -184 -14v-1055h-123z" />
<glyph unicode="&#xdf;" horiz-adv-x="1230" d="M158 -2v1122q0 180 136 284.5t320 104.5q186 0 322.5 -98t136.5 -278q0 -231 -168 -328q236 -82 236 -375q-2 -141 -83 -242.5t-200 -146.5t-256 -43q-129 4 -221 49l2 129q100 -51 217 -55q170 -4 294 78t124 233q0 158 -100.5 234.5t-264.5 74.5h-188v115h188 q127 0 213 72.5t86 204.5q0 133 -99 197.5t-239 64.5q-137 0 -237.5 -70t-100.5 -205v-1122h-118z" />
<glyph unicode="&#xe0;" horiz-adv-x="1034" d="M92 332q0 -162 105.5 -259.5t265.5 -99.5q225 -4 434 68v702q0 133 -88 218.5t-208 105.5t-249 -14.5t-209 -120.5l78 -74q66 82 201 103.5t247.5 -37t112.5 -181.5v-118q-100 45 -219 54t-224.5 -19.5t-176 -114.5t-70.5 -213zM207 332q0 106 62.5 166.5t156.5 68.5 t186.5 -5t169.5 -44v-414q-131 -33 -313 -28q-115 2 -188.5 69.5t-73.5 186.5zM299 1360h150l143 -236h-103z" />
<glyph unicode="&#xe1;" horiz-adv-x="1034" d="M92 332q0 127 70.5 213t176 114.5t224.5 19.5t219 -54v118q0 123 -112.5 181.5t-247.5 37t-201 -103.5l-78 74q80 86 209 120.5t249 14.5t208 -105t88 -219v-702q-209 -72 -434 -68q-160 2 -265.5 99.5t-105.5 259.5zM207 332q0 -119 73.5 -186.5t188.5 -69.5 q182 -5 313 28v414q-78 31 -170 44t-186 5t-156.5 -68.5t-62.5 -166.5zM410 1124l143 236h149l-190 -236h-102z" />
<glyph unicode="&#xe2;" horiz-adv-x="1034" d="M92 332q0 -162 105.5 -259.5t265.5 -99.5q225 -4 434 68v702q0 133 -88 218.5t-208 105.5t-249 -14.5t-209 -120.5l78 -74q66 82 201 103.5t247.5 -37t112.5 -181.5v-118q-100 45 -219 54t-224.5 -19.5t-176 -114.5t-70.5 -213zM207 332q0 106 62.5 166.5t156.5 68.5 t186.5 -5t169.5 -44v-414q-131 -33 -313 -28q-115 2 -188.5 69.5t-73.5 186.5zM244 1124l198 219h129l199 -219h-121l-145 152l-137 -152h-123z" />
<glyph unicode="&#xe3;" horiz-adv-x="1034" d="M92 332q0 -162 105.5 -259.5t265.5 -99.5q225 -4 434 68v702q0 133 -88 218.5t-208 105.5t-249 -14.5t-209 -120.5l78 -74q66 82 201 103.5t247.5 -37t112.5 -181.5v-118q-100 45 -219 54t-224.5 -19.5t-176 -114.5t-70.5 -213zM207 332q0 106 62.5 166.5t156.5 68.5 t186.5 -5t169.5 -44v-414q-131 -33 -313 -28q-115 2 -188.5 69.5t-73.5 186.5zM270 1186q18 94 91 123.5t147 -19.5q33 -27 78 -24.5t63 49.5l66 -29q-16 -92 -88 -116.5t-138 18.5q-126 73 -157 -27z" />
<glyph unicode="&#xe4;" horiz-adv-x="1034" d="M92 332q0 -162 105.5 -259.5t265.5 -99.5q225 -4 434 68v702q0 133 -88 218.5t-208 105.5t-249 -14.5t-209 -120.5l78 -74q66 82 201 103.5t247.5 -37t112.5 -181.5v-118q-100 45 -219 54t-224.5 -19.5t-176 -114.5t-70.5 -213zM207 332q0 106 62.5 166.5t156.5 68.5 t186.5 -5t169.5 -44v-414q-131 -33 -313 -28q-115 2 -188.5 69.5t-73.5 186.5zM272 1200q0 31 21.5 53.5t54.5 22.5t54.5 -22.5t21.5 -53.5q0 -33 -21.5 -54.5t-54.5 -21.5t-54.5 21.5t-21.5 54.5zM604 1200q0 31 21.5 53.5t54.5 22.5t54.5 -22.5t21.5 -53.5 q0 -33 -21.5 -54.5t-54.5 -21.5t-54.5 21.5t-21.5 54.5z" />
<glyph unicode="&#xe5;" horiz-adv-x="1034" d="M92 332q0 -162 105.5 -259.5t265.5 -99.5q225 -4 434 68v702q0 133 -88 218.5t-208 105.5t-249 -14.5t-209 -120.5l78 -74q66 82 201 103.5t247.5 -37t112.5 -181.5v-118q-100 45 -219 54t-224.5 -19.5t-176 -114.5t-70.5 -213zM207 332q0 106 62.5 166.5t156.5 68.5 t186.5 -5t169.5 -44v-414q-131 -33 -313 -28q-115 2 -188.5 69.5t-73.5 186.5zM352 1282.5q0 63.5 48.5 110.5t116 47t114.5 -48.5t47 -111.5q0 -61 -48 -108.5t-114 -47.5q-68 0 -116 47.5t-48 111zM430 1280q0 -35 24.5 -58.5t59.5 -23.5q39 0 62.5 23.5t23.5 60.5 t-23.5 60.5t-62.5 23.5q-37 0 -60.5 -24.5t-23.5 -61.5z" />
<glyph unicode="&#xe6;" horiz-adv-x="1673" d="M84 328q0 127 70.5 213t175 116.5t223.5 22.5t219 -53v121q0 123 -112.5 181t-246.5 36.5t-200 -103.5l-78 74q84 94 223.5 128t273.5 -2t202 -134q111 150 340 149q164 0 282.5 -90t118.5 -254v-262h-688v-149v-5q0 -109 85 -167t202 -58q92 0 166.5 36t103.5 105 l102 -51q-45 -98 -148.5 -151.5t-223.5 -53.5q-207 0 -320 125q-88 -76 -220 -105.5t-254 -10t-209 108.5t-87 233zM199 328q0 -104 68.5 -166t163.5 -71t196.5 16.5t171.5 78.5q-27 63 -27 136v198q-78 31 -169 43t-185 2t-156.5 -70.5t-62.5 -166.5zM887 569h573v164v4 q0 109 -85 167.5t-201.5 58.5t-200.5 -58t-86 -162v-174z" />
<glyph unicode="&#xe7;" horiz-adv-x="905" d="M98 328v407q0 164 120 254t282 90q117 0 214 -47t148 -135l-96 -61q-70 129 -266 129q-117 0 -202 -58.5t-85 -167.5v-415q0 -109 85 -167.5t202 -58.5q98 0 177 42t101 122l105 -51q-39 -104 -134.5 -161.5t-218.5 -63.5l-57 -90l4 -5q68 31 130.5 -11t60.5 -119.5 t-59.5 -115.5t-135.5 -38q-80 0 -162 39l25 67q59 -31 133 -30q41 0 77 19t36 58q0 55 -71 68.5t-110 -10.5l-26 26l90 142q-154 10 -260.5 98t-106.5 244z" />
<glyph unicode="&#xe8;" horiz-adv-x="1009" d="M106 317q0 -164 120 -254t284 -90q121 0 224.5 53.5t148.5 151.5l-103 51q-31 -70 -105.5 -105.5t-164.5 -35.5q-119 0 -204 59.5t-83 169.5v148h688v100v174q0 164 -119.5 254t-281.5 90q-164 0 -284 -90t-120 -254v-422zM223 565v174v4q-2 109 83 167.5t204 58.5 q117 0 202 -58.5t85 -167.5v-4v-174h-574zM299 1360h150l143 -230h-103z" />
<glyph unicode="&#xe9;" horiz-adv-x="1009" d="M106 317v422q0 164 120 254t284 90q162 0 281.5 -90t119.5 -254v-174v-100h-688v-148q-2 -111 83 -170t204 -59q90 0 165 36t105 105l103 -51q-45 -98 -148.5 -151.5t-224.5 -53.5q-164 0 -284 90.5t-120 253.5zM223 565h574v174v4q0 109 -85 167.5t-202 58.5 q-119 0 -204 -58.5t-83 -167.5v-4v-174zM422 1130l143 230h150l-191 -230h-102z" />
<glyph unicode="&#xea;" horiz-adv-x="1009" d="M106 317q0 -164 120 -254t284 -90q121 0 224.5 53.5t148.5 151.5l-103 51q-31 -70 -105.5 -105.5t-164.5 -35.5q-119 0 -204 59.5t-83 169.5v148h688v100v174q0 164 -119.5 254t-281.5 90q-164 0 -284 -90t-120 -254v-422zM223 565v174v4q-2 109 83 167.5t204 58.5 q117 0 202 -58.5t85 -167.5v-4v-174h-574zM242 1118l198 219h129l199 -219h-121l-145 152l-137 -152h-123z" />
<glyph unicode="&#xeb;" horiz-adv-x="1009" d="M106 317q0 -164 120 -254t284 -90q121 0 224.5 53.5t148.5 151.5l-103 51q-31 -70 -105.5 -105.5t-164.5 -35.5q-119 0 -204 59.5t-83 169.5v148h688v100v174q0 164 -119.5 254t-281.5 90q-164 0 -284 -90t-120 -254v-422zM223 565v174v4q-2 109 83 167.5t204 58.5 q117 0 202 -58.5t85 -167.5v-4v-174h-574zM266 1206q0 31 21.5 53.5t54.5 22.5t54.5 -22.5t21.5 -53.5q0 -33 -21.5 -54.5t-54.5 -21.5t-54.5 21.5t-21.5 54.5zM600 1206q0 31 21.5 53.5t54.5 22.5t54.5 -22.5t21.5 -53.5q0 -33 -21.5 -54.5t-54.5 -21.5t-54.5 21.5 t-21.5 54.5z" />
<glyph unicode="&#xec;" d="M14 1288h150l143 -229h-102zM184 0v946h123v-946h-123z" />
<glyph unicode="&#xed;" d="M184 0v946h123v-946h-123zM188 1059l144 229h149l-190 -229h-103z" />
<glyph unicode="&#xee;" d="M-10 1055l196 221h127l199 -221h-121l-145 151l-135 -151h-121zM184 0v946h123v-946h-123z" />
<glyph unicode="&#xef;" horiz-adv-x="489" d="M41 1139q0 31 20.5 52t53.5 21q31 0 52 -21.5t21 -51.5q0 -33 -21.5 -53.5t-51.5 -20.5q-33 0 -53.5 20.5t-20.5 53.5zM184 0v946h123v-946h-123zM303 1139q0 31 20.5 52t53.5 21q31 0 52.5 -21.5t21.5 -51.5q0 -33 -21.5 -53.5t-52.5 -20.5q-33 0 -53.5 20.5t-20.5 53.5 z" />
<glyph unicode="&#xf0;" horiz-adv-x="1077" d="M141 328v311q0 158 119 250t279 90q158 0 284 -64v215q0 154 -168 209l-51 -163l-92 32l49 150q-88 6 -169 -22t-124 -81l-78 72q68 76 178.5 112t225.5 25l45 138l90 -31l-39 -125q111 -33 178.5 -113t67.5 -203v-1060q-55 -18 -113 -35q-166 -47 -293 -47 q-158 2 -273.5 91t-115.5 249zM254 326q0 -106 82 -166t196 -60q143 0 291 62v645q-137 59 -288 59q-115 -2 -198 -60t-83 -165v-2v-311v-2z" />
<glyph unicode="&#xf1;" horiz-adv-x="1089" d="M143 0h115v885q147 61 293 61q113 0 195.5 -59.5t82.5 -167.5v-719h115v719q0 160 -115.5 249t-277.5 93q-164 0 -408 -84v-977zM336 1159q16 92 84.5 120t138.5 -19q31 -27 73 -25t60 49l62 -29q-14 -90 -82 -113.5t-129 19.5q-121 70 -148 -26z" />
<glyph unicode="&#xf2;" horiz-adv-x="1030" d="M113 324q0 -164 119.5 -254t283.5 -93q164 2 283 92.5t119 254.5v419q0 164 -119 254t-283 93q-164 -2 -283.5 -92.5t-119.5 -254.5v-419zM227 324v419q0 113 86 171.5t203 58.5q115 0 201 -58.5t86 -171.5v-419q0 -113 -86 -172.5t-201 -59.5q-117 0 -203 59.5 t-86 172.5zM301 1366h164l127 -225h-119z" />
<glyph unicode="&#xf3;" horiz-adv-x="1030" d="M113 324v419q0 164 119.5 254t283.5 93q164 -2 283 -92.5t119 -254.5v-419q0 -164 -119 -254t-283 -93q-164 2 -283.5 92.5t-119.5 254.5zM227 324q0 -113 86 -172.5t203 -59.5q115 0 201 59.5t86 172.5v419q0 113 -86 171.5t-201 58.5q-117 0 -203 -58.5t-86 -171.5 v-419zM434 1147l127 225h164l-172 -225h-119z" />
<glyph unicode="&#xf4;" horiz-adv-x="1030" d="M113 324q0 -164 119.5 -254t283.5 -93q164 2 283 92.5t119 254.5v419q0 164 -119 254t-283 93q-164 -2 -283.5 -92.5t-119.5 -254.5v-419zM227 324v419q0 113 86 171.5t203 58.5q115 0 201 -58.5t86 -171.5v-419q0 -113 -86 -172.5t-201 -59.5q-117 0 -203 59.5 t-86 172.5zM270 1135l191 208h123l188 -208h-115l-139 133l-129 -133h-119z" />
<glyph unicode="&#xf5;" horiz-adv-x="1030" d="M113 324q0 -164 119.5 -254t283.5 -93q164 2 283 92.5t119 254.5v419q0 164 -119 254t-283 93q-164 -2 -283.5 -92.5t-119.5 -254.5v-419zM227 324v419q0 113 86 171.5t203 58.5q115 0 201 -58.5t86 -171.5v-419q0 -113 -86 -172.5t-201 -59.5q-117 0 -203 59.5 t-86 172.5zM303 1176q18 94 89 123.5t140 -19.5q33 -27 76 -25t60 50l63 -29q-14 -92 -83.5 -116.5t-131.5 18.5q-124 73 -151 -27z" />
<glyph unicode="&#xf6;" horiz-adv-x="1030" d="M113 324q0 -164 119.5 -254t283.5 -93q164 2 283 92.5t119 254.5v419q0 164 -119 254t-283 93q-164 -2 -283.5 -92.5t-119.5 -254.5v-419zM227 324v419q0 113 86 171.5t203 58.5q115 0 201 -58.5t86 -171.5v-419q0 -113 -86 -172.5t-201 -59.5q-117 0 -203 59.5 t-86 172.5zM281 1212q0 31 21.5 52.5t51.5 21.5q33 0 54.5 -21.5t21.5 -52.5q0 -33 -21.5 -54t-54.5 -21q-31 0 -52 21t-21 54zM608 1212q0 31 21.5 52.5t52.5 21.5q33 0 54.5 -21.5t21.5 -52.5q0 -33 -21.5 -54t-54.5 -21q-31 0 -52.5 21t-21.5 54z" />
<glyph unicode="&#xf7;" horiz-adv-x="1081" d="M94 616v123h889v-123h-889zM444 350q0 43 31 73t74 32q43 0 73.5 -31t30.5 -74t-30.5 -73.5t-73.5 -30.5t-74 30.5t-31 73.5zM444 981q0 43 31 73.5t74 30.5t73.5 -30.5t30.5 -73.5t-30.5 -73.5t-73.5 -30.5t-74 30.5t-31 73.5z" />
<glyph unicode="&#xf8;" horiz-adv-x="1030" d="M113 324v419q0 164 119.5 254t283.5 93q86 -4 156 -27l63 156l99 -37l-68 -162q152 -96 152 -277v-419q0 -164 -119 -254t-283 -93q-92 4 -166 27l-57 -139l-90 37l59 145q-149 95 -149 277zM227 324q0 -104 78 -168l324 800q-60 17 -113 17q-117 0 -203 -58.5 t-86 -171.5v-419zM393 111q57 -19 123 -19q115 0 201 59.5t86 172.5v419q0 104 -82 166z" />
<glyph unicode="&#xf9;" horiz-adv-x="1058" d="M131 324q0 -162 117 -251t276 -91q127 0 293 47q39 10 115 34v998h-115v-903q-152 -63 -293 -64q-115 2 -196.5 60.5t-81.5 164.5v5v737h-115v-737zM336 1329h156l129 -209h-115z" />
<glyph unicode="&#xfa;" horiz-adv-x="1058" d="M131 324v737h115v-737v-5q0 -106 82 -164.5t196 -60.5q141 0 293 64v903h115v-998q-76 -25 -115 -34q-166 -47 -293 -47q-160 2 -276.5 91t-116.5 251zM430 1120l129 209h156l-170 -209h-115z" />
<glyph unicode="&#xfb;" horiz-adv-x="1058" d="M131 324q0 -162 117 -251t276 -91q127 0 293 47q39 10 115 34v998h-115v-903q-152 -63 -293 -64q-115 2 -196.5 60.5t-81.5 164.5v5v737h-115v-737zM283 1124l192 209h125l195 -209h-119l-141 144l-134 -144h-118z" />
<glyph unicode="&#xfc;" horiz-adv-x="1058" d="M131 324q0 -162 117 -251t276 -91q127 0 293 47q39 10 115 34v1000h-115v-905q-152 -63 -293 -64q-115 2 -196.5 60.5t-81.5 164.5v5v739h-115v-739zM303 1210q0 31 21.5 52.5t52.5 21.5t52.5 -21.5t21.5 -52.5q0 -33 -21.5 -54t-52.5 -21t-52.5 21t-21.5 54zM629 1210 q0 31 21.5 52.5t51.5 21.5q33 0 54.5 -21.5t21.5 -52.5q0 -33 -21.5 -54t-54.5 -21q-31 0 -52 21t-21 54z" />
<glyph unicode="&#xfd;" horiz-adv-x="1062" d="M117 338v723h119v-723v-4q-2 -109 85 -169.5t205 -62.5q158 0 299 62v897h117v-1102q0 -115 -59.5 -198t-152.5 -115.5t-197.5 -35.5t-204 36t-160.5 106l82 76q47 -61 144.5 -89t192.5 -15.5t166.5 75t71.5 160.5v94q-102 -66 -295 -69q-168 -2 -290.5 94t-122.5 260z M457 1116l129 215h164l-175 -215h-118z" />
<glyph unicode="&#xfe;" horiz-adv-x="1067" d="M141 -401v1849h115v-426q145 37 295 37q162 -2 279.5 -91t117.5 -251v-393q0 -160 -120.5 -254.5t-282.5 -92.5q-152 4 -289 66v-444h-115zM256 154q141 -59 293 -60q117 2 201 60.5t81 164.5v5v393v4q2 106 -80.5 164.5t-199.5 58.5q-193 0 -295 -35v-755z" />
<glyph unicode="&#xff;" horiz-adv-x="1062" d="M117 338v723h119v-723v-4q-2 -109 85 -169.5t205 -62.5q158 0 299 62v897h117v-1102q0 -115 -59.5 -198t-152.5 -115.5t-197.5 -35.5t-204 36t-160.5 106l82 76q47 -61 144.5 -89t192.5 -15.5t166.5 75t71.5 160.5v94q-102 -66 -295 -69q-168 -2 -290.5 94t-122.5 260z M303 1237q0 31 21.5 52.5t52.5 21.5t51.5 -21.5t20.5 -52.5t-20.5 -51.5t-51.5 -20.5t-52.5 20.5t-21.5 51.5zM625 1237q0 31 20.5 52.5t51 21.5t52 -21.5t21.5 -52.5t-20.5 -51.5t-51.5 -20.5q-73 0 -73 72z" />
<glyph unicode="&#x131;" horiz-adv-x="452" d="M162 0v983h123v-983h-123z" />
<glyph unicode="&#x152;" horiz-adv-x="1964" d="M121 420v606q0 209 169 325.5t400 118.5q182 0 285 -67v45h907v-121h-786v-545h723v-120h-723v-543h786v-121h-907v35q-115 -61 -295 -58q-229 4 -394 121t-165 324zM242 420q0 -113 77.5 -191.5t190.5 -108.5t240 -20.5t225 60.5v1132q-119 61 -283 58q-186 0 -318 -83 t-132 -241v-606z" />
<glyph unicode="&#x153;" horiz-adv-x="1701" d="M113 328v409q0 162 118.5 252t280.5 90q111 0 205 -49t137 -143q33 96 131 145t213 51q162 -2 281.5 -92t119.5 -252v-161v-101h-688v-149q0 -111 86 -170.5t201 -59.5q90 0 165 36t105 106l103 -52q-45 -98 -147.5 -150t-225.5 -54q-111 0 -206 47t-138 139 q-43 -90 -137 -136t-205 -48q-162 2 -280.5 91t-118.5 251zM227 328q0 -111 85 -169.5t200 -58.5t200 58.5t85 169.5v411q0 111 -85 168.5t-200 57.5t-200 -58.5t-85 -169.5v-409zM911 578h574v161v2q0 109 -85 168.5t-202 59.5t-202 -59.5t-85 -172.5v-159z" />
<glyph unicode="&#x178;" horiz-adv-x="1142" d="M6 1450h141l424 -762l422 762h144l-506 -883v-567h-121v567zM281 1632q0 35 24.5 59.5t59 24.5t59.5 -24.5t25 -59.5t-25 -59.5t-59.5 -24.5t-59 24.5t-24.5 59.5zM694 1632q0 35 24.5 59.5t59.5 24.5t59.5 -24.5t24.5 -59.5t-24.5 -59.5t-59.5 -24.5t-59.5 24.5 t-24.5 59.5z" />
<glyph unicode="&#x192;" horiz-adv-x="1038" d="M-39 -246l62 96q43 -35 108 -34q78 0 118 55t60 172l131 707h-221v108h240l59 316q55 301 293 301q100 0 184 -62l-65 -92q-61 43 -119 43q-135 0 -170 -184l-59 -322h221v-108h-240l-147 -791q-49 -254 -293 -254q-102 0 -162 49z" />
<glyph unicode="&#x2c6;" horiz-adv-x="536" d="M-31 1206l221 244h144l221 -244h-135l-162 168l-152 -168h-137z" />
<glyph unicode="&#x2c7;" horiz-adv-x="526" d="M-37 1448h135l162 -156l152 156h137l-221 -231h-144z" />
<glyph unicode="&#x2d8;" d="M-27 1442h101q12 -51 56 -81t92 -31t91 29t54 83h102q-12 -100 -88 -156.5t-162 -56.5t-160.5 56t-85.5 157z" />
<glyph unicode="&#x2d9;" d="M147 1335q0 45 30 75t75 30t74.5 -30t29.5 -75t-29.5 -74.5t-74.5 -29.5t-75 29.5t-30 74.5z" />
<glyph unicode="&#x2da;" d="M55 1329q0 80 56.5 137.5t136.5 57.5q78 0 133 -59.5t55 -137.5q0 -76 -55 -134t-133 -58q-80 0 -136.5 57t-56.5 137zM145 1327q0 -43 30 -72.5t71 -29.5q43 0 71.5 30.5t28.5 73.5t-28.5 74t-71.5 31t-72 -32t-29 -75z" />
<glyph unicode="&#x2db;" d="M20 -215q0 78 54.5 135t126.5 80h92q-45 -35 -67.5 -53.5t-51.5 -58.5t-29 -76q0 -55 38 -75t82 -6.5t69 44.5l49 -90q-74 -68 -174 -68q-84 0 -136.5 45t-52.5 123z" />
<glyph unicode="&#x2dc;" horiz-adv-x="555" d="M23 1307q18 94 101 123.5t165 -19.5q37 -27 87 -24.5t70 49.5l74 -29q-16 -92 -98 -116.5t-154 18.5q-143 73 -176 -27z" />
<glyph unicode="&#x2dd;" horiz-adv-x="559" d="M49 1161l117 289h164l-178 -289h-103zM348 1161l117 289h164l-178 -289h-103z" />
<glyph unicode="&#x3a9;" horiz-adv-x="1540" d="M80 0v111h340v6q-139 113 -227.5 280.5t-88.5 376.5q0 309 199 500.5t494 191.5t482 -197.5t187 -486.5q0 -217 -89 -390t-222 -275v-6h338v-111h-549v76q178 102 290 287.5t112 418.5q0 223 -153 399.5t-400 176.5q-246 0 -406 -167t-160 -421q0 -217 113 -395t297 -299 v-76h-557z" />
<glyph unicode="&#x3c0;" horiz-adv-x="1122" d="M4 1022q84 51 266 51h801l-12 -106h-158v-670q0 -106 24 -149.5t87 -41.5l2 -108q-129 6 -180.5 79t-51.5 208v682h-426v-967h-112v967q-145 0 -217 -27z" />
<glyph unicode="&#x2000;" horiz-adv-x="944" />
<glyph unicode="&#x2001;" horiz-adv-x="1888" />
<glyph unicode="&#x2002;" horiz-adv-x="944" />
<glyph unicode="&#x2003;" horiz-adv-x="1888" />
<glyph unicode="&#x2004;" horiz-adv-x="629" />
<glyph unicode="&#x2005;" horiz-adv-x="472" />
<glyph unicode="&#x2006;" horiz-adv-x="314" />
<glyph unicode="&#x2007;" horiz-adv-x="314" />
<glyph unicode="&#x2008;" horiz-adv-x="236" />
<glyph unicode="&#x2009;" horiz-adv-x="377" />
<glyph unicode="&#x200a;" horiz-adv-x="104" />
<glyph unicode="&#x2010;" horiz-adv-x="681" d="M88 555v119h506v-119h-506z" />
<glyph unicode="&#x2011;" horiz-adv-x="681" d="M88 555v119h506v-119h-506z" />
<glyph unicode="&#x2012;" horiz-adv-x="681" d="M88 555v119h506v-119h-506z" />
<glyph unicode="&#x2013;" horiz-adv-x="1024" d="M39 555v117h950v-117h-950z" />
<glyph unicode="&#x2014;" horiz-adv-x="1884" d="M25 555v117h1835v-117h-1835z" />
<glyph unicode="&#x2018;" horiz-adv-x="448" d="M98 983l156 467h123l-131 -467h-148z" />
<glyph unicode="&#x2019;" horiz-adv-x="466" d="M94 983l129 467h150l-158 -467h-121z" />
<glyph unicode="&#x201a;" horiz-adv-x="499" d="M94 -283l129 437h150l-158 -437h-121z" />
<glyph unicode="&#x201c;" horiz-adv-x="802" d="M117 983l157 467h121l-129 -467h-149zM430 983l158 467h121l-129 -467h-150z" />
<glyph unicode="&#x201d;" horiz-adv-x="886" d="M145 983l129 467h150l-158 -467h-121zM453 983l129 467h149l-158 -467h-120z" />
<glyph unicode="&#x201e;" horiz-adv-x="964" d="M168 -283l129 428h149l-157 -428h-121zM504 -283l129 428h149l-157 -428h-121z" />
<glyph unicode="&#x2020;" horiz-adv-x="1038" d="M63 944v109h394v397h123v-397h393v-109h-393v-1202h-123v1202h-394z" />
<glyph unicode="&#x2021;" horiz-adv-x="1038" d="M63 143v105h394v696h-394v107h394v399h123v-399h393v-107h-393v-696h393v-105h-393v-401h-123v401h-394z" />
<glyph unicode="&#x2022;" horiz-adv-x="876" d="M131 725q0 123 87 210t210 87t210 -87t87 -210t-87 -210t-210 -87t-210 87t-87 210z" />
<glyph unicode="&#x2026;" horiz-adv-x="1437" d="M180 86q0 41 29 69.5t69.5 28.5t69.5 -28.5t29 -69.5t-29 -69.5t-69.5 -28.5t-69.5 28.5t-29 69.5zM608 86q0 41 29 69.5t70 28.5t69.5 -28.5t28.5 -69.5t-28.5 -69.5t-69.5 -28.5t-70 28.5t-29 69.5zM1034 86q0 41 29 69.5t70 28.5t69.5 -28.5t28.5 -69.5t-28.5 -69.5 t-69.5 -28.5t-70 28.5t-29 69.5z" />
<glyph unicode="&#x202f;" horiz-adv-x="377" />
<glyph unicode="&#x2030;" horiz-adv-x="2224" d="M70 1063q0 176 85 281.5t218 105.5q141 0 222 -103.5t81 -287.5q0 -178 -84 -283.5t-219 -105.5q-145 0 -224 101t-79 292zM188 -82l1022 1618l101 -61l-1020 -1618zM190 1063q0 -145 44.5 -210t138.5 -65q184 1 184 271q0 274 -186 274q-92 0 -136.5 -64.5t-44.5 -205.5 zM860 385q0 178 84 282.5t219 104.5q141 0 221 -102.5t80 -288.5q0 -178 -84 -282.5t-217 -104.5q-145 0 -224 100.5t-79 290.5zM979 385q0 -145 44 -209.5t140 -64.5q183 0 183 270q0 276 -187 276q-92 0 -136 -65.5t-44 -206.5zM1546 385q0 178 84 282.5t219 104.5 q141 0 221 -102.5t80 -288.5q0 -178 -84 -282.5t-217 -104.5q-145 0 -224 100.5t-79 290.5zM1665 385q0 -145 44 -209.5t140 -64.5q183 0 183 270q0 276 -187 276q-92 0 -136 -65.5t-44 -206.5z" />
<glyph unicode="&#x2039;" horiz-adv-x="530" d="M72 604l280 416l99 -59l-244 -357l244 -356l-99 -60z" />
<glyph unicode="&#x203a;" horiz-adv-x="532" d="M80 248l244 356l-244 357l98 59l281 -416l-281 -416z" />
<glyph unicode="&#x2044;" horiz-adv-x="344" d="M-342 -12l934 1532l94 -58l-936 -1532z" />
<glyph unicode="&#x205f;" horiz-adv-x="472" />
<glyph unicode="&#x20ac;" horiz-adv-x="1191" d="M39 578l20 90h115v110h-129l21 92h108v156q0 125 57.5 221t147.5 148.5t202.5 69t218 -5t198 -86t139.5 -165.5l-109 -55q-55 113 -179 162t-247 31.5t-216 -103.5t-93 -217v-156h555l-21 -92h-534v-110h557l-19 -90h-538v-156q0 -135 94 -221t217 -99.5t247 36.5 t177 157l109 -53q-47 -98 -138.5 -163t-198 -88.5t-218 -7t-201.5 67.5t-148.5 147.5t-58.5 223.5v156h-135z" />
<glyph unicode="&#x2122;" horiz-adv-x="1697" d="M39 1352v100h639v-100h-266v-699h-107v699h-266zM778 653v799h123l260 -571l260 571h125v-799h-108l8 623l-240 -526h-90l-235 518l4 -615h-107z" />
<glyph unicode="&#x2202;" horiz-adv-x="1007" d="M68 432q0 223 122.5 363.5t288.5 140.5q119 0 204 -60.5t120 -123.5h2q20 283 -86.5 483.5t-282.5 200.5q-147 0 -258 -90l-45 92q133 104 313 104q197 0 337.5 -188.5t140.5 -550.5q0 -369 -128 -593t-366 -224q-174 0 -268 129t-94 317zM186 436q0 -154 67.5 -247 t178.5 -93h2q139 0 244.5 153.5t109.5 360.5q-27 78 -112.5 148.5t-190.5 70.5q-123 0 -211 -115.5t-88 -277.5z" />
<glyph unicode="&#x2206;" horiz-adv-x="1239" d="M63 0v88l492 1397h135l488 -1395v-90h-1115zM203 115h823l-403 1181h-9z" />
<glyph unicode="&#x220f;" horiz-adv-x="1335" d="M53 1337v115h1229v-115h-213v-1480h-117v1480h-571v-1480h-117v1480h-211z" />
<glyph unicode="&#x2211;" horiz-adv-x="1067" d="M45 -94l547 723l-522 731v88h919v-109h-753v-8l491 -694l-524 -703v-8h819v-106h-977v86z" />
<glyph unicode="&#x221a;" horiz-adv-x="1103" d="M68 686l256 98l278 -899l375 1829h119l-428 -2029h-111l-305 952l-146 -53z" />
<glyph unicode="&#x221e;" horiz-adv-x="1501" d="M94 592q0 135 88 224t224 89q100 0 181 -59.5t177 -167.5l4 6q68 74 105.5 110.5t108.5 73.5t144 37q131 -2 210 -86t79 -219v-2q0 -137 -90 -224t-215 -87q-90 0 -167 51t-185 170q-66 -72 -108 -111t-113.5 -74.5t-145.5 -35.5q-123 0 -210 88t-87 217zM207 590 q2 -84 56 -140.5t140 -56.5h3q47 0 99 31t84 60.5t81 82.5l24 25q-55 68 -89 102.5t-94 69.5t-122 35q-84 0 -133 -60.5t-49 -148.5zM825 598q76 -80 114 -114.5t85 -62.5t94 -28q84 0 134.5 59.5t50.5 139.5q0 96 -52.5 151.5t-134.5 55.5h-2q-104 0 -256 -166z" />
<glyph unicode="&#x222b;" horiz-adv-x="667" d="M18 -293l25 90q106 -43 177 10.5t71 165.5q0 166 -12.5 749t-12.5 740q0 100 36 173t91.5 105t122 31t127.5 -40l-25 -97q-106 63 -173.5 8t-65.5 -192q2 -96 14.5 -693t12.5 -786q0 -94 -36 -162.5t-92.5 -97t-125 -33t-134.5 28.5z" />
<glyph unicode="&#x2248;" horiz-adv-x="1099" d="M113 436q96 143 241 144q74 0 195 -66h-2l28 -16l17 -9q92 -57 162 -57q74 0 135 86l78 -59q-88 -135 -222 -135q-55 0 -100 18t-131 66q-115 66 -172 65q-84 0 -152 -98zM113 731q96 141 241 141q80 0 193 -65l31 -16h-3q6 -2 16.5 -8.5t14.5 -8.5q84 -49 148 -49 q75 0 141 94l72 -61q-88 -137 -222 -137q-55 0 -102 18t-127 66q-111 63 -174 63q-80 0 -152 -100z" />
<glyph unicode="&#x2260;" horiz-adv-x="1081" d="M90 348v109h332q74 166 117 258h-449v108h496q16 35 52 113t52 115l88 -41l-86 -187h301v-108h-346q-74 -166 -117 -258h463v-109h-508q-16 -35 -54 -114.5t-52 -116.5l-90 45l86 186h-285z" />
<glyph unicode="&#x2264;" horiz-adv-x="956" d="M76 119v108h776v-108h-776zM104 707v92l721 411v-131l-587 -327l587 -322v-129z" />
<glyph unicode="&#x2265;" horiz-adv-x="964" d="M100 119v108h777v-108h-777zM127 301v129l588 322l-588 327v131l721 -411v-92z" />
<glyph unicode="&#x25ca;" horiz-adv-x="1118" d="M51 727l445 795h120l439 -793l-445 -795h-123zM193 731l325 -581q12 -27 33 -91q16 51 37 91l325 577l-325 573q-16 33 -37 86q-10 -31 -39 -86z" />
<glyph unicode="&#x25fc;" horiz-adv-x="1064" d="M0 0v1065h1065v-1065h-1065z" />
</font>
</defs>
</svg>
