<?xml version="1.0" standalone="no"?>
<!DOCTYPE svg PUBLIC "-//W3C//DTD SVG 1.1//EN" "http://www.w3.org/Graphics/SVG/1.1/DTD/svg11.dtd" >
<svg xmlns="http://www.w3.org/2000/svg" xmlns:xlink="http://www.w3.org/1999/xlink" version="1.1">
<metadata></metadata>
<defs>
<font id="uni_sans_book_italicitalic" horiz-adv-x="491" >
<font-face units-per-em="2048" ascent="1548" descent="-500" />
<missing-glyph horiz-adv-x="489" />
<glyph unicode="&#xfb01;" horiz-adv-x="976" d="M4 -305q84 53 105 194q29 205 86 613.5t86 613.5q25 166 137 254t270 90l-16 -114q-109 0 -185.5 -60.5t-91.5 -169.5l-33 -237h230l-17 -115h-229q-20 -145 -61 -437t-62 -438q-27 -184 -166 -274zM700 0l148 1061h115q-33 -236 -74 -530.5t-74 -530.5h-115zM846 1321 q6 39 35.5 65.5t68.5 26.5t62.5 -26.5t17.5 -65.5q-4 -39 -34.5 -65.5t-69.5 -26.5t-61.5 26.5t-18.5 65.5z" />
<glyph unicode="&#xfb02;" horiz-adv-x="1028" d="M4 -305q84 53 105 194q29 205 86 613.5t86 613.5q25 166 137 254t270 90l-16 -114q-109 0 -185.5 -60.5t-91.5 -169.5l-33 -237h230l-17 -115h-229q-20 -145 -61 -437t-62 -438q-27 -184 -166 -274zM729 328l158 1124h114l-157 -1124q-33 -222 178 -222l-16 -114 q-154 0 -226.5 88t-50.5 248z" />
<glyph horiz-adv-x="0" />
<glyph unicode="&#xd;" horiz-adv-x="681" />
<glyph unicode=" "  horiz-adv-x="489" />
<glyph unicode="&#x09;" horiz-adv-x="489" />
<glyph unicode="&#xa0;" horiz-adv-x="489" />
<glyph unicode="!" horiz-adv-x="600" d="M209 86q6 41 39 69.5t73.5 28.5t65.5 -28.5t19 -69.5q-4 -41 -37 -69.5t-74 -28.5t-65.5 28.5t-20.5 69.5zM289 381l149 1069h121l-149 -1069h-121z" />
<glyph unicode="&#x22;" horiz-adv-x="712" d="M281 983l65 467h123l-100 -467h-88zM563 983l66 467h123l-103 -467h-86z" />
<glyph unicode="#" horiz-adv-x="1464" d="M104 455l41 114h332l141 326h-368l41 117h379l190 436h129l-190 -436h327l191 436h131l-193 -436h324l-47 -117h-330l-139 -326h369l-46 -114h-376l-199 -457h-129l201 457h-330l-199 -457h-129l201 457h-322zM606 569h328l141 326h-327z" />
<glyph unicode="$" horiz-adv-x="1165" d="M86 256l117 49q29 -88 119 -143.5t210 -65.5l86 611q-104 23 -165.5 44t-129 64t-91 114.5t-5.5 174.5q29 164 171.5 262t328.5 113l29 209h100l-29 -209q156 -10 275 -81t153 -192l-114 -49q-27 88 -118 141.5t-212 61.5l-78 -557q41 -8 69.5 -15.5t67.5 -17.5t66 -21.5 t58.5 -26.5t53 -33.5t43 -42t34 -53.5t20.5 -64.5t7 -76.5t-11 -92q-33 -172 -181.5 -272t-343.5 -113l-30 -208h-101l31 208q-158 12 -276.5 85t-153.5 196zM346 1098q-14 -68 2.5 -116t63.5 -78t96 -47t127 -34l76 537q-135 -12 -237.5 -79.5t-127.5 -182.5zM633 96 q143 10 251.5 80t137.5 189q16 78 0 134t-65.5 92t-103.5 55.5t-138 37.5z" />
<glyph unicode="%" horiz-adv-x="1529" d="M176 -82l1249 1618l93 -61l-1248 -1618zM217 1063q27 176 126 281.5t232 105.5q141 0 208 -103.5t40 -287.5q-25 -178 -124 -283.5t-234 -105.5q-145 0 -210 101t-38 292zM338 1063q-20 -145 15.5 -210t129.5 -65q183 1 222 271q39 274 -148 274q-92 0 -145.5 -64.5 t-73.5 -205.5zM913 385q25 178 123.5 282.5t233.5 104.5q141 0 208 -102.5t40 -288.5q-27 -178 -125.5 -282.5t-231.5 -104.5q-147 0 -210.5 100.5t-37.5 290.5zM1032 385q-20 -145 14.5 -209.5t131.5 -64.5q182 0 221 270q39 276 -148 276q-92 0 -145 -65.5t-74 -206.5z " />
<glyph unicode="&#x26;" horiz-adv-x="1288" d="M158 399q10 78 44 140.5t97 115t107.5 81t134.5 77.5q-47 66 -71 104.5t-44 104t-12 125.5q20 145 138 232t265 87q131 0 215 -84t66 -213q-10 -72 -43 -129t-93.5 -104t-107.5 -73.5t-129 -67.5l299 -369l141 192l95 -49l-168 -221l192 -260h-156l-116 156 q-221 -252 -477 -252q-186 0 -294 111.5t-83 295.5zM281 403q-18 -133 65.5 -217t222.5 -84q189 1 377 224l-342 411q-70 -39 -108.5 -62.5t-93 -66.5t-84 -93t-37.5 -112zM537 1151q-14 -100 120 -287q55 27 82 40.5t77 45t77 58t51.5 67.5t30.5 86q12 88 -39 144.5 t-141 56.5q-94 0 -169 -60.5t-89 -150.5z" />
<glyph unicode="'" horiz-adv-x="415" d="M276 983l66 467h123l-90 -467h-99z" />
<glyph unicode="(" horiz-adv-x="532" d="M215 698q35 244 143.5 483t270.5 427l88 -66q-150 -162 -249 -390t-132 -454q-57 -422 149 -848l-104 -61q-113 195 -156 434.5t-10 474.5z" />
<glyph unicode=")" horiz-adv-x="532" d="M-4 -209q152 162 252 391.5t131 452.5q66 467 -141 887l104 61q113 -193 153 -451t7 -497q-33 -242 -141.5 -481.5t-270.5 -427.5z" />
<glyph unicode="*" horiz-adv-x="858" d="M205 1145l43 94l289 -98l43 309h96l-43 -311l307 98l18 -98l-309 -92l152 -254l-84 -60l-158 256l-217 -256l-74 60l224 258z" />
<glyph unicode="+" horiz-adv-x="1271" d="M203 639l18 119h473l64 461h116l-63 -461h455l-19 -119h-454l-66 -465h-117l66 465h-473z" />
<glyph unicode="," horiz-adv-x="550" d="M90 -283l201 467h143l-223 -467h-121z" />
<glyph unicode="-" horiz-adv-x="681" d="M166 555l16 119h506l-16 -119h-506z" />
<glyph unicode="." horiz-adv-x="471" d="M154 86q6 41 38.5 69.5t73.5 28.5t65.5 -28.5t18.5 -69.5q-4 -41 -36.5 -69.5t-73.5 -28.5t-65.5 28.5t-20.5 69.5z" />
<glyph unicode="/" horiz-adv-x="757" d="M12 -37l842 1561l102 -37l-841 -1561z" />
<glyph unicode="0" horiz-adv-x="1230" d="M150 399l92 660q29 203 202.5 312.5t380.5 109.5q96 0 182.5 -25.5t156 -76t104.5 -133.5t20 -187l-92 -660q-18 -137 -113.5 -236.5t-217.5 -142.5t-251 -43q-131 0 -240.5 43t-176 142.5t-47.5 236.5zM270 399q-20 -154 89.5 -227.5t271.5 -73.5q100 0 190 27t165 98.5 t89 175.5l92 660q23 154 -87.5 227.5t-270.5 73.5q-100 0 -190.5 -26.5t-165 -97.5t-91.5 -177z" />
<glyph unicode="1" horiz-adv-x="665" d="M197 1104l378 348h123l-202 -1452h-119l180 1286l-283 -254z" />
<glyph unicode="2" horiz-adv-x="1128" d="M72 94l817 686q115 96 161 199.5t23.5 183.5t-104.5 133.5t-209 59.5q-137 4 -252 -54.5t-174 -160.5l-101 47q78 137 225.5 213t319.5 72q131 -4 229.5 -52.5t145.5 -129.5t49 -177t-59.5 -206.5t-177.5 -209.5l-684 -575h784l-16 -121h-951z" />
<glyph unicode="3" horiz-adv-x="1183" d="M72 246l116 53q37 -102 163 -154.5t264.5 -43t256 90t138.5 218.5q23 166 -60.5 245.5t-255.5 77.5h-121l17 113h121q295 0 327 244q14 98 -34 164.5t-133 88t-180 15.5t-184 -52t-138 -116l-95 53q45 72 120 124t160 76.5t177 30t173 -19t142.5 -69t92 -122t16.5 -173.5 q-29 -205 -201 -297q217 -82 174 -385q-18 -125 -96 -220.5t-182.5 -143.5t-227 -61.5t-232 11t-197.5 90.5t-121 162z" />
<glyph unicode="4" horiz-adv-x="1101" d="M94 506l914 946h143l-135 -965h121l-15 -108h-121l-53 -375h-121l54 375h-709zM225 487h670l119 824z" />
<glyph unicode="5" horiz-adv-x="1196" d="M104 246l117 53q37 -102 162 -151.5t261 -37t252 95.5t136 220q2 12 6 45t6 45q23 150 -80.5 224.5t-273.5 74.5q-203 0 -405 -90l-64 -4q14 113 50 365.5t53 363.5h897l-17 -121h-776q-6 -43 -66 -459q184 72 347 70q133 -2 239.5 -43t171 -139.5t45.5 -239.5 q-2 -12 -6 -47t-6 -47q-18 -125 -95 -221.5t-181.5 -146.5t-226.5 -66.5t-230.5 7t-195.5 88.5t-120 161z" />
<glyph unicode="6" horiz-adv-x="1265" d="M164 406l90 641q29 201 204 312t394 109q164 0 288 -66.5t169 -189.5l-117 -55q-31 94 -129 143.5t-227 49.5q-172 0 -306.5 -80t-154.5 -226l-43 -311q152 182 442 182q217 -2 357.5 -112.5t111.5 -308.5l-12 -88q-27 -199 -199 -310.5t-389 -111.5 q-219 -2 -361.5 109.5t-117.5 312.5zM285 408q-20 -145 92 -225.5t285 -80.5q168 0 299 81t149 225l12 84q20 143 -88 224t-276 81q-172 0 -306.5 -80t-154.5 -225z" />
<glyph unicode="7" horiz-adv-x="1046" d="M94 0l946 1331h-800l16 121h913l31 -90l-969 -1362h-137z" />
<glyph unicode="8" horiz-adv-x="1193" d="M106 410q18 131 96.5 235.5t196.5 138.5l2 7q-80 35 -113.5 114.5t-19.5 175.5q27 182 174.5 283.5t333.5 101.5h39q186 0 306 -101t96 -284q-14 -96 -70.5 -176t-145.5 -114l-2 -7q111 -35 161 -139t32 -235q-33 -205 -204 -320t-382 -115h-39q-211 0 -349 115t-112 320 zM225 412q-23 -156 89 -236t270 -80h39q158 0 292 80t156 236q12 94 -10.5 158.5t-77.5 97t-119.5 45t-152.5 12.5h-39q-88 0 -155.5 -12.5t-132.5 -45t-105.5 -97t-53.5 -158.5zM385 1081q-10 -76 10.5 -126t69.5 -74.5t100 -32.5t123 -8h39q72 0 126 8t109.5 32.5t91.5 75 t46 125.5q16 131 -72 201t-229 70h-39q-141 0 -250 -70t-125 -201z" />
<glyph unicode="9" horiz-adv-x="1247" d="M141 238l117 55q31 -94 128 -143.5t226 -49.5q172 0 306.5 80t154.5 226l45 311q-156 -182 -444 -182q-217 2 -356.5 112.5t-112.5 308.5l12 88q27 199 199 310.5t389 111.5q219 2 362.5 -109.5t116.5 -312.5l-90 -641q-18 -135 -111.5 -233t-220.5 -144t-266 -44 q-164 0 -288 66.5t-167 189.5zM326 958q-20 -143 88 -224t276 -81q172 0 306 80t155 225l12 84q20 145 -91 225.5t-284 80.5q-168 0 -299 -81.5t-151 -224.5z" />
<glyph unicode=":" horiz-adv-x="479" d="M160 117q4 41 36.5 69.5t73.5 28.5t65.5 -28.5t20.5 -69.5q-6 -41 -38.5 -70t-73.5 -29t-65.5 29t-18.5 70zM268 891q4 41 37 69.5t74 28.5t65.5 -28.5t20.5 -69.5q-6 -41 -39 -69.5t-74 -28.5t-65.5 28.5t-18.5 69.5z" />
<glyph unicode=";" horiz-adv-x="507" d="M47 -283l184 467h160l-223 -467h-121zM274 860q4 41 37 69.5t74 28.5t65.5 -28.5t20.5 -69.5q-6 -41 -39 -69.5t-74 -28.5t-65.5 28.5t-18.5 69.5z" />
<glyph unicode="&#x3c;" horiz-adv-x="970" d="M199 571l12 99l782 430l-18 -137l-637 -342l541 -338l-19 -136z" />
<glyph unicode="=" horiz-adv-x="1146" d="M219 424l14 113h834l-14 -113h-834zM258 707l16 110h834l-16 -110h-834z" />
<glyph unicode="&#x3e;" horiz-adv-x="983" d="M174 147l19 136l634 338l-538 342l18 137l660 -430l-13 -99z" />
<glyph unicode="?" horiz-adv-x="974" d="M213 1294q82 88 199.5 135.5t233.5 42t214 -47.5t150.5 -139t31.5 -230q-29 -193 -161.5 -300.5t-319.5 -140.5l-63 -333h-101l47 430q176 2 319.5 96t162.5 250q14 121 -53.5 197.5t-170 95t-218 -14t-189.5 -112.5h-2zM326 88q4 41 36.5 69.5t73.5 28.5 q39 0 62.5 -28.5t19.5 -69.5q-6 -41 -36.5 -68.5t-71.5 -27.5t-66 27.5t-18 68.5z" />
<glyph unicode="@" horiz-adv-x="1583" d="M184 729q43 313 290 529.5t558 216.5q293 0 465 -173.5t135 -429.5q-35 -244 -205 -418.5t-346 -174.5q-55 0 -84.5 34.5t-21.5 100.5h-4q-55 -55 -130 -95t-149 -40q-129 0 -188.5 83.5t-40.5 210.5q31 225 188.5 404.5t366.5 179.5q74 0 126 -40t64 -126h4l66 127h121 l-277 -581q-31 -63 -35 -97q-10 -53 43 -53q106 0 238.5 160t155.5 325q31 219 -119 362.5t-383 143.5q-270 0 -481 -193.5t-248 -455.5q-39 -270 123 -461.5t428 -191.5q109 0 211 37l35 -86q-127 -47 -261 -47q-324 0 -507 217t-138 532zM575 578q-10 -84 31 -137.5 t119 -53.5q133 0 258 155.5t145 301.5q31 209 -133 209q-162 2 -279.5 -151.5t-140.5 -323.5z" />
<glyph unicode="A" horiz-adv-x="1267" d="M20 0l723 1450h177l321 -1450h-127l-106 483h-623l-238 -483h-127zM444 604h537l-162 756z" />
<glyph unicode="B" horiz-adv-x="1290" d="M162 0l203 1452h550q178 0 283 -95q85 -77 85 -208q0 -31 -5 -66q-33 -223 -201 -311q181 -67 181 -282q0 -41 -7 -87q-63 -403 -540 -403h-549zM299 121h430h20q157 1 255 61q104 64 126 224q5 36 5 67q0 113 -65 167q-81 69 -249 69h-10h-430zM397 829h430 q297 0 334 254q3 24 3 45q0 96 -60 144q-72 58 -205 59h-430z" />
<glyph unicode="C" horiz-adv-x="1179" d="M158 426l84 598q20 145 124 252q102 108 242 149q130 38 263 38h19q142 -3 258 -72.5t157 -186.5l-117 -53v-2q-37 107 -165 157q-99 39 -206 39q-31 1 -61 -3q-140 -14 -257.5 -98.5t-136.5 -219.5l-83 -598q-3 -21 -3 -42q0 -82 46 -144q56 -78 158 -107 q91 -26 190 -26q12 1 24 1q112 4 216 55.5t159 137.5l102 -53q-61 -96 -167 -160q-106 -65 -224 -89q-70 -14 -140 -14q-48 1 -97 7q-119 16 -211 66.5t-142 146.5q-37 70 -37 155q0 32 5 66z" />
<glyph unicode="D" horiz-adv-x="1269" d="M162 0l203 1450h483q143 0 256 -42q112 -42 180 -140q51 -75 52 -177q0 -31 -5 -65l-86 -604q-20 -141 -113.5 -239.5t-218.5 -140.5t-268 -42h-483zM299 121h363q176 0 309 75.5t153 225.5l86 604q3 23 3 45q0 119 -94 183q-111 76 -288 75h-362z" />
<glyph unicode="E" horiz-adv-x="1171" d="M162 0l203 1452h909l-17 -121h-788l-78 -545h727l-16 -122h-727l-76 -543h788l-16 -121h-909z" />
<glyph unicode="F" horiz-adv-x="1118" d="M162 0l203 1450h907l-17 -121h-786l-82 -586h690l-18 -120h-690l-86 -623h-121z" />
<glyph unicode="G" horiz-adv-x="1337" d="M150 426l83 608q16 123 93 218.5t183.5 146.5t230.5 67q54 8 105 8q67 0 129 -12q111 -22 200.5 -86.5t121.5 -163.5l-116 -53q-37 106 -165 157q-99 39 -206 39q-30 0 -61 -3q-140 -15 -257.5 -99t-136.5 -219l-84 -608q-4 -25 -4 -48q0 -148 152 -226q101 -51 222 -51 q68 0 142 16q215 47 299 200q27 51 35 109l25 180h-445l17 121h565l-41 -301q-35 -244 -270 -367q-154 -82 -324 -82q-61 0 -125 11q-236 37 -330 198q-42 79 -42 176q0 31 4 64z" />
<glyph unicode="H" horiz-adv-x="1409" d="M160 0l202 1450h121l-94 -666h846l94 666h121l-203 -1450h-121l93 664h-846l-92 -664h-121z" />
<glyph unicode="I" horiz-adv-x="475" d="M164 0l203 1450h120l-202 -1450h-121z" />
<glyph unicode="J" horiz-adv-x="1185" d="M43 332l123 22q4 -76 47 -134t109.5 -87t146.5 -40q29 -4 58 -4q52 0 104 13q82 19 150.5 56t117.5 104.5t62 151.5l129 915h-484l17 121h604l-146 -1036q-23 -156 -135 -267.5t-258 -145.5q-101 -23 -201 -23q-45 0 -91 4q-144 16 -245.5 110t-107.5 240z" />
<glyph unicode="K" horiz-adv-x="1245" d="M162 0l203 1450h120l-112 -797l923 797h156l-797 -698l590 -752h-155l-533 666l-207 -183l-67 -483h-121z" />
<glyph unicode="L" horiz-adv-x="1021" d="M164 0l203 1450h120l-186 -1329h725l-16 -121h-846z" />
<glyph unicode="M" horiz-adv-x="1632" d="M156 0l202 1450h177l331 -1096l637 1096h176l-202 -1450h-121l178 1282l-633 -1083h-115l-331 1083l-179 -1282h-120z" />
<glyph unicode="N" horiz-adv-x="1411" d="M162 0l203 1450h147l635 -1317l184 1317h121l-203 -1450h-180l-610 1264l-176 -1264h-121z" />
<glyph unicode="O" horiz-adv-x="1396" d="M180 410l88 632q35 240 279 363q163 84 345 84q63 0 128 -10q252 -35 352 -197q49 -81 49 -181q0 -29 -4 -59l-88 -632q-35 -240 -278 -363q-163 -84 -345 -84q-63 0 -128 10q-252 35 -353 197q-49 79 -49 180q0 29 4 60zM301 410q-3 -23 -3 -45q0 -150 161 -230 q108 -53 239 -53q72 0 150 16q229 45 319 197q33 55 41 115l88 632q4 25 4 49q0 125 -104 194q-123 83 -311 83q-186 -2 -329.5 -85t-166.5 -241z" />
<glyph unicode="P" horiz-adv-x="1261" d="M164 0l203 1450h546q266 0 373 -188q52 -92 51 -196q0 -78 -28 -163q-70 -203 -258 -299q-117 -61 -263 -61h-428q-53 -371 -75 -543h-121zM377 664h426q221 0 340 163q71 102 71 211q0 38 -8 76q-35 152 -184 199q-57 16 -125 16h-426z" />
<glyph unicode="Q" horiz-adv-x="1398" d="M182 416l86 618q35 240 279 365q161 82 341 82q65 0 132 -11q250 -37 350 -196q49 -81 49 -181q0 -29 -4 -59l-86 -618q-22 -160 -145 -273l80 -125l-109 -59l-72 111q-133 -76 -300 -94q-51 -5 -99 -5q-111 0 -209 28q-141 40 -228 151q-69 88 -69 205q0 30 4 61z M303 416q-3 -21 -3 -41q0 -89 58 -155q70 -81 182 -110q77 -19 163 -19q41 0 85 5q134 13 236 70l-100 162l104 65l94 -151q72 74 86 174l86 618q4 26 4 50q0 125 -102 194q-121 82 -309 82q-186 -2 -330.5 -85t-167.5 -241z" />
<glyph unicode="R" horiz-adv-x="1277" d="M162 0l203 1450h546q217 0 335 -104q96 -84 96 -242q0 -36 -5 -76q-31 -213 -179 -313.5t-361 -100.5h-4l399 -614h-145l-402 614h-276q-74 -516 -86 -614h-121zM383 725h428q178 0 280.5 69.5t125.5 233.5q5 34 5 64q0 114 -68 170q-82 68 -239 67h-18h-428z" />
<glyph unicode="S" horiz-adv-x="1218" d="M125 256l115 49h2q25 -84 110 -139q86 -54 194 -66q39 -4 78 -4l140 12q108 20 191 88t106 169q9 39 9 72q0 45 -16 81q-26 62 -84.5 92.5t-138 55t-164.5 39t-165 43t-140 66.5q-58 38 -86 112q-17 44 -17 99q0 36 7 77q20 113 97 196.5t180.5 126.5t223.5 51q29 2 57 2 q88 0 170 -20q106 -26 189 -92t111 -160l-114 -49q-25 82 -109 137q-83 54 -189 64q-36 3 -72 3q-70 -1 -138 -13q-104 -20 -185.5 -86t-101.5 -164q-6 -29 -6 -55q1 -55 27 -95q38 -58 116 -84t174.5 -44.5t191.5 -44t170 -67.5q74 -42 110 -130q21 -53 22 -121 q0 -45 -10 -97q-27 -137 -133.5 -233t-244.5 -127q-103 -23 -208 -23q-36 1 -72 3q-142 10 -252 84.5t-145 191.5z" />
<glyph unicode="T" horiz-adv-x="1128" d="M207 1331l16 121h1088l-17 -121h-483l-186 -1331h-121l186 1331h-483z" />
<glyph unicode="U" horiz-adv-x="1400" d="M215 424l143 1026h121l-143 -1026q-4 -28 -4 -54q0 -167 173 -240q100 -42 205.5 -42.5t217.5 42.5q223 85 254 294l143 1026h121l-143 -1026q-35 -246 -273 -371q-154 -82 -322 -82q-61 0 -124 11q-236 37 -328 198q-46 78 -46 177q0 32 5 67z" />
<glyph unicode="V" horiz-adv-x="1243" d="M209 1452h127l295 -1360l672 1360h127l-723 -1450h-179z" />
<glyph unicode="W" horiz-adv-x="1892" d="M211 1450h127l190 -1360l533 1170h117l204 -1170l572 1360h127l-623 -1450h-176l-188 1069l-490 -1069h-176z" />
<glyph unicode="X" horiz-adv-x="1206" d="M27 0l598 723l-392 727h142l336 -621l510 621h143l-596 -727l395 -723h-145l-334 629l-512 -629h-145z" />
<glyph unicode="Y" horiz-adv-x="1171" d="M223 1450h142l317 -762l528 762h144l-631 -883l-78 -567h-121l78 567z" />
<glyph unicode="Z" horiz-adv-x="1153" d="M55 92l1078 1237h-867l17 121h995l31 -92l-1078 -1237h883l-16 -121h-1018z" />
<glyph unicode="[" horiz-adv-x="524" d="M113 -272l256 1818h307l-17 -104h-184l-225 -1610h184l-14 -104h-307z" />
<glyph unicode="\" horiz-adv-x="757" d="M219 1487l113 37l403 -1561l-117 -37z" />
<glyph unicode="]" horiz-adv-x="520" d="M16 -270l15 98h184l227 1622h-184l14 98h308l-256 -1818h-308z" />
<glyph unicode="^" horiz-adv-x="1239" d="M274 870l492 580h94l342 -580h-143l-262 463l-381 -463h-142z" />
<glyph unicode="_" horiz-adv-x="1024" d="M-25 -178l17 115h1022l-17 -115h-1022z" />
<glyph unicode="`" horiz-adv-x="430" d="M213 1450h164l129 -266h-119z" />
<glyph unicode="a" horiz-adv-x="1026" d="M133 328q37 262 55 395q20 152 123 239t236 103q60 7 119 7q73 0 145 -10q131 -20 225 -69l-137 -993h-102l-2 106q-72 -70 -192 -100q-75 -19 -148 -18q-43 0 -85 6q-112 18 -184 105q-57 68 -57 170q0 28 4 59zM250 328q-3 -22 -3 -42q0 -108 91 -154q69 -35 152 -34 q46 0 98 10q142 30 221 109l98 694q-63 33 -157 45q-43 5 -88 5q-51 1 -102 -7q-95 -14 -169 -72.5t-86 -156.5q-18 -131 -55 -397z" />
<glyph unicode="b" horiz-adv-x="1026" d="M127 45q31 223 98.5 704.5t98.5 704.5h114l-61 -438q150 63 299 63h7q157 0 263 -91q89 -77 88 -199q0 -26 -4 -54q-10 -66 -29.5 -209t-29.5 -209q-23 -162 -152 -251t-293 -93q-201 0 -399 72zM252 125q106 -39 289 -39q115 0 208 60.5t105 166.5v4q8 66 28.5 209.5 t30.5 208.5v2q3 19 3 37q0 82 -62 130q-74 58 -192 61q-157 -1 -300 -60q-18 -125 -56 -391t-54 -389z" />
<glyph unicode="c" horiz-adv-x="917" d="M143 328q10 63 30 202.5t28 204.5q23 164 155.5 254t294.5 90q115 0 206 -47t130 -135l-104 -61q-25 63 -92.5 96t-155.5 33q-117 0 -210 -58.5t-110 -167.5v-4q-8 -66 -27.5 -204t-29.5 -203v-4q-3 -19 -3 -36q-1 -84 63 -132q76 -58 194 -58q98 0 183 42t118 122 l98 -51q-55 -111 -169.5 -169t-245.5 -58q-162 0 -268 90q-88 75 -89 200q0 26 4 54z" />
<glyph unicode="d" horiz-adv-x="1046" d="M160 317q8 66 28.5 209.5t30.5 208.5q23 160 157 253q131 91 289 91h7q147 0 278 -63l62 438h114q-31 -223 -98 -704.5t-98 -704.5q-219 -72 -420 -72q-162 3 -268 93q-87 73 -86 196q0 26 4 55zM276 313q-3 -19 -3 -36q0 -81 62 -131q75 -60 189 -60q184 0 301 39 q16 125 54.5 390t56.5 390q-131 59 -283 60q-119 -2 -211 -60.5t-106 -167.5v-2q-8 -66 -28.5 -209t-31.5 -209v-4z" />
<glyph unicode="e" horiz-adv-x="1009" d="M152 326q10 66 28.5 199.5t26.5 199.5q29 207 225 303q111 56 226 56q63 0 126 -17q174 -45 222 -193q12 -40 11 -87q0 -26 -3 -54q-18 -129 -100 -213t-192 -112q-82 -21 -170 -20q-28 0 -58 2q-118 9 -211 56q-2 -18 -8.5 -60t-8.5 -60q-3 -19 -3 -37q0 -87 65 -135 q78 -58 194 -58q90 0 170 36t121 106l94 -52q-59 -98 -169.5 -151t-231.5 -53q-164 0 -270 90q-88 74 -88 198q0 27 4 56zM297 553q74 -31 164 -45q60 -9 122 -9q31 0 63 2q95 7 166 65.5t87 166.5q3 22 3 42q0 119 -116 175q-66 31 -137 31q-64 0 -133 -25 q-154 -55 -188 -198l-6 -31z" />
<glyph unicode="f" horiz-adv-x="536" d="M4 -305q84 53 105 194q29 205 86 613.5t86 613.5q25 166 137 254t270 90l-16 -114q-109 0 -185.5 -60.5t-91.5 -169.5l-33 -237h230l-17 -115h-229q-20 -145 -61 -437t-62 -438q-27 -184 -166 -274z" />
<glyph unicode="g" horiz-adv-x="1026" d="M123 -246l88 72q51 -82 182 -102q32 -4 63 -4q98 0 190 46q122 60 138 185l15 98q-135 -63 -293 -63h-7q-157 0 -261 90q-88 76 -88 197q0 27 4 55q10 72 29.5 215t27.5 198q23 160 152 249t288 91q125 0 285 -47q55 -16 108 -35l-147 -1046q-18 -137 -119.5 -223 t-225.5 -104q-44 -7 -88 -7q-79 0 -158 21q-122 34 -183 114zM268 324q-3 -18 -3 -35q0 -79 61 -128q75 -59 190 -63q154 5 297 60q18 121 54 374.5t53 374.5q-137 61 -285 62q-115 0 -205 -59.5t-102 -166.5l-2 -2q-8 -55 -27.5 -198.5t-30.5 -214.5v-4z" />
<glyph unicode="h" horiz-adv-x="1073" d="M141 0l203 1450h115l-64 -453q145 63 295 64h13q153 0 257 -89q89 -77 88 -199q0 -26 -4 -54l-100 -719h-115l101 719v2q2 17 2 32q0 83 -64 133q-76 58 -192 60q-147 0 -297 -57l-123 -889h-115z" />
<glyph unicode="i" horiz-adv-x="440" d="M164 0h115q33 236 73.5 530.5t73.5 530.5h-115zM309 1321q6 39 36 65.5t69 26.5q38 -1 62 -27q19 -21 19 -50q0 -7 -1 -15q-4 -39 -35 -65.5t-70 -26.5q-39 1 -61 27q-19 22 -20 54q0 5 1 11z" />
<glyph unicode="j" horiz-adv-x="448" d="M-117 -393q156 0 263.5 94t127.5 254l156 1106h-115l-155 -1106q-16 -109 -86 -171.5t-176 -62.5zM317 1321q6 39 36 65.5t69 26.5t62 -27q19 -21 19 -50q0 -7 -1 -15q-4 -39 -35 -65.5t-70 -26.5t-61 27q-20 22 -20 54q0 5 1 11z" />
<glyph unicode="k" horiz-adv-x="966" d="M139 0l203 1450h115l-133 -946l637 557h143l-543 -479l391 -582h-141l-340 500l-168 -148l-49 -352h-115z" />
<glyph unicode="l" horiz-adv-x="499" d="M193 328l157 1124h115l-158 -1124q-4 -30 -5 -56q0 -166 183 -166l-16 -114q-155 0 -227 88q-55 67 -55 175q0 34 6 73z" />
<glyph unicode="m" horiz-adv-x="1683" d="M143 -4l138 971q174 90 381.5 90t298.5 -144q127 131 329 140h20q154 -1 250 -89q81 -76 81 -201q0 -31 -5 -65l-98 -702h-117l99 698q4 27 4 52q0 86 -56 134q-67 58 -176 58h-14q-96 -2 -182 -52t-99 -138l-106 -752h-113l107 752q2 13 2 25q0 83 -83 129 q-82 45 -186 45q-16 0 -33 -1q-124 -8 -200 -59l-125 -891h-117z" />
<glyph unicode="n" horiz-adv-x="1089" d="M143 0l138 977q256 84 417 84q160 -4 264 -93q86 -73 86 -194q0 -27 -4 -55l-100 -719h-115l101 719q3 19 3 37q-1 83 -63 131q-76 59 -188 59q-145 0 -301 -61l-123 -885h-115z" />
<glyph unicode="o" horiz-adv-x="1046" d="M158 324q10 63 30.5 209.5t28.5 209.5q23 164 155 254t296 93q164 -2 270 -92q88 -75 88 -201q0 -26 -4 -54q-10 -66 -30.5 -211t-28.5 -208q-23 -164 -155 -254t-296 -93q-164 3 -270 93q-88 74 -88 198q0 27 4 56zM272 324q-3 -19 -3 -37q0 -85 65 -135q78 -60 194 -60 q115 0 209 59.5t111 172.5q10 63 30.5 208.5t28.5 210.5q3 19 3 37q0 86 -66 134q-78 58 -193 59q-117 0 -210 -58.5t-109 -171.5q-8 -63 -28.5 -209.5t-31.5 -209.5z" />
<glyph unicode="p" horiz-adv-x="1034" d="M68 -391q25 172 93 659.5t103 739.5q216 71 414 71h6q162 -2 266 -91q86 -73 86 -195q0 -27 -4 -56q-10 -66 -28.5 -206t-28.5 -205q-23 -162 -157 -256q-130 -90 -286 -90h-10q-150 2 -278 65l-62 -436h-114zM258 154q139 -59 283 -60q117 2 210 61.5t107 166.5v4 q10 66 29.5 206t27.5 205v4q3 19 3 36q0 81 -60 129q-74 59 -190 59q-195 0 -301 -35q-16 -125 -54.5 -388t-54.5 -388z" />
<glyph unicode="q" horiz-adv-x="1034" d="M152 326q8 66 28.5 206t28.5 205q23 162 153 251t293 91q201 0 400 -71q-35 -252 -103.5 -739.5t-93.5 -659.5h-115l62 436q-147 -61 -299 -65h-7q-157 0 -263 92q-88 77 -88 200q0 26 4 54zM268 322q-3 -19 -3 -36q0 -80 63 -130q75 -60 192 -62q147 1 299 60 q16 125 53 388t56 388q-94 35 -289 35q-115 0 -207 -58.5t-106 -165.5v-4q-8 -66 -29 -206t-29 -205v-4z" />
<glyph unicode="r" horiz-adv-x="628" d="M127 0l100 727q18 133 114.5 220t229.5 114q40 8 89 9q35 0 75 -5l-16 -115q-32 7 -66 7q-39 0 -82 -9q-90 -20 -153.5 -76.5t-75.5 -144.5l-100 -727h-115z" />
<glyph unicode="s" horiz-adv-x="874" d="M74 207l94 55q100 -166 286 -166h13q100 2 175 47t87 140q3 17 3 32q0 31 -11 56q-16 37 -53 58.5t-71 31.5t-83 20q-59 10 -102 21.5t-93.5 35t-80.5 53.5q-28 30 -44 78q-10 32 -11 70q0 20 3 41q20 147 145.5 221t272.5 74q184 0 283 -106l-86 -86q-68 82 -211 82 q-102 0 -189.5 -43t-101.5 -142q-2 -11 -2 -21q1 -27 13 -51q16 -32 36.5 -49.5t66.5 -34t65.5 -20.5t70.5 -14q145 -30 229 -98q69 -56 70 -161q0 -23 -4 -48q-20 -143 -132 -217t-259 -78h-14q-257 0 -365 219z" />
<glyph unicode="t" horiz-adv-x="563" d="M182 334q25 176 79 558t79 558h115l-56 -389h230l-17 -115h-229l-86 -612q-3 -22 -3 -42q0 -84 54 -142q52 -56 132 -57q22 0 46 5l-14 -102q-31 -5 -60 -5q-119 1 -196 77q-78 77 -78 205q0 29 4 61z" />
<glyph unicode="u" horiz-adv-x="1058" d="M176 324l103 739h114l-102 -739l-2 -5q-2 -17 -2 -32q1 -83 63 -133q74 -58 187 -60q139 0 301 64l127 905h114l-139 -1000q-88 -25 -121 -34q-170 -47 -299 -47q-160 2 -263 91q-85 73 -85 196q0 26 4 55z" />
<glyph unicode="v" horiz-adv-x="956" d="M172 1061h121l203 -957l467 957h120l-520 -1061h-166z" />
<glyph unicode="w" horiz-adv-x="1458" d="M172 1061h121l149 -942l361 942h145l99 -942l411 942h121l-467 -1061h-164l-92 907l-348 -907h-164z" />
<glyph unicode="x" horiz-adv-x="923" d="M25 0l438 530l-291 531h139l234 -449l354 449h139l-438 -531l291 -530h-139l-232 446l-356 -446h-139z" />
<glyph unicode="y" horiz-adv-x="1062" d="M131 -248l94 76q39 -61 133 -89q64 -19 130 -19q30 0 60 4q97 12 177 74.5t94 160.5l12 94q-113 -66 -305 -69h-7q-163 0 -269 94q-90 79 -90 205q0 26 4 55l100 723h119l-100 -723l-2 -4q-3 -19 -3 -36q0 -85 66 -134q78 -60 197 -62q156 0 307 62l125 897h117 l-154 -1102q-20 -143 -124.5 -233.5t-231.5 -109.5q-45 -7 -90 -7q-82 0 -165 23q-128 34 -194 120z" />
<glyph unicode="z" horiz-adv-x="897" d="M39 82l790 868l-630 -6l16 117h719l57 -84l-784 -864l659 4l-16 -117h-750z" />
<glyph unicode="{" horiz-adv-x="587" d="M184 590l15 98q141 0 186 316l43 296q16 115 72.5 181.5t142.5 66.5h102l-14 -98h-76q-57 0 -75.5 -35t-30.5 -127l-47 -327q-12 -98 -47 -174t-62.5 -107t-48.5 -39v-4q18 -10 35.5 -42t34 -103.5t-1.5 -174.5l-47 -335q-12 -82 1 -118t72 -36h66l-15 -98h-102 q-86 0 -124 66.5t-21 180.5l41 299q45 313 -99 314z" />
<glyph unicode="|" horiz-adv-x="454" d="M125 -365l268 1909h115l-268 -1909h-115z" />
<glyph unicode="}" horiz-adv-x="563" d="M8 -270l15 98h65q59 0 80.5 35t34.5 119l47 335q12 96 47 173t62.5 107t48.5 40v4q-16 8 -35 40t-34 103.5t1 176.5l47 327q16 76 6 119t-67 43h-76l14 98h103q86 0 123.5 -65.5t21.5 -182.5l-43 -296q-45 -315 100 -316l-14 -98q-143 0 -188 -314l-41 -299 q-16 -115 -72.5 -181t-142.5 -66h-103z" />
<glyph unicode="~" horiz-adv-x="1112" d="M225 561q123 184 283 184q84 0 180 -69.5t141 -69.5q90 0 201 139l57 -61q-115 -188 -280 -188q-72 0 -169 70.5t-152.5 70.5t-100.5 -35t-98 -100z" />
<glyph unicode="&#xa1;" horiz-adv-x="569" d="M152 -455l151 1069h123l-152 -1069h-122zM307 909q6 41 39 70t74 29t65.5 -29t18.5 -70t-39 -69.5t-74 -28.5t-65.5 28.5t-18.5 69.5z" />
<glyph unicode="&#xa2;" horiz-adv-x="942" d="M150 338q35 242 53 389q23 150 133 238t260 102l27 190h94l-27 -188q102 -6 182 -52t115 -128l-104 -62q-41 113 -209 127l-119 -843q88 6 159.5 48t104.5 113l96 -51q-51 -102 -153.5 -159.5t-222.5 -65.5l-27 -189h-94l26 189q-143 16 -230 105t-64 237zM262 334 q-14 -94 43 -151.5t156 -69.5l119 839q-102 -14 -175 -70.5t-86 -150.5l-2 -4q-18 -147 -53 -389z" />
<glyph unicode="&#xa3;" horiz-adv-x="991" d="M66 0l14 104h213l84 603h-213l14 98h213l35 246q10 74 41 144.5t84 136t143 104.5t203 39q150 0 262 -113l-92 -78q-68 80 -193 80q-141 0 -228 -94t-101 -205l-37 -260h338l-15 -98h-337l-84 -603h501l-14 -104h-831z" />
<glyph unicode="&#xa4;" horiz-adv-x="1148" d="M117 291l133 112q-102 131 -78 322q29 190 168 322l-100 112l79 76l101 -115q156 109 334 109q176 0 301 -109l133 115l59 -76l-133 -112q104 -135 78 -322q-25 -188 -168 -322l100 -112l-80 -76l-100 115q-156 -109 -332 -109q-178 0 -303 109l-133 -115zM283 723 q-23 -166 77.5 -281.5t262.5 -115.5q164 0 297 115.5t155 281.5q25 168 -75.5 285.5t-264.5 117.5q-162 0 -294.5 -117.5t-157.5 -285.5z" />
<glyph unicode="&#xa5;" horiz-adv-x="1077" d="M170 1452h141l316 -778l530 778h143l-583 -819h307l-33 -90h-323l-17 -109h346l-32 -90h-326l-47 -342h-121l47 342h-344l31 90h325l17 109h-338l33 90h280z" />
<glyph unicode="&#xa6;" horiz-adv-x="436" d="M117 -295l100 717h119l-100 -717h-119zM262 729l100 717h119l-100 -717h-119z" />
<glyph unicode="&#xa7;" horiz-adv-x="1015" d="M90 -49l117 51q18 -88 90 -134t166 -46q100 0 188 56t101 149q10 76 -46.5 132t-142.5 95t-171 84t-138 122t-39 181q25 172 256 264q-154 102 -133 260q23 150 148.5 236t279.5 86q111 0 193.5 -47t105.5 -146l-117 -59q-18 68 -73.5 102.5t-131.5 34.5q-98 0 -183 -56 t-99 -151q-10 -72 44 -126t138 -93t166 -83t134 -118.5t38 -175.5q-25 -170 -221 -270q139 -90 119 -252q-23 -158 -149 -250t-281 -92q-135 0 -232.5 61.5t-126.5 184.5zM344 645q-10 -74 19.5 -114.5t97.5 -77.5l201 -105q72 35 132 92.5t68 118.5q16 111 -137 203 l-143 88q-217 -70 -238 -205z" />
<glyph unicode="&#xa8;" horiz-adv-x="575" d="M211 1351.5q4 34.5 32.5 59.5t63.5 25t55.5 -25t16.5 -59.5t-33 -59t-63.5 -24.5t-55 24.5t-16.5 59zM579.5 1351.5q4.5 34.5 33 59.5t63.5 25t55.5 -25t16 -59.5t-33 -59t-63.5 -24.5t-55.5 24.5t-16 59z" />
<glyph unicode="&#xa9;" horiz-adv-x="1626" d="M162 725q45 315 300 538.5t570.5 223.5t507 -223.5t146 -538.5t-299 -538.5t-569 -223.5t-508 223.5t-147.5 538.5zM283 725q-37 -266 123.5 -453.5t427 -187.5t480.5 187.5t251 453.5q39 266 -123 453.5t-428 187.5t-479 -187.5t-252 -453.5zM502 571 q-23 -164 83.5 -254t268.5 -90q131 0 245.5 58.5t170.5 169.5l-99 51q-35 -80 -118.5 -122t-182.5 -42q-117 0 -193.5 58.5t-62.5 166.5l2 4q8 63 20.5 154.5t22.5 155.5v4q16 109 109.5 167t210.5 58q88 0 155.5 -33t92.5 -96l104 61q-39 88 -130 135.5t-206 47.5 q-162 0 -295 -90.5t-155 -253.5q-10 -66 -22.5 -155t-20.5 -155z" />
<glyph unicode="&#xaa;" horiz-adv-x="677" d="M180 981q35 221 318 221q81 1 151 -28l10 75q8 57 -36.5 87t-114.5 30q-121 0 -189 -70l-59 68q113 111 272 111q113 0 184.5 -59.5t55.5 -170.5l-65 -471q-150 -47 -306 -43q-111 2 -174 69.5t-47 180.5zM293 981q-10 -68 26.5 -107.5t100.5 -42.5q102 1 184 17l33 233 q-76 27 -156 27q-168 0 -188 -127z" />
<glyph unicode="&#xab;" horiz-adv-x="854" d="M156 604l338 416l90 -59l-293 -357l194 -356l-108 -60zM453 604l338 416l90 -59l-293 -357l194 -356l-108 -60z" />
<glyph unicode="&#xac;" horiz-adv-x="1161" d="M186 705l17 112h977l-68 -469h-113l52 357h-865z" />
<glyph unicode="&#xad;" horiz-adv-x="681" d="M147 436l19 119h506l-19 -119h-506z" />
<glyph unicode="&#xae;" horiz-adv-x="1607" d="M147.5 725q45.5 315 300 538.5t570 223.5t507 -223.5t146.5 -538.5t-299 -538.5t-569.5 -223.5t-508 223.5t-147 538.5zM264 725q-37 -268 126 -456.5t429 -188.5q268 0 483.5 189.5t251.5 455.5q39 266 -122.5 455.5t-430.5 189.5q-266 0 -482 -188.5t-255 -456.5z M571 289l125 878h314q147 0 213.5 -67.5t50.5 -188.5q-16 -115 -88 -182t-170 -84l211 -356h-125l-211 356h-160l-51 -356h-109zM745 743h144q250 0 274 168q12 78 -41 118t-133 40h-198z" />
<glyph unicode="&#xaf;" d="M158 1311l18 119h541l-19 -119h-540z" />
<glyph unicode="&#xb0;" horiz-adv-x="714" d="M248 1196q14 113 105 192.5t206 79.5t183.5 -79.5t54.5 -192.5q-16 -115 -108.5 -195.5t-205.5 -80.5q-115 0 -183.5 80.5t-51.5 195.5zM348 1194q-10 -72 35 -122t115 -50q72 0 129 51t65 121q10 70 -33 121t-114 51q-70 0 -128.5 -50t-68.5 -122z" />
<glyph unicode="&#xb1;" horiz-adv-x="1161" d="M168 195l16 112h881l-16 -112h-881zM242 776l16 117h385l51 367h117l-51 -367h395l-16 -117h-396l-53 -368h-117l54 368h-385z" />
<glyph unicode="&#xb2;" horiz-adv-x="692" d="M123 657l481 404q53 41 83 95t15 106q-12 43 -51 69q-102 61 -239 10q-70 -27 -105 -86l-92 41q55 100 178 146q190 66 330 -27q66 -43 84 -119q20 -78 -21.5 -163t-117.5 -146l-357 -301h426l-16 -104h-580z" />
<glyph unicode="&#xb3;" horiz-adv-x="706" d="M150 768l98 45l6 -16q16 -47 68.5 -76t111.5 -33q125 -8 207 76q33 35 39 86q10 70 -18 113q-49 51 -144 47h-65l10 82h65q68 0 127 51q35 27 43 84q6 49 -20 84q-49 66 -162 53.5t-166 -88.5l-10 -16l-80 47q78 145 283 155q63 2 125 -18q63 -27 92 -64q49 -61 37 -153 q-17 -117 -119 -168q127 -49 106 -209v-2q-20 -98 -88 -164q-106 -104 -282 -96q-88 4 -161 47t-97 117z" />
<glyph unicode="&#xb4;" horiz-adv-x="436" d="M248 1184l203 266h163l-247 -266h-119z" />
<glyph unicode="&#xb5;" horiz-adv-x="1028" d="M49 -467l213 1516h123l-92 -660q-41 -303 194 -303q143 0 250 100.5t133 286.5l80 576h123l-139 -1049h-119q12 139 12 147h-6q-49 -80 -141 -126t-207 -46q-154 0 -223 117l-80 -559h-121z" />
<glyph unicode="&#xb6;" horiz-adv-x="1128" d="M201 1087q72 203 266 302q123 61 274 61h465l-239 -1708h-119l225 1610h-256l-225 -1610h-123l113 803q-258 0 -361 186q-88 160 -20 356z" />
<glyph unicode="&#xb7;" horiz-adv-x="532" d="M258 651q6 41 39 70t74 29t65.5 -29t18.5 -70t-39 -69.5t-74 -28.5t-65.5 28.5t-18.5 69.5z" />
<glyph unicode="&#xb8;" d="M14 -365l35 68q55 -31 129 -31q41 0 79 19.5t44 58.5q8 55 -60.5 68.5t-111.5 -11.5l-23 27l132 166h65l-90 -115l2 -4q72 31 129 -11t43 -120q-12 -78 -74.5 -115.5t-140.5 -37.5q-80 0 -158 38z" />
<glyph unicode="&#xb9;" horiz-adv-x="577" d="M266 1223l242 237h98l-123 -868h-102l100 708l-145 -139z" />
<glyph unicode="&#xba;" horiz-adv-x="745" d="M188 973l35 237q16 121 118.5 188.5t229.5 67.5q125 0 210 -67.5t69 -188.5l-35 -237q-16 -121 -119.5 -188.5t-228.5 -67.5q-127 0 -211 67.5t-68 188.5zM293 973q-10 -78 47 -116t141 -38t150.5 37t79.5 117l34 237q10 80 -47 117t-141 37t-151.5 -38t-77.5 -116z" />
<glyph unicode="&#xbb;" horiz-adv-x="829" d="M125 248l293 356l-195 357l107 59l223 -416l-340 -416zM422 248l293 356l-195 357l107 59l223 -416l-340 -416z" />
<glyph unicode="&#xbc;" horiz-adv-x="1482" d="M199 -12l1149 1532l86 -58l-1151 -1532zM231 1223l70 -62l145 139l-100 -708h103l122 868h-98zM817 309l53 -98h396l-29 -209h104l29 209h70l14 96h-70l78 565h-108zM942 307l406 434l-68 -434h-338z" />
<glyph unicode="&#xbd;" horiz-adv-x="1585" d="M170 -12l1149 1532l86 -58l-1151 -1532zM244 1223l69 -62l146 139l-101 -708h103l123 868h-99zM907 70l21 -76h579l15 104h-426l358 301q76 61 118 146.5t21 163.5q-18 74 -86 118q-139 92 -327 27q-121 -43 -179 -145l91 -41q39 59 104 86q137 51 242 -11q41 -29 51 -69 q27 -96 -98 -201z" />
<glyph unicode="&#xbe;" horiz-adv-x="1556" d="M141 768l6 -16q25 -74 97.5 -117t161.5 -47q129 -4 241.5 65.5t128.5 196.5q21 160 -106 209q102 51 118 168q12 92 -36 153q-29 37 -93 64q-61 20 -124 18q-205 -10 -283 -155l80 -47l10 16q53 76 166 88t162 -53q27 -35 20 -84q-8 -57 -43 -84q-59 -51 -127 -51h-65 l-11 -82h66q94 4 143 -47q29 -43 19 -113q-12 -82 -89 -125t-157 -37q-59 4 -111.5 33t-68.5 76l-6 16zM338 -12l1149 1532l86 -58l-1151 -1532zM889 309l53 -98h395l-28 -209h104l29 209h69l15 96h-70l78 565h-109zM1014 307l405 434l-67 -434h-338z" />
<glyph unicode="&#xbf;" horiz-adv-x="978" d="M59 -4q-18 -133 34 -230.5t149.5 -139.5t213 -47t233.5 42t200 135l-80 72h-2q-74 -80 -189.5 -112.5t-218 -14.5t-170 95t-53.5 198q18 156 161.5 250t319.5 96l48 442h-101l-63 -346q-186 -33 -319.5 -140.5t-162.5 -299.5zM590 991q4 39 34.5 66.5t69.5 27.5 q41 0 64.5 -27.5t19.5 -66.5q-6 -41 -38.5 -68.5t-71.5 -27.5t-61.5 28.5t-16.5 67.5z" />
<glyph unicode="&#xc0;" horiz-adv-x="1267" d="M20 0h127l238 483h623l106 -483h127l-321 1450h-177zM444 604l375 756l162 -756h-537zM629 1802h164l129 -266h-119z" />
<glyph unicode="&#xc1;" horiz-adv-x="1267" d="M20 0l723 1450h177l321 -1450h-127l-106 483h-623l-238 -483h-127zM444 604h537l-162 756zM778 1528l205 266h164l-250 -266h-119z" />
<glyph unicode="&#xc2;" horiz-adv-x="1267" d="M20 0h127l238 483h623l106 -483h127l-321 1450h-177zM444 604l375 756l162 -756h-537zM551 1503l254 244h143l189 -244h-136l-139 168l-174 -168h-137z" />
<glyph unicode="&#xc3;" horiz-adv-x="1267" d="M20 0h127l238 483h623l106 -483h127l-321 1450h-177zM444 604l375 756l162 -756h-537zM604 1567q33 94 119 123.5t162 -19.5q33 -27 83 -24.5t79 49.5l69 -29q-31 -92 -114.5 -116.5t-151.5 18.5q-131 75 -180 -27z" />
<glyph unicode="&#xc4;" horiz-adv-x="1267" d="M20 0h127l238 483h623l106 -483h127l-321 1450h-177zM444 604l375 756l162 -756h-537zM590 1616q4 35 32.5 59.5t63.5 24.5t55.5 -24.5t16.5 -59.5t-33 -59.5t-63.5 -24.5t-55 24.5t-16.5 59.5zM958.5 1616q4.5 35 33 59.5t63.5 24.5t55 -24.5t16 -59.5t-32.5 -59.5 t-63.5 -24.5t-55.5 24.5t-16 59.5z" />
<glyph unicode="&#xc5;" horiz-adv-x="1267" d="M20 0h127l238 483h623l106 -483h127l-321 1450h-177zM444 604l375 756l162 -756h-537zM680 1694q10 80 74.5 137t144.5 57q78 0 125 -59.5t37 -136.5q-10 -76 -74.5 -134.5t-142.5 -58.5q-80 0 -127 57.5t-37 137.5zM770 1692q-6 -43 19.5 -73t66.5 -30q43 0 76 31t39 74 t-18.5 73.5t-67.5 30.5t-76 -31.5t-39 -74.5z" />
<glyph unicode="&#xc6;" horiz-adv-x="1669" d="M18 0l943 1450h821l-17 -121h-618l-78 -545h555l-16 -120h-555l-76 -543h618l-16 -121h-739l67 483h-440l-307 -483h-142zM545 604h379l104 750z" />
<glyph unicode="&#xc7;" horiz-adv-x="1179" d="M158 426l84 598q20 145 123.5 252.5t243 148.5t281.5 38t258 -72.5t157 -186.5l-117 -53v-2q-37 106 -165 156.5t-267.5 36t-257 -98.5t-136.5 -219l-83 -598q-14 -109 43 -186.5t158.5 -106.5t213 -25.5t216 55.5t159.5 138l102 -53q-82 -127 -231 -195.5t-313 -66.5 l-66 -80l4 -4q70 31 129.5 -15.5t44.5 -119.5q-12 -78 -76.5 -118t-142.5 -40q-74 0 -155 43l38 72q53 -31 123 -31q106 0 115 74q8 55 -58.5 68t-109.5 -11l-22 26l104 140q-195 18 -310.5 132t-86.5 304z" />
<glyph unicode="&#xc8;" horiz-adv-x="1171" d="M162 0l203 1452h909l-17 -121h-788l-78 -545h727l-16 -122h-727l-76 -543h788l-16 -121h-909zM645 1798h164l129 -266h-119z" />
<glyph unicode="&#xc9;" horiz-adv-x="1171" d="M162 0l203 1452h909l-17 -121h-788l-78 -545h727l-16 -122h-727l-76 -543h788l-16 -121h-909zM758 1528l205 266h163l-249 -266h-119z" />
<glyph unicode="&#xca;" horiz-adv-x="1171" d="M162 0l203 1452h909l-17 -121h-788l-78 -545h727l-16 -122h-727l-76 -543h788l-16 -121h-909zM549 1528l256 244h143l187 -244h-136l-137 168l-176 -168h-137z" />
<glyph unicode="&#xcb;" horiz-adv-x="1171" d="M162 0l203 1452h909l-17 -121h-788l-78 -545h727l-16 -122h-727l-76 -543h788l-16 -121h-909zM598 1626q4 35 32.5 59.5t63.5 24.5t55.5 -24.5t16.5 -59.5t-32.5 -59.5t-63.5 -24.5t-55.5 24.5t-16.5 59.5zM967 1626q4 35 32.5 59.5t63.5 24.5t55.5 -24.5t16 -59.5 t-33 -59.5t-63 -24.5t-55 24.5t-16.5 59.5z" />
<glyph unicode="&#xcc;" horiz-adv-x="475" d="M164 0l203 1450h120l-202 -1450h-121zM217 1808h164l127 -266h-119z" />
<glyph unicode="&#xcd;" horiz-adv-x="475" d="M164 0l203 1450h120l-202 -1450h-121zM379 1538l203 266h163l-247 -266h-119z" />
<glyph unicode="&#xce;" horiz-adv-x="475" d="M152 1524l254 237h143l188 -237h-135l-139 162l-174 -162h-137zM164 0l203 1450h120l-202 -1450h-121z" />
<glyph unicode="&#xcf;" horiz-adv-x="475" d="M164 0l203 1450h120l-202 -1450h-121zM186 1620q4 35 32 59.5t62.5 24.5t56 -24.5t17.5 -59.5q-6 -35 -33.5 -59.5t-62.5 -24.5t-56.5 24.5t-15.5 59.5zM555 1620q4 35 31.5 59.5t62.5 24.5t56.5 -24.5t17.5 -59.5q-6 -35 -33.5 -59.5t-62.5 -24.5t-56.5 24.5t-15.5 59.5 z" />
<glyph unicode="&#xd0;" horiz-adv-x="1255" d="M111 662l14 108h129l96 680h484q143 0 255.5 -42t180 -140.5t47.5 -241.5l-86 -604q-20 -141 -113.5 -239.5t-218.5 -140.5t-268 -42h-484l93 662h-129zM285 121h362q176 0 309.5 75.5t153.5 225.5l86 604q20 152 -91.5 227.5t-287.5 75.5h-362l-80 -559h256l-15 -108 h-256z" />
<glyph unicode="&#xd1;" horiz-adv-x="1411" d="M162 0l203 1450h147l635 -1317l184 1317h121l-203 -1450h-180l-610 1264l-176 -1264h-121zM696 1561q31 94 118 123.5t163 -19.5q33 -27 83 -25t77 50l69 -29q-31 -92 -114.5 -116.5t-149.5 18.5q-133 73 -180 -27z" />
<glyph unicode="&#xd2;" horiz-adv-x="1396" d="M180 410l88 632q35 240 279 363q219 113 473 74q252 -35 352 -197q63 -104 45 -240l-88 -632q-35 -240 -278 -363q-219 -113 -473 -74q-252 35 -353 197q-63 102 -45 240zM301 410q-27 -184 158 -275q168 -82 389 -37q229 45 319 197q33 55 41 115l88 632 q23 160 -100 243t-311 83q-186 -2 -329.5 -85t-166.5 -241zM700 1810h164l127 -266h-119z" />
<glyph unicode="&#xd3;" horiz-adv-x="1396" d="M180 410l88 632q35 240 279 363q219 113 473 74q252 -35 352 -197q63 -104 45 -240l-88 -632q-35 -240 -278 -363q-219 -113 -473 -74q-252 35 -353 197q-63 102 -45 240zM301 410q-27 -184 158 -275q168 -82 389 -37q229 45 319 197q33 55 41 115l88 632 q23 160 -100 243t-311 83q-186 -2 -329.5 -85t-166.5 -241zM860 1546l203 266h164l-248 -266h-119z" />
<glyph unicode="&#xd4;" horiz-adv-x="1396" d="M180 410l88 632q35 240 279 363q219 113 473 74q252 -35 352 -197q63 -104 45 -240l-88 -632q-35 -240 -278 -363q-219 -113 -473 -74q-252 35 -353 197q-63 102 -45 240zM301 410q-27 -184 158 -275q168 -82 389 -37q229 45 319 197q33 55 41 115l88 632 q23 160 -100 243t-311 83q-186 -2 -329.5 -85t-166.5 -241zM623 1538l256 244h143l186 -244h-135l-137 168l-176 -168h-137z" />
<glyph unicode="&#xd5;" horiz-adv-x="1396" d="M180 410l88 632q35 240 279 363q219 113 473 74q252 -35 352 -197q63 -104 45 -240l-88 -632q-35 -240 -278 -363q-219 -113 -473 -74q-252 35 -353 197q-63 102 -45 240zM301 410q-27 -184 158 -275q168 -82 389 -37q229 45 319 197q33 55 41 115l88 632 q23 160 -100 243t-311 83q-186 -2 -329.5 -85t-166.5 -241zM666 1579q33 94 118.5 124t161.5 -20q33 -27 83 -24.5t79 49.5l70 -29q-31 -92 -115 -116.5t-152 18.5q-133 73 -180 -27z" />
<glyph unicode="&#xd6;" horiz-adv-x="1396" d="M180 410l88 632q35 240 279 363q219 113 473 74q252 -35 352 -197q63 -104 45 -240l-88 -632q-35 -240 -278 -363q-219 -113 -473 -74q-252 35 -353 197q-63 102 -45 240zM301 410q-27 -184 158 -275q168 -82 389 -37q229 45 319 197q33 55 41 115l88 632 q23 160 -100 243t-311 83q-186 -2 -329.5 -85t-166.5 -241zM666 1618q4 35 31.5 59.5t62.5 24.5t56.5 -24.5t17.5 -59.5q-6 -35 -34 -59.5t-63 -24.5t-56 24.5t-15 59.5zM1034 1618q4 35 32 59.5t62.5 24.5t56 -24.5t17.5 -59.5q-6 -35 -33.5 -59.5t-62.5 -24.5t-56.5 24.5 t-15.5 59.5z" />
<glyph unicode="&#xd7;" horiz-adv-x="978" d="M127 291l375 327l-287 336l94 82l287 -338l377 330l67 -82l-370 -325l276 -322l-94 -84l-279 324l-376 -332z" />
<glyph unicode="&#xd8;" horiz-adv-x="1396" d="M180 410l88 632q16 109 79 198t155 141.5t199.5 81t219 25.5t209.5 -34l78 143l103 -36l-82 -150q223 -123 188 -369l-88 -632q-18 -135 -110.5 -237.5t-218.5 -149t-268 -58.5t-263 31l-80 -152l-104 37l84 158q-223 123 -189 371zM301 410q-27 -166 129 -260l641 1193 q-86 25 -186 25q-186 -2 -329.5 -85t-166.5 -241zM530 109q96 -33 209 -24t211.5 42t171 108.5t86.5 174.5l88 632q23 170 -125 261z" />
<glyph unicode="&#xd9;" horiz-adv-x="1400" d="M215 424l143 1026h121l-143 -1026q-31 -209 169 -294t423 0t254 294l143 1026h121l-143 -1026q-35 -246 -273 -371q-209 -111 -446 -71q-236 37 -328 198q-61 104 -41 244zM702 1794h164l127 -266h-119z" />
<glyph unicode="&#xda;" horiz-adv-x="1400" d="M215 424l143 1026h121l-143 -1026q-31 -209 169 -294t423 0t254 294l143 1026h121l-143 -1026q-35 -246 -273 -371q-209 -111 -446 -71q-236 37 -328 198q-61 104 -41 244zM801 1524l203 266h163l-247 -266h-119z" />
<glyph unicode="&#xdb;" horiz-adv-x="1400" d="M215 424l143 1026h121l-143 -1026q-31 -209 169 -294t423 0t254 294l143 1026h121l-143 -1026q-35 -246 -273 -371q-209 -111 -446 -71q-236 37 -328 198q-61 104 -41 244zM631 1540l256 244h143l187 -244h-136l-137 168l-176 -168h-137z" />
<glyph unicode="&#xdc;" horiz-adv-x="1400" d="M215 424l143 1026h121l-143 -1026q-31 -213 169 -300t423 0t254 300l143 1026h121l-143 -1026q-35 -246 -273 -371q-209 -111 -446 -71q-236 37 -328 198q-61 104 -41 244zM662 1630q6 35 33.5 59.5t62.5 24.5t56.5 -24.5t14.5 -59.5q-4 -35 -31.5 -59.5t-62.5 -24.5 t-56 24.5t-17 59.5zM1030 1630q6 35 34 59.5t62.5 24.5t56 -24.5t15.5 -59.5q-4 -35 -31.5 -59.5t-62.5 -24.5t-56.5 24.5t-17.5 59.5z" />
<glyph unicode="&#xdd;" horiz-adv-x="1122" d="M199 1450h141l317 -762l529 762h143l-631 -883l-77 -567h-121l78 567zM707 1522l202 266h164l-248 -266h-118z" />
<glyph unicode="&#xde;" horiz-adv-x="1124" d="M160 2l205 1462h122l-41 -284q92 12 195 12q276 0 406.5 -114.5t101.5 -329.5q-16 -121 -79.5 -210t-158 -137.5t-198 -71t-219.5 -22.5h-54l27 119h37q92 0 171 14.5t156.5 47t130 99t64.5 161.5q12 96 -19.5 163.5t-98 100t-137.5 46t-155 13.5q-100 0 -186 -14 l-147 -1055h-123z" />
<glyph unicode="&#xdf;" horiz-adv-x="1230" d="M156 -2l157 1122q27 180 177.5 284.5t334.5 104.5q119 0 215.5 -39.5t152.5 -128t38 -208.5q-33 -231 -213 -328q223 -82 182 -375q-23 -141 -117 -242.5t-220 -146.5t-263 -43q-129 4 -213 49l21 129q89 -51 208 -55q170 -4 304.5 78t156.5 233q23 158 -66 234.5 t-255 74.5h-189l17 115h188q129 0 224.5 72.5t113.5 204.5q18 133 -72 197.5t-229 64.5q-137 0 -246.5 -70t-130.5 -205l-158 -1122h-118z" />
<glyph unicode="&#xe0;" horiz-adv-x="1042" d="M141 328q-20 -141 52.5 -228.5t185.5 -105t232.5 12.5t191.5 99l2 -106h102l137 993q-94 49 -225 68.5t-264 3.5t-235.5 -103.5t-122.5 -238.5q-18 -133 -56 -395zM258 328q37 266 55 397q12 98 86 156.5t169.5 72t189.5 2t157 -44.5l-98 -694q-80 -78 -221 -108.5 t-249.5 23.5t-88.5 196zM518 1430h164l127 -267h-119z" />
<glyph unicode="&#xe1;" horiz-adv-x="1042" d="M141 328q37 262 56 395q20 152 122.5 239t235.5 103t264 -3.5t225 -68.5l-137 -993h-102l-2 106q-72 -70 -191.5 -99.5t-232.5 -12t-185.5 104.5t-52.5 229zM258 328q-20 -141 88.5 -195.5t249.5 -24t221 108.5l98 694q-63 33 -157 44.5t-189.5 -2t-169 -72t-86.5 -156.5 q-18 -131 -55 -397zM573 1147l203 266h164l-248 -266h-119z" />
<glyph unicode="&#xe2;" horiz-adv-x="1042" d="M141 328q-20 -141 52.5 -228.5t185.5 -105t232.5 12.5t191.5 99l2 -106h102l137 993q-94 49 -225 68.5t-264 3.5t-235.5 -103.5t-122.5 -238.5q-18 -133 -56 -395zM258 328q37 266 55 397q12 98 86 156.5t169.5 72t189.5 2t157 -44.5l-98 -694q-80 -78 -221 -108.5 t-249.5 23.5t-88.5 196zM397 1151l256 244h144l186 -244h-135l-137 168l-176 -168h-138z" />
<glyph unicode="&#xe3;" horiz-adv-x="1042" d="M141 328q-20 -141 52.5 -228.5t185.5 -105t232.5 12.5t191.5 99l2 -106h102l137 993q-94 49 -225 68.5t-264 3.5t-235.5 -103.5t-122.5 -238.5q-18 -133 -56 -395zM258 328q37 266 55 397q12 98 86 156.5t169.5 72t189.5 2t157 -44.5l-98 -694q-80 -78 -221 -108.5 t-249.5 23.5t-88.5 196zM467 1198q31 90 109.5 117.5t146.5 -19.5q31 -27 77 -23.5t70 48.5l64 -29q-27 -86 -103.5 -108.5t-138.5 16.5q-121 70 -166 -24z" />
<glyph unicode="&#xe4;" horiz-adv-x="1042" d="M141 328q-20 -141 52.5 -228.5t185.5 -105t232.5 12.5t191.5 99l2 -106h102l137 993q-94 49 -225 68.5t-264 3.5t-235.5 -103.5t-122.5 -238.5q-18 -133 -56 -395zM258 328q37 266 55 397q12 98 86 156.5t169.5 72t189.5 2t157 -44.5l-98 -694q-80 -78 -221 -108.5 t-249.5 23.5t-88.5 196zM440 1272q4 35 33 59.5t63.5 24.5t55 -24.5t16.5 -59.5t-32.5 -59.5t-63.5 -24.5t-55.5 24.5t-16.5 59.5zM809 1272q4 35 32.5 59.5t63.5 24.5t55.5 -24.5t16.5 -59.5t-33 -59.5t-63.5 -24.5t-55 24.5t-16.5 59.5z" />
<glyph unicode="&#xe5;" horiz-adv-x="1042" d="M141 328q-20 -141 52.5 -228.5t185.5 -105t232.5 12.5t191.5 99l2 -106h102l137 993q-94 49 -225 68.5t-264 3.5t-235.5 -103.5t-122.5 -238.5q-18 -133 -56 -395zM258 328q37 266 55 397q12 98 86 156.5t169.5 72t189.5 2t157 -44.5l-98 -694q-80 -78 -221 -108.5 t-249.5 23.5t-88.5 196zM518 1310.5q10 73.5 75.5 129t147.5 55.5q80 0 128.5 -55.5t37.5 -130.5q-10 -72 -73.5 -126.5t-143.5 -54.5q-82 0 -132 54.5t-40 128zM610 1309q-4 -41 21.5 -69t68.5 -28t77 29t38 70q6 41 -19.5 69.5t-68.5 28.5t-77 -28.5t-40 -71.5z" />
<glyph unicode="&#xe6;" horiz-adv-x="1693" d="M141 328l56 395q20 150 123.5 238t235.5 103t262 -7.5t220 -75.5q92 72 215 92.5t226.5 -8.5t169 -117t47.5 -215q-18 -129 -100.5 -213t-192 -111.5t-227 -18.5t-211.5 56l-19 -133q-12 -106 66 -161.5t192 -55.5q90 0 170 36t121 106l94 -52q-59 -98 -169.5 -151 t-231.5 -53q-178 0 -275 94l-8 -76h-100l-2 106q-72 -70 -191.5 -99.5t-232.5 -12t-185.5 104.5t-52.5 229zM258 328q-20 -141 88.5 -195.5t249.5 -24t221 108.5l72 508q12 84 57 156q-86 63 -227 76.5t-265 -46t-141 -186.5zM979 553q74 -31 164 -45t185 -7t166 65.5 t87 166.5q23 152 -113 217q-125 59 -270 6q-154 -55 -188 -198l-6 -31z" />
<glyph unicode="&#xe7;" horiz-adv-x="905" d="M143 328l58 407q23 164 155.5 254t294.5 90q115 0 206 -47t130 -135l-104 -61q-25 63 -92.5 96t-155.5 33q-117 0 -210 -58.5t-110 -167.5l-57 -415q-16 -109 60.5 -167.5t193.5 -58.5q98 0 183 42t118 122l98 -51q-53 -104 -156.5 -161.5t-226.5 -63.5l-71 -90l4 -5 q72 31 129 -11t42.5 -119.5t-75.5 -115.5t-139 -38q-84 0 -158 39l35 67q53 -31 129 -30q41 0 79 19t44 58q8 55 -60.5 68.5t-111.5 -10.5l-23 26l111 142q-154 10 -248 98t-72 244z" />
<glyph unicode="&#xe8;" horiz-adv-x="1009" d="M150 326q-23 -164 83.5 -254t270.5 -90q121 0 231.5 53t169.5 151l-94 52q-41 -70 -121 -106t-170 -36q-117 0 -194.5 58.5t-61.5 171.5q2 18 8.5 60t8.5 60q94 -47 211.5 -56t227 18.5t191.5 111.5t101 213q29 201 -138 297q-145 84 -337 37q-203 -49 -289 -211 q-33 -59 -43 -131q-10 -66 -28.5 -200t-26.5 -199zM295 553l24 174q23 158 179 223q141 59 270 6q137 -55 131 -196q0 -12 -2 -27q-16 -109 -87 -167t-166 -65t-185 7t-164 45zM475 1415h164l127 -266h-119z" />
<glyph unicode="&#xe9;" horiz-adv-x="1009" d="M150 326q8 66 26.5 199.5t28.5 199.5q29 207 225 303q172 86 352 39q174 -45 222 -193q18 -63 8 -141q-18 -129 -100.5 -213t-192 -111.5t-227 -18.5t-211.5 56q-2 -18 -8.5 -60t-8.5 -60q-16 -113 61.5 -171.5t194.5 -58.5q90 0 170 36t121 106l94 -52 q-59 -98 -169.5 -151t-231.5 -53q-164 0 -270.5 90t-83.5 254zM295 553q74 -31 164 -45t185 -7t166 65.5t87 166.5q23 152 -113 217q-125 59 -270 6q-154 -55 -188 -198l-7 -31zM571 1161l203 266h164l-248 -266h-119z" />
<glyph unicode="&#xea;" horiz-adv-x="1009" d="M150 326q-23 -164 83.5 -254t270.5 -90q121 0 231.5 53t169.5 151l-94 52q-41 -70 -121 -106t-170 -36q-117 0 -194.5 58.5t-61.5 171.5q2 18 8.5 60t8.5 60q94 -47 211.5 -56t227 18.5t191.5 111.5t101 213q29 201 -138 297q-145 84 -337 37q-203 -49 -289 -211 q-33 -59 -43 -131q-10 -66 -28.5 -200t-26.5 -199zM295 553l24 174q23 158 179 223q141 59 270 6q137 -55 131 -196q0 -12 -2 -27q-16 -109 -87 -167t-166 -65t-185 7t-164 45zM379 1155l242 225h139l182 -225h-131l-135 156l-166 -156h-131z" />
<glyph unicode="&#xeb;" horiz-adv-x="1009" d="M150 326q-23 -164 83.5 -254t270.5 -90q121 0 231.5 53t169.5 151l-94 52q-41 -70 -121 -106t-170 -36q-117 0 -194.5 58.5t-61.5 171.5q2 18 8.5 60t8.5 60q94 -47 211.5 -56t227 18.5t191.5 111.5t101 213q29 201 -138 297q-145 84 -337 37q-203 -49 -289 -211 q-33 -59 -43 -131q-10 -66 -28.5 -200t-26.5 -199zM295 553l24 174q23 158 179 223q141 59 270 6q137 -55 131 -196q0 -12 -2 -27q-16 -109 -87 -167t-166 -65t-185 7t-164 45zM416 1267.5q4 32.5 32.5 54t63.5 21.5t55.5 -21.5t16.5 -53.5q-2 -33 -31 -55.5t-63.5 -22.5 t-56 22.5t-17.5 55zM782 1267.5q4 32.5 33 54t63.5 21.5t55 -21.5t16.5 -53.5q-2 -33 -30.5 -55.5t-63.5 -22.5t-56.5 22.5t-17.5 55z" />
<glyph unicode="&#xec;" d="M184 0l131 946h123l-131 -946h-123zM195 1288h149l111 -229h-103z" />
<glyph unicode="&#xed;" d="M184 0l131 946h123l-131 -946h-123zM336 1059l176 229h150l-224 -229h-102z" />
<glyph unicode="&#xee;" d="M137 1055l228 221h127l167 -221h-120l-125 151l-156 -151h-121zM184 0l131 946h123l-131 -946h-123z" />
<glyph unicode="&#xef;" horiz-adv-x="489" d="M184 0l131 946h123l-131 -946h-123zM201 1139q4 31 27.5 52t56.5 21q31 0 49 -21.5t14 -51.5q-4 -33 -28.5 -53.5t-55.5 -20.5q-33 0 -50 20.5t-13 53.5zM463 1139q4 31 27.5 52t56.5 21q31 0 49 -21.5t14 -51.5q-4 -33 -28.5 -53.5t-55.5 -20.5q-33 0 -50 20.5t-13 53.5 z" />
<glyph unicode="&#xf0;" horiz-adv-x="1077" d="M186 328q10 66 22.5 155.5t20.5 155.5q23 158 155 250t292 90q156 0 274 -64l31 215q23 154 -139 209l-74 -163l-88 32l72 150q-88 6 -173.5 -22t-134.5 -81l-67 72q78 76 192.5 112t229.5 25l63 138l86 -31l-55 -125q104 -33 161.5 -113t39.5 -203l-150 -1060 q-49 -16 -117 -35q-174 -47 -299 -47q-158 2 -261 91t-81 249zM299 326q-16 -106 57.5 -166t188.5 -60q145 0 301 62q45 334 90 645q-129 59 -281 59q-115 -2 -206 -60t-107 -165v-2q-8 -66 -20.5 -156t-22.5 -155v-2z" />
<glyph unicode="&#xf1;" horiz-adv-x="1089" d="M143 0h115l123 885q156 61 301 61q113 0 188.5 -59.5t59.5 -167.5l-101 -719h115l100 719q23 160 -81.5 249t-264.5 93q-162 0 -417 -84zM498 1159q31 92 103.5 120t133.5 -19q27 -27 70 -25t67 49l58 -29q-27 -90 -98.5 -113.5t-126.5 19.5q-111 68 -152 -26z" />
<glyph unicode="&#xf2;" horiz-adv-x="1030" d="M158 324q-23 -164 83.5 -254t270.5 -93q164 2 296 92.5t155 254.5q8 63 28.5 208.5t30.5 210.5q23 164 -84 254t-270 93q-164 -2 -296 -92.5t-155 -254.5q-8 -63 -28.5 -209.5t-30.5 -209.5zM272 324q10 63 31 209.5t29 209.5q16 113 109 171.5t210 58.5q115 0 194 -58.5 t62 -171.5q-8 -66 -28.5 -211t-30.5 -208q-16 -113 -110.5 -172.5t-209.5 -59.5q-117 0 -194.5 59.5t-61.5 172.5zM492 1366h163l97 -225h-119z" />
<glyph unicode="&#xf3;" horiz-adv-x="1030" d="M158 324q10 63 30.5 209.5t28.5 209.5q23 164 155 254t296 93q164 -2 270 -92.5t84 -254.5q-10 -66 -30.5 -211t-28.5 -208q-23 -164 -155 -254t-296 -93q-164 2 -270.5 92.5t-83.5 254.5zM272 324q-16 -113 62 -172.5t194 -59.5q115 0 209 59.5t111 172.5 q10 63 30.5 208.5t28.5 210.5q16 113 -62.5 171.5t-193.5 58.5q-117 0 -210 -58.5t-109 -171.5q-8 -63 -28.5 -209.5t-31.5 -209.5zM594 1147l160 225h164l-205 -225h-119z" />
<glyph unicode="&#xf4;" horiz-adv-x="1030" d="M158 324q-23 -164 83.5 -254t270.5 -93q164 2 296 92.5t155 254.5q8 63 28.5 208.5t30.5 210.5q23 164 -84 254t-270 93q-164 -2 -296 -92.5t-155 -254.5q-8 -63 -28.5 -209.5t-30.5 -209.5zM272 324q10 63 31 209.5t29 209.5q16 113 109 171.5t210 58.5q115 0 194 -58.5 t62 -171.5q-8 -66 -28.5 -211t-30.5 -208q-16 -113 -110.5 -172.5t-209.5 -59.5q-117 0 -194.5 59.5t-61.5 172.5zM428 1135l221 208h123l158 -208h-115l-121 133l-147 -133h-119z" />
<glyph unicode="&#xf5;" horiz-adv-x="1030" d="M158 324q-23 -164 83.5 -254t270.5 -93q164 2 296 92.5t155 254.5q8 63 28.5 208.5t30.5 210.5q23 164 -84 254t-270 93q-164 -2 -296 -92.5t-155 -254.5q-8 -63 -28.5 -209.5t-30.5 -209.5zM272 324q10 63 31 209.5t29 209.5q16 113 109 171.5t210 58.5q115 0 194 -58.5 t62 -171.5q-8 -66 -28.5 -211t-30.5 -208q-16 -113 -110.5 -172.5t-209.5 -59.5q-117 0 -194.5 59.5t-61.5 172.5zM467 1176q31 94 106.5 123.5t137.5 -19.5q29 -27 71.5 -25t67.5 50l59 -29q-27 -92 -99.5 -116.5t-129.5 18.5q-113 73 -156 -27z" />
<glyph unicode="&#xf6;" horiz-adv-x="1030" d="M158 324q-23 -164 83.5 -254t270.5 -93q164 2 296 92.5t155 254.5q8 63 28.5 208.5t30.5 210.5q23 164 -84 254t-270 93q-164 -2 -296 -92.5t-155 -254.5q-8 -63 -28.5 -209.5t-30.5 -209.5zM272 324q10 63 31 209.5t29 209.5q16 113 109 171.5t210 58.5q115 0 194 -58.5 t62 -171.5q-8 -66 -28.5 -211t-30.5 -208q-16 -113 -110.5 -172.5t-209.5 -59.5q-117 0 -194.5 59.5t-61.5 172.5zM451 1212q4 31 28.5 52.5t55.5 21.5q33 0 51 -21.5t14 -52.5q-4 -33 -28.5 -54t-57.5 -21q-31 0 -49 21t-14 54zM778 1212q4 31 28.5 52.5t55.5 21.5 q33 0 51.5 -21.5t14.5 -52.5q-4 -33 -29 -54t-57 -21q-31 0 -49.5 21t-14.5 54z" />
<glyph unicode="&#xf7;" horiz-adv-x="1081" d="M180 616l17 123h888l-16 -123h-889zM493.5 350q6.5 43 41 73t77.5 32q43 0 69 -31t21 -74q-6 -43 -41.5 -73.5t-78.5 -30.5t-69 30.5t-19.5 73.5zM581.5 981q6.5 43 41 73.5t77.5 30.5t70 -30.5t20.5 -73.5t-41 -73.5t-77.5 -30.5t-70 30.5t-20.5 73.5z" />
<glyph unicode="&#xf8;" horiz-adv-x="1030" d="M158 324l59 419q23 164 155 254t296 93q88 -4 151 -27l86 156l94 -37l-92 -162q137 -94 115 -277l-59 -419q-23 -164 -155 -254t-296 -93q-92 4 -162 27l-78 -139l-84 37l80 145q-137 97 -110 277zM272 324q-14 -104 54 -168l436 800q-56 17 -111 17q-117 0 -210 -58.5 t-109 -171.5zM408 111q54 -19 120 -19q115 0 209 59.5t111 172.5l59 419q14 102 -59 166z" />
<glyph unicode="&#xf9;" horiz-adv-x="1058" d="M176 324q-23 -162 80.5 -251t263.5 -91q129 0 299 47q33 8 121 34l139 998h-114l-127 -903q-162 -63 -301 -64q-113 2 -188 60.5t-60 164.5l2 5l102 737h-114zM522 1329h156l98 -209h-114z" />
<glyph unicode="&#xfa;" horiz-adv-x="1058" d="M176 324l103 737h114l-102 -737l-2 -5q-14 -106 60.5 -164.5t187.5 -60.5q139 0 301 64l127 903h114l-139 -998q-88 -25 -121 -34q-170 -47 -299 -47q-160 2 -263 91t-81 251zM586 1120l159 209h156l-201 -209h-114z" />
<glyph unicode="&#xfb;" horiz-adv-x="1058" d="M176 324q-23 -162 80.5 -251t263.5 -91q129 0 299 47q33 8 121 34l139 998h-114l-127 -903q-162 -63 -301 -64q-113 2 -188 60.5t-60 164.5l2 5l102 737h-114zM440 1124l222 209h124l166 -209h-118l-123 144l-152 -144h-119z" />
<glyph unicode="&#xfc;" horiz-adv-x="1058" d="M176 324q-23 -162 80.5 -251t263.5 -91q129 0 299 47q33 8 121 34l139 1000h-114l-127 -905q-162 -63 -301 -64q-113 2 -188 60.5t-60 164.5l2 5l102 739h-114zM473 1210q2 31 27.5 52.5t56.5 21.5t49.5 -21.5t14.5 -52.5q-4 -33 -30 -54t-56.5 -21t-48 21t-13.5 54z M799 1210q2 31 27.5 52.5t56.5 21.5q33 0 51 -21.5t14 -52.5q-4 -33 -29.5 -54t-58.5 -21q-31 0 -48 21t-13 54z" />
<glyph unicode="&#xfd;" horiz-adv-x="1062" d="M131 -248l94 76q39 -61 132.5 -89t190.5 -15.5t177 75t94 160.5l12 94q-113 -66 -305 -69q-168 -2 -276.5 94t-85.5 260l100 723h119l-100 -723l-2 -4q-16 -111 62.5 -170.5t197.5 -61.5q156 0 307 62l125 897h117l-154 -1102q-20 -143 -124.5 -233.5t-231.5 -109.5 t-255 15.5t-194 120.5zM612 1116l160 215h164l-205 -215h-119z" />
<glyph unicode="&#xfe;" horiz-adv-x="1067" d="M84 -401q43 309 130 925.5t130 923.5h115l-60 -426q147 37 299 37q162 -2 267.5 -91t83.5 -251l-56 -393q-23 -160 -157 -254.5t-295 -92.5q-150 2 -281 66l-61 -444h-115zM276 154q131 -59 285 -60q117 2 209 60.5t104 164.5l3 5l55 393v4q16 106 -58.5 164.5 t-191.5 58.5q-193 0 -299 -35q-20 -143 -57.5 -407t-49.5 -348z" />
<glyph unicode="&#xff;" horiz-adv-x="1062" d="M131 -248l94 76q39 -61 132.5 -89t190.5 -15.5t177 75t94 160.5l12 94q-113 -66 -305 -69q-168 -2 -276.5 94t-85.5 260l100 723h119l-100 -723l-2 -4q-16 -111 62.5 -170.5t197.5 -61.5q156 0 307 62l125 897h117l-154 -1102q-20 -143 -124.5 -233.5t-231.5 -109.5 t-255 15.5t-194 120.5zM475 1237q4 31 28.5 52.5t55.5 21.5t48.5 -21.5t13.5 -52.5q-2 -31 -27 -51.5t-55.5 -20.5t-49 20.5t-14.5 51.5zM797 1237q4 31 27.5 52.5t54 21.5t49 -21.5t14.5 -52.5q-2 -31 -26.5 -51.5t-55.5 -20.5q-73 0 -63 72z" />
<glyph unicode="&#x131;" horiz-adv-x="452" d="M162 0l137 983h123l-137 -983h-123z" />
<glyph unicode="&#x152;" horiz-adv-x="1964" d="M178 420l86 606q29 209 214.5 325.5t416.5 118.5q182 0 276 -67l7 45h907l-17 -121h-786l-78 -545h723l-16 -120h-723l-76 -543h786l-18 -121h-907l6 35q-123 -61 -303 -58q-229 4 -377.5 121t-120.5 324zM299 420q-16 -113 51.5 -191.5t175 -108.5t236.5 -20.5t233 60.5 l160 1132q-109 61 -274 58q-186 0 -329.5 -83t-166.5 -241z" />
<glyph unicode="&#x153;" horiz-adv-x="1705" d="M156 324l59 419q23 164 155 254t296 93q109 -2 202 -49.5t121 -127.5q78 98 209 138.5t251 20t198.5 -111t60.5 -227.5q-18 -129 -100 -213t-191.5 -111.5t-227.5 -18.5t-212 56l-16 -122l-3 -11q-12 -106 66 -161.5t193 -55.5q90 0 169.5 36t120.5 106l95 -52 q-59 -98 -170 -151t-232 -53q-111 0 -199 44t-122 134q-104 -178 -369 -183q-164 2 -270.5 92.5t-83.5 254.5zM270 324q-16 -113 62 -172.5t194 -59.5q115 0 209 59.5t111 172.5l59 419q16 113 -62.5 171.5t-193.5 58.5q-117 0 -210 -58.5t-109 -171.5zM991 553 q74 -31 164 -45t185.5 -7t166 65.5t86.5 166.5q23 152 -112 217q-125 59 -271 6q-154 -55 -188 -198l-6 -31z" />
<glyph unicode="&#x178;" horiz-adv-x="1142" d="M209 1450h141l318 -762l528 762h143l-630 -883l-78 -567h-121l78 567zM510 1632q4 35 31.5 59.5t62.5 24.5t56.5 -24.5t17.5 -59.5q-6 -35 -34 -59.5t-62.5 -24.5t-56 24.5t-15.5 59.5zM924 1632q4 35 31.5 59.5t62.5 24.5t56.5 -24.5t17.5 -59.5q-6 -35 -34 -59.5 t-62.5 -24.5t-56 24.5t-15.5 59.5z" />
<glyph unicode="&#x192;" horiz-adv-x="1038" d="M-72 -246l72 96q41 -35 104 -34q78 0 125 55t84 172l232 707h-221l14 108h240l104 316q98 301 336 301q100 0 174 -62l-78 -92q-53 43 -113 43q-137 0 -196 -184l-105 -322h222l-15 -108h-239l-258 -791q-86 -254 -330 -254q-100 0 -152 49z" />
<glyph unicode="&#x2c6;" horiz-adv-x="536" d="M137 1206l256 244h144l186 -244h-135l-137 168l-177 -168h-137z" />
<glyph unicode="&#x2c7;" horiz-adv-x="526" d="M166 1448h135l139 -156l174 156h138l-254 -231h-144z" />
<glyph unicode="&#x2d8;" d="M174 1442h100q4 -51 44 -81t88.5 -31t95.5 29t65 83h103q-20 -80 -80 -134.5t-130.5 -67.5t-136 0t-108.5 67.5t-41 134.5z" />
<glyph unicode="&#x2d9;" d="M334 1335q6 45 40 75t79 30t70.5 -30t19.5 -75t-40 -74.5t-79 -29.5t-70.5 29.5t-19.5 74.5z" />
<glyph unicode="&#x2da;" d="M241.5 1329q10.5 80 75 137.5t144.5 57.5q78 0 125 -59.5t37 -137.5q-10 -76 -75 -134t-142 -58q-80 0 -127.5 57t-37 137zM332 1327q-6 -43 19.5 -72.5t66.5 -29.5q43 0 75.5 30.5t39 73.5t-18.5 74t-68 31t-75.5 -32t-38.5 -75z" />
<glyph unicode="&#x2db;" d="M-8 -215q8 78 70.5 135t138.5 80h92q-49 -33 -76 -53.5t-60.5 -59.5t-37.5 -75q-8 -55 26.5 -76t80.5 -6.5t75 45.5l37 -90q-86 -68 -184 -68q-82 0 -127 45t-35 123z" />
<glyph unicode="&#x2dc;" horiz-adv-x="555" d="M205 1307q33 94 120 123.5t160 -19.5q33 -27 83 -24.5t79 49.5l70 -29q-31 -92 -115 -116.5t-151 18.5q-132 75 -181 -27z" />
<glyph unicode="&#x2dd;" horiz-adv-x="559" d="M211 1161l158 289h163l-219 -289h-102zM510 1161l158 289h163l-219 -289h-102z" />
<glyph unicode="&#x3a9;" horiz-adv-x="1540" d="M80 0l14 111h340l2 6q-125 113 -189.5 280.5t-33.5 376.5q43 309 268.5 500.5t520 191.5t454.5 -197.5t119 -486.5q-31 -217 -143.5 -390t-260.5 -275l-2 -6h338l-14 -111h-549l10 76q193 102 330 287.5t170 418.5q31 223 -96 399.5t-375 176.5q-246 0 -429 -167 t-220 -421q-29 -217 58 -396t255 -298l-10 -76h-557z" />
<glyph unicode="&#x3c0;" horiz-adv-x="1122" d="M147 1022q92 51 273 51h801l-27 -106h-158l-94 -670q-14 -106 3.5 -149.5t80.5 -41.5l-14 -108q-127 6 -168 79t-23 208l97 682h-426l-136 -967h-112l135 967q-145 0 -221 -27z" />
<glyph unicode="&#x2000;" horiz-adv-x="944" />
<glyph unicode="&#x2001;" horiz-adv-x="1888" />
<glyph unicode="&#x2002;" horiz-adv-x="944" />
<glyph unicode="&#x2003;" horiz-adv-x="1888" />
<glyph unicode="&#x2004;" horiz-adv-x="629" />
<glyph unicode="&#x2005;" horiz-adv-x="472" />
<glyph unicode="&#x2006;" horiz-adv-x="314" />
<glyph unicode="&#x2007;" horiz-adv-x="314" />
<glyph unicode="&#x2008;" horiz-adv-x="236" />
<glyph unicode="&#x2009;" horiz-adv-x="377" />
<glyph unicode="&#x200a;" horiz-adv-x="104" />
<glyph unicode="&#x2010;" horiz-adv-x="681" d="M166 555l16 119h506l-16 -119h-506z" />
<glyph unicode="&#x2011;" horiz-adv-x="681" d="M166 555l16 119h506l-16 -119h-506z" />
<glyph unicode="&#x2012;" horiz-adv-x="681" d="M166 555l16 119h506l-16 -119h-506z" />
<glyph unicode="&#x2013;" horiz-adv-x="1024" d="M117 555l16 117h950l-16 -117h-950z" />
<glyph unicode="&#x2014;" horiz-adv-x="1884" d="M102 555l17 117h1835l-17 -117h-1835z" />
<glyph unicode="&#x2018;" horiz-adv-x="448" d="M236 983l221 467h123l-197 -467h-147z" />
<glyph unicode="&#x2019;" horiz-adv-x="466" d="M231 983l195 467h149l-223 -467h-121z" />
<glyph unicode="&#x201a;" horiz-adv-x="499" d="M53 -283l191 437h149l-219 -437h-121z" />
<glyph unicode="&#x201c;" horiz-adv-x="802" d="M254 983l223 467h121l-195 -467h-149zM567 983l224 467h120l-194 -467h-150z" />
<glyph unicode="&#x201d;" horiz-adv-x="886" d="M283 983l194 467h150l-224 -467h-120zM590 983l194 467h150l-223 -467h-121z" />
<glyph unicode="&#x201e;" horiz-adv-x="964" d="M127 -283l188 428h150l-217 -428h-121zM463 -283l188 428h150l-217 -428h-121z" />
<glyph unicode="&#x2020;" horiz-adv-x="1038" d="M195 944l16 109h393l55 397h123l-55 -397h393l-16 -109h-393l-168 -1202h-123l168 1202h-393z" />
<glyph unicode="&#x2021;" horiz-adv-x="1038" d="M82 143l16 105h394l96 696h-393l16 107h393l55 399h123l-55 -399h393l-16 -107h-393l-97 -696h394l-17 -105h-393l-55 -401h-123l55 401h-393z" />
<glyph unicode="&#x2022;" horiz-adv-x="876" d="M231.5 725q16.5 123 117 210t223 87t196.5 -87t57.5 -210t-116 -210t-222 -87t-197.5 87t-58.5 210z" />
<glyph unicode="&#x2026;" horiz-adv-x="1437" d="M190 86q6 41 39 69.5t74 28.5t65.5 -28.5t18.5 -69.5q-4 -41 -37 -69.5t-73.5 -28.5t-65.5 28.5t-21 69.5zM618 86q6 41 39 69.5t74 28.5t65.5 -28.5t18.5 -69.5q-4 -41 -37 -69.5t-73.5 -28.5t-65.5 28.5t-21 69.5zM1044 86q6 41 39 69.5t74 28.5t65.5 -28.5t18.5 -69.5 q-4 -41 -37 -69.5t-73.5 -28.5t-65.5 28.5t-21 69.5z" />
<glyph unicode="&#x202f;" horiz-adv-x="377" />
<glyph unicode="&#x2030;" horiz-adv-x="2224" d="M176 -82l1249 1618l93 -61l-1248 -1618zM217 1063q27 176 126 281.5t232 105.5q141 0 208 -103.5t40 -287.5q-25 -178 -124 -283.5t-234 -105.5q-145 0 -210 101t-38 292zM338 1063q-20 -145 15.5 -210t129.5 -65q183 1 222 271q39 274 -148 274q-92 0 -145.5 -64.5 t-73.5 -205.5zM913 385q25 178 123.5 282.5t233.5 104.5q141 0 208 -102.5t40 -288.5q-27 -178 -125.5 -282.5t-231.5 -104.5q-147 0 -210.5 100.5t-37.5 290.5zM1032 385q-20 -145 14.5 -209.5t131.5 -64.5q182 0 221 270q39 276 -148 276q-92 0 -145 -65.5t-74 -206.5z M1599 385q25 178 123.5 282.5t233.5 104.5q141 0 208 -102.5t40 -288.5q-27 -178 -125.5 -282.5t-231.5 -104.5q-147 0 -210.5 100.5t-37.5 290.5zM1718 385q-20 -145 14.5 -209.5t131.5 -64.5q182 0 221 270q39 276 -148 276q-92 0 -145 -65.5t-74 -206.5z" />
<glyph unicode="&#x2039;" horiz-adv-x="530" d="M156 604l338 416l90 -59l-293 -357l194 -356l-108 -60z" />
<glyph unicode="&#x203a;" horiz-adv-x="532" d="M115 248l293 356l-195 357l106 59l224 -416l-340 -416z" />
<glyph unicode="&#x2044;" horiz-adv-x="344" d="M-342 -12l1147 1532l86 -58l-1149 -1532z" />
<glyph unicode="&#x205f;" horiz-adv-x="472" />
<glyph unicode="&#x20ac;" horiz-adv-x="1191" d="M119 578l33 90h114l17 110h-129l32 92h109l22 156q16 125 88 221t169.5 148.5t212 69t217 -5t185.5 -86t116 -165.5l-115 -55q-39 113 -157 162t-242.5 31.5t-230 -103.5t-124.5 -217l-22 -156h555l-33 -92h-535l-16 -110h557l-31 -90h-538l-23 -156q-18 -135 64 -221 t203.5 -99.5t251.5 36.5t200 157l100 -53q-61 -98 -161.5 -163t-210 -88.5t-219 -7t-192.5 67.5t-128 147.5t-27 223.5l23 156h-135z" />
<glyph unicode="&#x2122;" horiz-adv-x="1697" d="M227 1352l15 100h639l-15 -100h-266l-98 -699h-107l99 699h-267zM868 653l113 799h123l180 -571l340 571h125l-113 -799h-108l96 623l-313 -526h-90l-164 518l-82 -615h-107z" />
<glyph unicode="&#x2202;" horiz-adv-x="1007" d="M127 432q31 223 173 363.5t310 140.5q119 0 195 -60.5t102 -123.5h2q61 283 -17.5 483.5t-254.5 200.5q-147 0 -270 -90l-33 92q150 104 328 104q197 0 311 -188.5t63 -550.5q-53 -369 -211.5 -593t-396.5 -224q-174 0 -251 129t-50 317zM246 436q-20 -154 33.5 -247 t164.5 -93h2q139 0 266.5 153.5t159.5 360.5q-14 78 -90.5 148.5t-181.5 70.5q-123 0 -227.5 -115.5t-126.5 -277.5z" />
<glyph unicode="&#x2206;" horiz-adv-x="1239" d="M63 0l13 88l686 1397h135l293 -1395l-12 -90h-1115zM217 115h823l-237 1181h-8z" />
<glyph unicode="&#x220f;" horiz-adv-x="1335" d="M240 1337l16 115h1229l-17 -115h-213l-206 -1480h-117l207 1480h-572l-207 -1480h-116l207 1480h-211z" />
<glyph unicode="&#x2211;" horiz-adv-x="1067" d="M18 -180l13 86l649 723l-420 731l12 88h920l-16 -109h-754v-8l393 -694l-622 -703l-3 -8h820l-15 -106h-977z" />
<glyph unicode="&#x221a;" horiz-adv-x="1103" d="M164 686l268 98l154 -899l631 1829h118l-712 -2029h-111l-172 952l-152 -53z" />
<glyph unicode="&#x221e;" horiz-adv-x="1501" d="M176 592q18 135 119.5 224t236.5 89q100 0 172 -58.5t154 -168.5l4 6q78 74 122 110.5t120 73.5t149 37q129 -2 196.5 -86t49.5 -219v-2q-18 -137 -121.5 -224t-228.5 -87q-90 0 -159.5 51t-162.5 170q-74 -70 -123 -110t-124.5 -75.5t-149.5 -35.5q-123 0 -197.5 88 t-56.5 217zM289 590q-10 -84 36 -140.5t132 -56.5h2q106 0 289 174l28 25q-45 66 -74.5 101.5t-85 70.5t-116.5 35q-84 0 -141.5 -60.5t-69.5 -148.5zM909 598q66 -82 96.5 -115.5t75.5 -61.5t90 -28q84 0 142.5 59.5t70.5 139.5q14 96 -30.5 151.5t-126.5 55.5h-2 q-102 0 -279 -166z" />
<glyph unicode="&#x222b;" horiz-adv-x="667" d="M-23 -293l37 90q100 -43 178 10.5t95 165.5q20 156 91 739.5t93 749.5q14 100 60.5 173t105.5 105t126 31t122 -40l-37 -97q-98 63 -174 8t-92 -192q-14 -119 -85 -706.5t-96 -772.5q-14 -94 -59 -162.5t-105.5 -97t-129 -33t-130.5 28.5z" />
<glyph unicode="&#x2248;" horiz-adv-x="1099" d="M172 436q119 143 262 144q76 0 187 -66h-3l27 -16l14 -9q86 -57 154 -57q74 0 148 86l69 -59q-106 -135 -239 -135q-39 0 -76 11t-62.5 25.5t-83.5 47.5q-102 66 -161 65q-86 0 -166 -98zM215 731q115 141 260 141q82 0 184 -65l29 -16h-2q2 -2 12.5 -8.5t16.5 -8.5 q78 -49 139 -49q78 0 156 94l63 -61q-109 -137 -242 -137q-55 0 -100 18t-117 66q-102 63 -165 63q-80 0 -166 -100z" />
<glyph unicode="&#x2260;" horiz-adv-x="1081" d="M137 348l17 109h331q90 158 154 258h-449l15 108h495q20 35 68.5 113t69.5 115l82 -41l-113 -187h301l-14 -108h-346q-29 -45 -78 -129t-76 -129h463l-17 -109h-508q-16 -29 -65 -110.5t-72 -120.5l-84 45l111 186h-285z" />
<glyph unicode="&#x2264;" horiz-adv-x="956" d="M92 119l14 108h777l-15 -108h-776zM203 707l12 92l780 411l-18 -131l-635 -327l543 -322l-19 -129z" />
<glyph unicode="&#x2265;" horiz-adv-x="964" d="M117 119l14 108h776l-14 -108h-776zM168 301l18 129l633 322l-540 327l18 131l661 -411l-12 -92z" />
<glyph unicode="&#x25ca;" horiz-adv-x="1118" d="M152 727l557 795h120l328 -793l-557 -795h-123zM295 731l244 -581q4 -12 8 -29t7 -35t5 -27q18 47 49 91l406 577l-244 573q-10 25 -25 86q-23 -43 -51 -86z" />
<glyph unicode="&#x25fc;" horiz-adv-x="1064" d="M0 0v1065h1065v-1065h-1065z" />
</font>
</defs>
</svg>
