<?xml version="1.0" standalone="no"?>
<!DOCTYPE svg PUBLIC "-//W3C//DTD SVG 1.1//EN" "http://www.w3.org/Graphics/SVG/1.1/DTD/svg11.dtd" >
<svg xmlns="http://www.w3.org/2000/svg" xmlns:xlink="http://www.w3.org/1999/xlink" version="1.1">
<metadata></metadata>
<defs>
<font id="uni_sans_semiboldregular" horiz-adv-x="1306" >
<font-face units-per-em="2048" ascent="1548" descent="-500" />
<missing-glyph horiz-adv-x="532" />
<glyph unicode="&#xfb01;" horiz-adv-x="1015" d="M70 0v1092q0 178 126 277t314 87v-221q-102 0 -158.5 -38t-56.5 -105v-193h203v-225h-203v-674h-225zM637 1309q0 61 41 102t100 41q63 0 103.5 -41t40.5 -102.5t-41 -102.5t-103 -41q-59 0 -100 42.5t-41 101.5zM670 0v1063h225v-1063h-225z" />
<glyph unicode="&#xfb02;" horiz-adv-x="1136" d="M80 0v1092q0 178 126 277t314 87v-221q-102 0 -158.5 -38t-56.5 -105v-193h203v-225h-203v-674h-225zM682 356v1094h225v-1094q0 -68 47.5 -110.5t137.5 -42.5v-211q-195 0 -302.5 97t-107.5 267z" />
<glyph horiz-adv-x="0" />
<glyph unicode="&#xd;" horiz-adv-x="681" />
<glyph unicode=" "  horiz-adv-x="532" />
<glyph unicode="&#x09;" horiz-adv-x="532" />
<glyph unicode="&#xa0;" horiz-adv-x="532" />
<glyph unicode="!" horiz-adv-x="589" d="M121 124.5q0 63.5 42 106.5t105.5 43t106.5 -43t43 -106.5t-43 -106.5t-106.5 -43t-105.5 43t-42 106.5zM154 352v1092h229v-1092h-229z" />
<glyph unicode="&#x22;" horiz-adv-x="698" d="M84 934v516h229l-39 -516h-190zM375 934v516h229l-39 -516h-190z" />
<glyph unicode="#" horiz-adv-x="1441" d="M2 403l45 224h277q37 100 53 166h-301l47 225h319q63 213 113 385h242l-113 -385h205l112 385h240l-117 -385h269l-62 -225h-274l-45 -166h303l-49 -224h-324q-102 -342 -119 -405h-237l116 405h-206l-117 -405h-240l119 405h-256zM565 627h205l49 166h-205z" />
<glyph unicode="$" horiz-adv-x="1191" d="M23 336l210 92q33 -76 93.5 -126t130.5 -69v414q-94 23 -155.5 46.5t-124 68.5t-91.5 117.5t-23 175.5q4 166 113 264t281 121v188h213v-188q139 -20 254.5 -105.5t177.5 -224.5l-209 -94q-71 161 -223 192v-370q96 -20 162.5 -46t132 -74t96.5 -130t24 -197 q-10 -164 -127.5 -266t-287.5 -125v-193h-213v193q-141 23 -257 109t-177 227zM291 1040q-4 -66 38 -101.5t128 -57.5v323q-68 -20 -115 -62.5t-51 -99.5v-2zM670 233q74 18 125 62.5t61 107.5q2 78 -47 124t-139 75v-369z" />
<glyph unicode="%" horiz-adv-x="1552" d="M39 1075q0 168 84 268.5t217 100.5q143 0 223 -97.5t80 -275.5q0 -172 -85 -273.5t-218 -101.5q-143 0 -222 98.5t-79 280.5zM131 -29l1002 1532l188 -121l-1004 -1532zM217 1075q0 -201 119 -201q125 0 125 197q0 199 -127 199q-117 0 -117 -195zM866 371q0 168 84 268 t217 100q143 0 223 -97t80 -275q0 -172 -85 -273.5t-218 -101.5q-143 0 -222 98t-79 281zM1044 373q0 -201 119 -201q125 0 125 197q0 199 -127 198q-117 0 -117 -194z" />
<glyph unicode="&#x26;" horiz-adv-x="1294" d="M55 414q0 131 69 219t187 162q-123 154 -123 280q0 158 112 251t267 93q139 0 242.5 -91t103.5 -232q0 -125 -63 -203.5t-178 -144.5l194 -209l90 151l201 -98l-131 -217l258 -297h-297l-94 102q-166 -188 -393 -188q-190 0 -317.5 115.5t-127.5 306.5zM270 414 q0 -94 70 -153.5t172 -59.5q130 0 236 133l-297 307q-180 -113 -181 -227zM416 1079q0 -78 100 -186q174 90 174 197q0 55 -36 88.5t-93 33.5q-61 0 -103 -36.5t-42 -96.5z" />
<glyph unicode="'" horiz-adv-x="415" d="M74 932v516h225l-27 -516h-198z" />
<glyph unicode="(" horiz-adv-x="559" d="M61 680q0 223 79 455.5t220 431.5l183 -121q-125 -160 -188.5 -367t-63.5 -399q0 -350 260 -770l-182 -119q-147 207 -227.5 440.5t-80.5 448.5z" />
<glyph unicode=")" horiz-adv-x="577" d="M-37 -137q127 164 195.5 368.5t68.5 391.5q0 397 -258 802l183 121q147 -203 228 -452.5t81 -471t-79 -453.5t-222 -433z" />
<glyph unicode="*" horiz-adv-x="899" d="M31 1087l57 199l244 -78v246h205v-248l237 76l60 -199l-236 -71l150 -201l-162 -123l-154 205l-147 -205l-170 119l153 207z" />
<glyph unicode="+" horiz-adv-x="1261" d="M76 565v230h418v405h227v-405h401v-230h-401v-411h-227v411h-418z" />
<glyph unicode="," horiz-adv-x="544" d="M29 -250l153 537h256l-180 -537h-229z" />
<glyph unicode="-" horiz-adv-x="706" d="M49 489v230h569v-230h-569z" />
<glyph unicode="." horiz-adv-x="485" d="M72 137.5q0 63.5 42 106.5t105.5 43t106.5 -43t43 -106.5t-43 -106.5t-106.5 -43t-105.5 43t-42 106.5z" />
<glyph unicode="/" horiz-adv-x="778" d="M-23 -6l607 1528l209 -74l-603 -1530z" />
<glyph unicode="0" horiz-adv-x="1257" d="M84 414v583q0 143 81 244.5t196.5 146t246.5 44.5t246 -44.5t195.5 -145.5t80.5 -245v-583q0 -207 -157.5 -319.5t-364.5 -112.5t-365.5 112.5t-158.5 319.5zM313 414q0 -104 89.5 -154.5t206 -50.5t204.5 50t88 155v583q0 106 -87 155.5t-206 49.5t-207 -49t-88 -156 v-583z" />
<glyph unicode="1" horiz-adv-x="665" d="M-39 1030l356 377h197v-1407h-227v1051l-150 -162z" />
<glyph unicode="2" horiz-adv-x="1128" d="M8 162l670 633q86 94 106.5 191t-44.5 168t-210 79q-102 2 -186 -54.5t-127 -152.5l-207 84q72 168 215.5 261t313.5 89q180 -6 302 -93t158.5 -210t-2.5 -266t-155 -258l-424 -402h602v-229h-942z" />
<glyph unicode="3" horiz-adv-x="1226" d="M27 309l209 99q45 -92 136 -143.5t191 -51.5q119 0 205 55.5t86 155.5q0 223 -256 219h-168v209h168q90 0 144.5 44t54.5 128q0 86 -67.5 132t-164.5 46q-84 0 -162.5 -45t-123.5 -129l-199 102q70 141 201 219t274 78q193 0 330 -105t137 -298q0 -186 -152 -260 q213 -84 213 -342q-2 -141 -79.5 -243.5t-193.5 -149.5t-253 -47q-164 0 -309 84.5t-221 242.5z" />
<glyph unicode="4" horiz-adv-x="1134" d="M6 514l739 924h218v-885h106v-217h-106v-332h-230v332h-594zM305 553h434l4 383q33 248 35 248h-30q-115 -199 -123 -211z" />
<glyph unicode="5" horiz-adv-x="1230" d="M47 309l209 99q45 -88 132 -138.5t181 -50.5q121 0 209 57.5t88 161.5v78q0 102 -82 153.5t-206 51.5q-162 0 -334 -80l-131 -4v811h915v-229h-686v-301q129 39 236 36q133 -2 245.5 -45t191.5 -144t81 -247v-82q-2 -143 -81 -248.5t-196 -153.5t-254 -48 q-158 0 -299 83.5t-219 239.5z" />
<glyph unicode="6" horiz-adv-x="1265" d="M72 420v600q0 207 158.5 321.5t377.5 112.5q359 0 500 -293l-209 -84q-35 72 -113.5 110t-177.5 38q-127 0 -217 -54.5t-90 -152.5v-207q98 129 307 129q219 -2 374 -116.5t155 -319.5v-84q0 -205 -156 -319.5t-373 -114.5q-217 -2 -375.5 112.5t-160.5 321.5zM301 422 q0 -98 90 -153.5t217 -55.5q123 0 211 55.5t88 153.5v80q0 98 -88 153.5t-211 55.5q-127 0 -217 -55.5t-90 -153.5v-80z" />
<glyph unicode="7" horiz-adv-x="1044" d="M18 0l672 1219h-663v229h905l72 -141l-725 -1307h-261z" />
<glyph unicode="8" horiz-adv-x="1210" d="M33 451q0 98 51 194t154 143q-74 33 -110 109t-36 154q2 201 135 299t328 98h35q193 0 328 -100.5t135 -296.5q0 -82 -34 -154t-108 -102q203 -80 203 -344q-4 -217 -150.5 -340t-373.5 -123h-35q-227 0 -373.5 122.5t-148.5 340.5zM260 436q0 -109 91 -173t204 -64h35 q113 0 204 64.5t91 172.5q0 127 -84 186.5t-211 59.5h-35q-127 0 -211 -59.5t-84 -186.5zM317 1057q0 -94 73 -139.5t173 -45.5q102 0 182 46.5t80 138.5q0 86 -70.5 138t-164.5 52h-35q-96 0 -167 -52t-71 -138z" />
<glyph unicode="9" horiz-adv-x="1247" d="M35 936v86q0 205 156.5 319.5t373.5 114.5q217 2 376 -112.5t161 -321.5v-604q0 -205 -159 -319.5t-378 -114.5q-162 0 -305 81.5t-217 233.5l190 94q115 -182 332 -182q127 0 217 55.5t90 153.5v205q-43 -63 -129 -93t-178 -30q-217 2 -373.5 115.5t-156.5 318.5z M266 936q0 -98 88 -152.5t211 -54.5q127 0 217 54.5t90 152.5v84q0 100 -89 153.5t-218 53.5q-125 0 -212 -54.5t-87 -152.5v-84z" />
<glyph unicode=":" horiz-adv-x="489" d="M78 163.5q0 63.5 43 106.5t106.5 43t106.5 -43t43 -106.5t-43 -105.5t-106.5 -42t-106.5 42t-43 105.5zM78 849.5q0 63.5 43 105.5t106.5 42t106.5 -42t43 -105.5t-43 -106.5t-106.5 -43t-106.5 43t-43 106.5z" />
<glyph unicode=";" horiz-adv-x="514" d="M14 -250l133 537h275l-180 -537h-228zM88 823.5q0 63.5 43 105.5t106.5 42t104.5 -42t41 -105.5t-41 -106.5t-104.5 -43t-106.5 43t-43 106.5z" />
<glyph unicode="&#x3c;" horiz-adv-x="985" d="M86 530v158l760 453v-262l-461 -269q23 -14 66 -37.5t147 -83t248 -141.5v-262z" />
<glyph unicode="=" horiz-adv-x="1126" d="M113 313v217h860v-217h-860zM113 664v221h860v-221h-860z" />
<glyph unicode="&#x3e;" horiz-adv-x="983" d="M102 86v262l467 264l-467 265v264l762 -453v-158z" />
<glyph unicode="?" horiz-adv-x="1011" d="M10 1219q152 242 424 241q193 0 332 -117.5t137 -322.5q-2 -188 -106.5 -304t-268.5 -143l-16 -254h-203l-16 449q186 -37 301 90q90 98 70 215q-18 119 -148 150q-39 10 -86 10q-145 0 -260 -143zM272 102q0 57 41 98.5t98.5 41.5t98.5 -41t41 -99q0 -55 -41 -95 t-98.5 -40t-98.5 40t-41 95z" />
<glyph unicode="@" horiz-adv-x="1531" d="M57 723q0 309 211 523t516 214q291 0 484.5 -175t193.5 -435q0 -246 -143 -419t-324 -173q-102 0 -143 80q-119 -70 -228.5 -52.5t-187.5 110.5t-78 218q0 170 67 306.5t196 199.5q59 29 131.5 39t142.5 -12.5t92 -83.5l14 47l152 -29l-127 -622q86 2 157.5 127t73.5 260 q2 201 -132 311.5t-337 110.5q-242 0 -388 -164t-152 -383q-6 -188 89 -331.5t267 -197t410 26.5l86 -164q-180 -72 -318 -71q-358 0 -541.5 205.5t-183.5 533.5zM569 616q0 -49 27 -84.5t68 -35.5q94 0 166.5 116.5t72.5 227.5q0 129 -84 129q-117 2 -183.5 -111 t-66.5 -242z" />
<glyph unicode="A" d="M-6 0l522 1450h248l524 -1450h-248l-141 377h-520q-25 -70 -67 -188.5t-64 -188.5h-254zM459 614h358l-119 367l-45 229h-28l-50 -233z" />
<glyph unicode="B" horiz-adv-x="1290" d="M115 0v1452h565q190 0 315 -104t125 -297q0 -80 -33.5 -156t-99.5 -119q199 -86 199 -344q-4 -227 -141.5 -329.5t-366.5 -102.5h-563zM352 227h328h14q254 0 254 213q0 219 -259 219h-9h-328v-432zM352 872h328q94 0 150.5 45.5t56.5 141.5q0 80 -58.5 122t-148.5 42 h-328v-351z" />
<glyph unicode="C" horiz-adv-x="1196" d="M53 453v544q0 219 166 343t395 124q166 0 312.5 -86t222.5 -245l-211 -105q-51 94 -141 146.5t-189 52.5q-129 0 -224 -60.5t-95 -169.5v-544q0 -109 95 -169.5t224 -60.5q100 0 190.5 51.5t139.5 145.5l211 -98q-76 -162 -224.5 -249t-316.5 -87q-143 0 -266 50 t-206 158.5t-83 258.5z" />
<glyph unicode="D" horiz-adv-x="1292" d="M115 0v1450h520q229 0 386 -115.5t157 -341.5v-544q0 -223 -156 -336t-387 -113h-520zM350 238h285q133 0 219 52t86 159v544q0 109 -87 164t-218 55h-285v-974z" />
<glyph unicode="E" horiz-adv-x="1171" d="M111 0v1452h956v-238h-719v-370h662v-238h-662v-368h719v-238h-956z" />
<glyph unicode="F" horiz-adv-x="1128" d="M111 0v1450h954v-238h-717v-407h629v-238h-629v-567h-237z" />
<glyph unicode="G" horiz-adv-x="1355" d="M66 453v555q0 219 165.5 342t391.5 123q168 0 310 -79t218 -239l-213 -100q-45 92 -132 137t-188 45q-129 0 -223 -60.5t-94 -168.5v-555q0 -111 95.5 -172.5t226.5 -61.5q133 0 229 61.5t96 172.5v112h-407v228h643v-340q0 -225 -166 -348t-395 -123q-227 0 -392 123 t-165 348z" />
<glyph unicode="H" horiz-adv-x="1427" d="M131 0v1450h238v-608h645v608h237v-1450h-237v606h-645v-606h-238z" />
<glyph unicode="I" horiz-adv-x="536" d="M102 0v1450h236v-1450h-236z" />
<glyph unicode="J" horiz-adv-x="1243" d="M6 420l238 39q23 -119 109.5 -184.5t195.5 -65.5q121 0 209 61.5t88 169.5v791h-361v219h598v-1010q0 -217 -160.5 -340t-379.5 -123q-190 0 -344 116t-193 327z" />
<glyph unicode="K" horiz-adv-x="1265" d="M117 0v1450h235v-641q215 211 404.5 409.5t224.5 231.5h293l-651 -700l655 -750h-301l-522 582l-103 -103v-479h-235z" />
<glyph unicode="L" horiz-adv-x="1048" d="M113 0v1450h235v-1212h662v-238h-897z" />
<glyph unicode="M" horiz-adv-x="1632" d="M115 0v1450h264l399 -942l404 942h266v-1450h-238v666l45 393h-20l-123 -342l-238 -516h-186l-239 516l-121 348h-21l43 -401v-664h-235z" />
<glyph unicode="N" horiz-adv-x="1411" d="M115 0v1450h250l503 -856l150 -289l14 4l-35 312v829h238v-1450h-277l-493 840l-135 276l-15 -4l37 -303v-809h-237z" />
<glyph unicode="O" horiz-adv-x="1396" d="M80 438v576q0 221 173 345t413 124q238 0 412.5 -124t174.5 -345v-576q0 -221 -175 -346t-412 -125q-154 0 -284 51.5t-216 161t-86 258.5zM315 438q0 -111 103.5 -173t247 -62t247 62.5t105.5 172.5v576q0 117 -103.5 176t-248.5 59q-145 -2 -248 -61t-103 -174v-576z " />
<glyph unicode="P" horiz-adv-x="1261" d="M117 0v1450h561q236 0 369 -142.5t133 -334.5q0 -195 -132.5 -333t-367.5 -138h-330v-502h-233zM350 719h328q125 0 195.5 74.5t70.5 175.5q0 97 -70 171q-69 72 -189 72h-7h-328v-493z" />
<glyph unicode="Q" horiz-adv-x="1398" d="M82 442v566q0 150 87 258t217 158.5t284 50.5q152 0 281.5 -50.5t216.5 -159t87 -257.5v-566q0 -190 -86 -264l95 -115l-181 -118l-88 100q-154 -72 -325 -72q-154 0 -284 51.5t-217 160t-87 257.5zM319 442q-2 -111 102.5 -172t246.5 -61q102 0 182 31l-115 133l160 114 l117 -131q8 14 8 86v566q0 115 -103.5 174t-248.5 59q-143 0 -246 -60.5t-103 -172.5v-566z" />
<glyph unicode="R" horiz-adv-x="1277" d="M115 0v1450h561q227 0 364.5 -109.5t143.5 -339.5q0 -195 -103.5 -301t-279.5 -131l448 -569h-288l-435 561h-174v-561h-237zM352 768h326q268 0 268 231q0 213 -254 213h-14h-326v-444z" />
<glyph unicode="S" horiz-adv-x="1218" d="M41 328l217 98q47 -102 136 -158.5t194 -56.5q119 0 205 50t92 140q1 9 1 18q0 97 -80 142q-87 49 -249 74q-213 33 -351 136t-140 302q12 188 163.5 295t356.5 107q385 0 522 -314l-215 -94q-84 186 -307 186q-113 0 -195 -50t-88 -138v-11q0 -78 78 -120 q84 -45 227 -72q88 -16 154.5 -34.5t141.5 -56.5t122 -86q48 -48 76 -126q24 -64 23 -143q0 -16 -1 -33q-8 -195 -166.5 -300.5t-373.5 -105.5q-172 0 -320.5 91.5t-222.5 259.5z" />
<glyph unicode="T" horiz-adv-x="1128" d="M-20 1214v238h1118v-238h-441v-1214h-237v1214h-440z" />
<glyph unicode="U" horiz-adv-x="1400" d="M109 451v999h237v-999q0 -115 95.5 -177.5t226.5 -62.5t227 62.5t96 177.5v999h238v-999q0 -152 -84 -262.5t-208 -162t-269 -51.5q-227 0 -393 125t-166 351z" />
<glyph unicode="V" horiz-adv-x="1255" d="M-47 1452h252l319 -922l17 -67q18 -68 37 -135l16 -70h20l62 277l323 917h250l-522 -1450h-250z" />
<glyph unicode="W" horiz-adv-x="1892" d="M-35 1450h246l256 -907l10 -68q10 -68 23 -135l10 -68h18l45 281q41 139 117 351t113 333h198l226 -688l14 -68q16 -68 33 -137l14 -68h19l32 271l254 903h244l-420 -1450h-252l-229 709l-29 182h-14q-2 -12 -6 -30.5t-11.5 -57.5t-11.5 -66l-4 -26l-223 -711h-252z" />
<glyph unicode="X" horiz-adv-x="1206" d="M-72 0l496 723l-492 727h287l350 -545l275 434l76 111h286l-493 -727q209 -309 219 -322q119 -170 276 -401h-288l-351 539l-350 -539h-291z" />
<glyph unicode="Y" horiz-adv-x="1187" d="M-47 1450h272l350 -659l349 659h276l-506 -887v-563h-237v563z" />
<glyph unicode="Z" horiz-adv-x="1153" d="M-8 156l805 1063h-762v231h1012l71 -154l-807 -1069h779v-227h-1035z" />
<glyph unicode="[" horiz-adv-x="524" d="M90 -240v1731h395v-217h-163v-1299h163v-215h-395z" />
<glyph unicode="\" horiz-adv-x="757" d="M-51 1413l213 74l594 -1495l-213 -72z" />
<glyph unicode="]" horiz-adv-x="522" d="M0 -29h162v1311h-162v211h395v-1731h-395v209z" />
<glyph unicode="^" horiz-adv-x="1216" d="M51 868l453 578h145l465 -578h-280l-259 314l-247 -314h-277z" />
<glyph unicode="_" horiz-adv-x="1071" d="M-6 68h1028v-226h-1028v226z" />
<glyph unicode="`" horiz-adv-x="526" d="M-70 1450h306l223 -358h-246z" />
<glyph unicode="a" horiz-adv-x="1034" d="M49 354q0 119 63 201q62 83 155 113q85 28 179 28q8 0 18 -1q104 -3 193 -42v66q-16 92 -100 134q-57 29 -122 29q-29 0 -61 -6q-100 -20 -163 -90l-131 121q152 168 385 168q170 0 294 -91t124 -259v-680q-100 -37 -209 -57q-85 -15 -172 -15q-26 -1 -50 1 q-112 6 -201 42.5t-145.5 122.5t-56.5 215zM270 354v-15q0 -66 32 -107q36 -46 98 -58q47 -9 95 -9q16 0 32 1q64 4 130 22v273q-45 19 -107 29q-40 6 -79 7q-23 -1 -45 -3q-61 -6 -106.5 -41t-49.5 -99z" />
<glyph unicode="b" horiz-adv-x="1026" d="M74 45v1407h225v-418q72 35 157 42q20 2 40 1q64 -1 124 -17q80 -22 145.5 -66t105.5 -118.5t40 -164.5v-392q-10 -125 -71.5 -206.5t-149.5 -114.5t-198 -35h-19q-101 1 -197 21q-104 22 -202 61zM299 180q66 -29 152 -31h8q83 0 151 41q72 43 76 129v402q-8 82 -78 125 q-65 40 -146 40h-12q-88 -3 -151 -44v-662z" />
<glyph unicode="c" horiz-adv-x="927" d="M53 350v359q0 174 124 269t294 95q139 0 255 -68.5t157 -209.5l-205 -78q-27 95 -120 125q-41 13 -81 13q-51 1 -100 -21q-88 -38 -98 -123v-363q10 -84 98 -123q49 -22 100 -22q40 0 81 14q93 31 120 125l209 -78q-39 -141 -158 -209.5t-258 -68.5q-170 0 -294 95 t-124 269z" />
<glyph unicode="d" horiz-adv-x="1046" d="M72 319v392q0 90 40 164.5t106 118.5q64 44 144 66q61 17 125 17q20 0 40 -1q85 -7 157 -42v418h225v-1407q-99 -39 -203 -61q-96 -21 -196 -21h-18q-110 2 -198.5 35t-150 115t-71.5 206zM297 319q5 -86 77 -129q69 -41 150 -41h8q86 2 152 31v662q-64 41 -152 44h-11 q-83 0 -147 -40q-70 -43 -77 -125v-402z" />
<glyph unicode="e" horiz-adv-x="1009" d="M61 342v373q0 174 124 269t296 95q168 0 291 -95t123 -269v-289h-606v-84q-3 -84 75 -127q50 -28 108 -28q32 1 66 9q96 24 136 107l188 -108q-59 -104 -164.5 -161t-216.5 -57q-170 0 -295 96.5t-125 268.5zM289 612h389v107q0 57 -41 96t-99 47q-28 4 -55 4 q-31 0 -61 -5q-57 -9 -96 -49q-37 -38 -37 -91v-6v-103z" />
<glyph unicode="f" horiz-adv-x="552" d="M70 0v1092q0 178 126 277q112 88 274 88q20 0 40 -1v-221q-102 0 -158.5 -38t-56.5 -105v-193h203v-225h-203v-674h-225z" />
<glyph unicode="g" horiz-adv-x="1026" d="M63 350v367q0 147 92.5 241.5t222.5 117.5q64 12 130 12q69 0 142 -12q141 -25 241 -95v-981q0 -113 -47 -198t-122 -128t-168 -57q-41 -6 -82 -6q-51 0 -101 9q-90 18 -170 66.5t-127 120.5l135 130q63 -86 175 -121q46 -14 89 -14q60 0 113 29q90 50 90 189 q-84 -39 -175 -39q-16 0 -31 1q-108 8 -199 46t-149.5 124t-58.5 198zM289 348q4 -82 75 -123q62 -35 136 -35h24q87 7 144 48v602q-57 41 -146 46q-9 1 -17 1q-78 0 -143 -40q-71 -44 -73 -130v-369z" />
<glyph unicode="h" horiz-adv-x="1081" d="M94 0v1450h225v-426q94 41 200 41t197 -37t150.5 -124t59.5 -210v-694h-224v696q0 86 -72 128q-61 36 -134 36q-12 0 -25 -1q-88 -7 -152 -46v-813h-225z" />
<glyph unicode="i" horiz-adv-x="440" d="M61 1309q0 61 41 102t101 41q63 0 103 -41t40 -102.5t-41 -102.5t-102 -41q-59 0 -100.5 42.5t-41.5 101.5zM94 0h225v1063h-225v-1063z" />
<glyph unicode="j" horiz-adv-x="477" d="M-47 -152v-210q371 0 371 360v1065h-226v-1065q0 -76 -28.5 -113t-116.5 -37zM66 1303q0 61 42 102t101 41q61 0 102 -41t41 -102q0 -59 -41 -101.5t-102 -42.5q-59 0 -101 42.5t-42 101.5z" />
<glyph unicode="k" horiz-adv-x="978" d="M94 0v1450h225v-817l381 428h283l-442 -490l440 -571h-264l-334 434l-64 -63v-371h-225z" />
<glyph unicode="l" horiz-adv-x="534" d="M86 356v1094h225v-1094q0 -68 47.5 -110.5t137.5 -42.5v-211q-195 0 -302.5 97t-107.5 267z" />
<glyph unicode="m" horiz-adv-x="1624" d="M117 0v954q94 68 224 98q64 15 127 14q66 0 131 -16q128 -30 187 -130q59 88 175 120q67 19 134 20q48 0 95 -10q113 -24 196.5 -114t83.5 -225v-711h-223v702v11q-1 48 -31 80q-34 35 -86 43q-23 3 -47 4q-29 0 -58 -6q-52 -10 -89 -43t-37 -80v-711h-221v715 q0 71 -60 109q-52 33 -120 34q-9 0 -19 -1q-80 -5 -141 -44v-813h-221z" />
<glyph unicode="n" horiz-adv-x="1081" d="M96 0v991q116 57 258 75q61 8 119 8q78 0 151 -14q128 -24 215 -117t87 -243v-700h-224v698q-4 84 -76 128q-68 42 -150 42h-8q-87 -2 -146 -39v-829h-226z" />
<glyph unicode="o" horiz-adv-x="1028" d="M68 348v371q0 172 124.5 268t294.5 98q168 -2 292 -98t124 -268v-371q0 -174 -124 -269t-292 -97q-172 2 -295.5 97t-123.5 269zM293 348q0 -72 59.5 -115t134.5 -43q72 0 131.5 43t59.5 115v371q0 70 -58.5 108.5t-132.5 38.5q-78 0 -136 -39t-58 -108v-371z" />
<glyph unicode="p" horiz-adv-x="1028" d="M76 -346v1343q94 41 202 65q93 20 190 20q16 0 32 -1q114 -4 205.5 -37.5t149.5 -118.5t58 -212v-365q0 -113 -61 -196.5t-153.5 -118.5t-198.5 -41q-14 -1 -26 -1q-92 0 -173 38v-375h-225zM301 215q80 -20 163 -25q10 -1 19 -1q72 0 131 37q66 42 74 122v369 q0 88 -68 131q-64 41 -147 41h-8q-88 -2 -164 -37v-637z" />
<glyph unicode="q" horiz-adv-x="1032" d="M61 348v365q0 127 58.5 212t149.5 118.5t205 37.5q17 1 33 1q97 0 189 -20q109 -24 203 -65v-1343h-225v375q-81 -38 -173 -38q-12 0 -25 1q-107 6 -199.5 41t-154 119t-61.5 196zM287 348q8 -80 75 -122q58 -37 130 -37q9 0 19 1q83 5 163 25v637q-76 35 -164 37h-8 q-83 0 -148 -41q-67 -43 -67 -131v-369z" />
<glyph unicode="r" horiz-adv-x="661" d="M84 0v705q0 111 53 192.5t144 126.5q39 20 102 35q2 0 6 1t6 1q27 8 97 8q63 0 120 -12v-199q-39 12 -80 12q-60 0 -120 -26q-102 -43 -103 -144v-700h-225z" />
<glyph unicode="s" horiz-adv-x="870" d="M10 231l168 109q52 -90 148 -130q57 -24 107 -24q33 0 65 12q76 28 82 109q0 51 -45.5 76t-120.5 41q-55 10 -97.5 21.5t-98.5 37t-93 58t-62.5 88t-25.5 123.5q0 162 119.5 242.5t275.5 80.5q193 0 346 -151l-135 -148q-91 90 -231 91h-2q-138 0 -150 -97v-10 q0 -98 193 -129q156 -27 252 -96.5t98 -223.5q0 -119 -65.5 -201.5t-165.5 -109.5q-74 -20 -154 -20q-28 0 -56 2q-108 10 -205.5 76.5t-146.5 172.5z" />
<glyph unicode="t" horiz-adv-x="591" d="M80 360v1090h223v-389h203v-225h-203v-474q0 -49 13.5 -82.5t33 -52t54 -29t62.5 -12.5t73 -2v-194q-48 -7 -91 -7q-139 0 -238 70q-130 92 -130 307z" />
<glyph unicode="u" horiz-adv-x="1048" d="M84 348v713h225v-717q2 -63 44 -105q43 -41 101 -55q39 -9 80 -10q22 0 44 3q66 7 114 34v850h223v-993q-135 -59 -278 -78q-65 -9 -127 -9q-73 1 -141 13q-125 22 -205 113.5t-80 240.5z" />
<glyph unicode="v" horiz-adv-x="956" d="M-39 1061h238l213 -619l34 -211h15l37 211l207 619h239l-377 -1061h-231z" />
<glyph unicode="w" horiz-adv-x="1433" d="M-18 1061h233l168 -602l25 -215h14q2 20 7 73.5t10 96.5t5 45l127 602h224l139 -600l18 -213h17l16 213l170 600h231l-317 -1061h-235l-107 467l-35 254h-12l-35 -256l-108 -465h-236z" />
<glyph unicode="x" horiz-adv-x="968" d="M-29 0l361 530q-47 68 -174 256.5t-187 274.5h262l228 -356q45 68 129 203t94 153h258l-346 -531q49 -74 169 -260t179 -270h-260l-223 354q-119 -190 -228 -354h-262z" />
<glyph unicode="y" horiz-adv-x="1060" d="M74 350v711h225v-713q4 -82 81 -123q66 -35 144 -35h25q92 7 149 48v823h224v-1061q0 -113 -49.5 -198t-126 -128t-172.5 -57q-43 -6 -85 -6q-53 0 -104 9q-92 18 -173 67t-128 120l135 130q63 -84 185 -115q46 -12 88 -12q70 0 130 32q86 47 86 155q0 11 -1 23 q-84 -39 -178 -39q-16 0 -32 1q-112 8 -205 46t-155.5 124t-62.5 198z" />
<glyph unicode="z" horiz-adv-x="892" d="M-12 133l534 715h-502v213h725l86 -135l-526 -709h531v-217h-756z" />
<glyph unicode="{" horiz-adv-x="587" d="M47 520v211q127 0 127 217v264q0 137 60.5 209t205.5 72h107v-211h-98q-29 0 -36 -18.5t-7 -63.5v-291q2 -98 -37 -177t-95 -105q133 -80 132 -285v-297q0 -74 30 -74h111v-209h-125q-139 0 -193.5 70t-54.5 209v264q0 215 -127 215z" />
<glyph unicode="|" horiz-adv-x="475" d="M109 -322v1811h225v-1811h-225z" />
<glyph unicode="}" horiz-adv-x="563" d="M-4 -29h90q51 0 51 74v297q-2 100 33 179t94 108q-55 16 -92 97t-35 183v291q0 31 -2 45.5t-12 25.5t-33 11h-94v211h96q172 0 223.5 -66.5t51.5 -214.5v-264q0 -217 129 -217v-211q-129 0 -129 -215v-264q0 -141 -58.5 -210t-220.5 -69h-92v209z" />
<glyph unicode="~" horiz-adv-x="1005" d="M80 618q113 164 256 164q100 0 215 -84q47 -37 77.5 -39t52 18t62.5 77l158 -131q-104 -184 -270 -185q-18 0 -39 5.5t-35 10.5t-37.5 17t-33 18.5t-36 22.5t-30.5 20q-66 43 -99.5 33t-84.5 -80z" />
<glyph unicode="&#xa1;" horiz-adv-x="569" d="M115 905q0 63 42 105.5t105.5 42.5t105.5 -42t42 -105.5t-42 -106.5t-105.5 -43t-105.5 42t-42 107zM147 -403v1087h230v-1087h-230z" />
<glyph unicode="&#xa2;" horiz-adv-x="942" d="M53 350v359q0 154 98.5 246t243.5 112v158h152v-158q119 -16 210 -84t126 -188l-205 -78q-29 98 -131 127v-631q102 33 131 129l209 -78q-35 -121 -128 -189.5t-212 -82.5v-148h-152v148q-145 20 -243.5 112.5t-98.5 245.5zM279 348q12 -94 116 -129v621 q-104 -39 -116 -129v-363z" />
<glyph unicode="&#xa3;" horiz-adv-x="1009" d="M27 0v215h188v410h-188v209h188v157q0 76 21.5 148.5t66.5 139.5t132 107.5t204 40.5q190 0 299 -149l-135 -139q-68 74 -154 74.5t-146.5 -59.5t-60.5 -150v-170h297v-209h-297v-410h496v-215h-911z" />
<glyph unicode="&#xa4;" horiz-adv-x="1148" d="M16 322l105 100q-86 121 -86 280q0 156 84 279l-27 31l-76 71l146 158l108 -111q119 80 277 80q154 0 276 -80l111 111l143 -158l-104 -100q86 -125 86 -281q0 -162 -86 -280l28 -29l76 -71l-143 -158l-111 110q-119 -80 -276 -79q-150 0 -277 79l-32 -36l-76 -72z M256 700q0 -119 85 -204.5t204 -85.5t204 86t85 204q0 123 -85 209t-204 86t-204 -86t-85 -209z" />
<glyph unicode="&#xa5;" horiz-adv-x="1077" d="M-102 1452h266l336 -629q254 475 336 629h270l-414 -723h205l-43 -186h-240v-78h285l-43 -178h-242v-287h-229v287h-293l43 178h250v78h-289l45 186h168q-217 373 -411 723z" />
<glyph unicode="&#xa6;" horiz-adv-x="446" d="M92 -262v758h227v-758h-227zM92 645v756h227v-756h-227z" />
<glyph unicode="&#xa7;" horiz-adv-x="960" d="M49 -23l189 103q39 -84 130 -117t166.5 2t75.5 121q0 59 -56 106.5t-137 83t-162 76.5t-137.5 112t-56.5 165q0 150 138 243q-94 94 -95 220q0 133 86 227t203 120.5t243 -19.5t195 -167l-180 -110q-43 82 -119.5 94t-136 -33t-59.5 -112q0 -55 55 -100.5t133 -81.5 t156 -76.5t133 -109.5t55 -159q0 -154 -116 -243q92 -96 92 -220q-2 -131 -68.5 -223t-167 -123.5t-209 -23.5t-206 73.5t-144.5 171.5zM289 633q0 -45 23.5 -69.5t72.5 -49.5l168 -80q94 68 94 121q0 68 -119 131l-114 64q-125 -47 -125 -117z" />
<glyph unicode="&#xa8;" horiz-adv-x="696" d="M-25 1317q0 57 39 97t96.5 40t96.5 -40t39 -97t-39 -96t-96.5 -39t-96.5 39t-39 96zM387 1317q0 59 39 98t96 39q59 0 98 -39t39 -98q0 -57 -39.5 -96t-97 -39t-96.5 39t-39 96z" />
<glyph unicode="&#xa9;" horiz-adv-x="1583" d="M39 719q0 303 217 519t520 216t518 -216t215 -519t-215 -519t-518 -216q-305 0 -521 216t-216 519zM225 719q0 -227 161 -389t390 -162q225 0 386 162t161 389t-159.5 388t-387.5 161q-229 0 -390 -160t-161 -389zM379 600q0 -164 117.5 -255t279.5 -91q133 0 245 65.5 t150 198.5l-198 74q-18 -68 -78.5 -101.5t-124 -29.5t-116 41t-60.5 96v231q8 59 60.5 96.5t116 41.5t123.5 -30t79 -101l194 73q-39 135 -148.5 200t-242.5 65q-162 0 -279.5 -91.5t-117.5 -255.5v-227z" />
<glyph unicode="&#xaa;" horiz-adv-x="700" d="M18 913q0 86 41 142.5t102.5 77t126 20.5t122.5 -18q0 70 -49.5 101.5t-115 17t-112.5 -67.5l-100 96q78 121 222 150.5t260 -45t116 -226.5v-477q-111 -31 -209 -39t-194.5 7.5t-153 82t-56.5 178.5zM225 918q0 -68 59.5 -88.5t125.5 -4.5v162q-51 27 -117 7.5 t-68 -76.5z" />
<glyph unicode="&#xab;" horiz-adv-x="929" d="M27 596l303 451l194 -117l-227 -334l227 -336l-194 -115zM395 596l301 451l197 -117l-227 -336q2 -6 28 -45q84 -119 199 -287l-197 -117z" />
<glyph unicode="&#xac;" horiz-adv-x="1161" d="M49 623v223h987v-539h-223v316h-764z" />
<glyph unicode="&#xad;" horiz-adv-x="681" d="M37 385v229h569v-229h-569z" />
<glyph unicode="&#xae;" horiz-adv-x="1599" d="M39 719q0 303 217 519t520 216t518 -216t215 -519t-215 -519t-518 -216q-305 0 -521 216t-216 519zM225 719q0 -227 161 -389t390 -162q225 0 386 162t161 389t-159.5 388t-387.5 161q-229 0 -390 -160t-161 -389zM477 346v733h332q117 0 190.5 -62.5t88 -142 t-23.5 -160.5t-122 -114l176 -254h-237l-160 240h-43v-240h-201zM678 750h125q51 0 71.5 38.5t-1 77.5t-72.5 39h-123v-155z" />
<glyph unicode="&#xaf;" horiz-adv-x="624" d="M4 1159v227h600v-227h-600z" />
<glyph unicode="&#xb0;" horiz-adv-x="714" d="M29 1151q0 127 89 215t216 88q125 0 214 -88t89 -215q0 -125 -90 -215t-213 -90q-127 0 -216 89t-89 216zM223 1149q0 -45 33 -77t78 -32t76.5 32t31.5 77t-31.5 78t-76.5 33t-78 -33t-33 -78z" />
<glyph unicode="&#xb1;" horiz-adv-x="1161" d="M96 106v224h901v-224h-901zM100 729v225h330v316h227v-316h338v-225h-338v-315h-227v315h-330z" />
<glyph unicode="&#xb2;" horiz-adv-x="731" d="M8 1245q94 213 328 213q143 0 235.5 -88t89 -213t-109.5 -225l-203 -182h322v-207h-596l-62 145l385 381q35 29 44.5 73t-17.5 77.5t-86 31.5q-91 -2 -152 -98z" />
<glyph unicode="&#xb3;" horiz-adv-x="710" d="M23 768l167 86q37 -82 132 -86q80 -8 124 43l-4 -4q14 23 15 49q0 37 -29 65.5t-76 24.5h-86v162h88q51 6 65.5 42t-12 68.5t-75.5 32.5q-66 0 -109 -47l-16 -22l-176 90q92 172 284 180q172 10 265 -106q35 -45 46 -102.5t-10.5 -115t-80.5 -86.5q121 -49 133 -170.5 t-70 -207.5q-100 -113 -289 -109q-86 4 -159.5 53t-116.5 133z" />
<glyph unicode="&#xb4;" horiz-adv-x="458" d="M-25 1094l224 358h305l-281 -358h-248z" />
<glyph unicode="&#xb5;" horiz-adv-x="1032" d="M72 -412v1469h231v-651q0 -117 94.5 -167.5t188.5 1t94 184.5v633h231l4 -1061h-213l-14 82q-59 -96 -194.5 -99.5t-192.5 105.5v-496h-229z" />
<glyph unicode="&#xb6;" horiz-adv-x="1224" d="M10 888q-8 81 0 160.5t49 151.5t98.5 128t147.5 89t197 33h606v-1679h-229v1468h-154v-1468h-231v714q-104 0 -192.5 33t-146 89.5t-97.5 128t-48 152.5z" />
<glyph unicode="&#xb7;" horiz-adv-x="550" d="M102 636.5q0 63.5 43 106.5t106.5 43t104.5 -43t41 -106.5t-41 -105.5t-104.5 -42t-106.5 42t-43 105.5z" />
<glyph unicode="&#xb8;" horiz-adv-x="514" d="M-6 -307l51 137l164 -27q29 -4 41 17q4 8 5 19t-10.5 23.5t-30.5 24t-57 19.5t-87 12l118 207h189l-49 -109q57 -20 93 -68t34 -110q-4 -100 -76 -155.5t-164 -55.5q-76 0 -221 66z" />
<glyph unicode="&#xb9;" horiz-adv-x="577" d="M12 1151l240 262h178v-891h-215v586l-88 -84z" />
<glyph unicode="&#xba;" horiz-adv-x="763" d="M25 922v208q0 137 101 213t236 76q137 0 238.5 -75.5t101.5 -213.5v-208q0 -135 -102 -212t-237.5 -77t-236.5 76.5t-101 212.5zM240 922q2 -33 28.5 -55.5t62.5 -27.5t70.5 0t59 27.5t24.5 55.5v208q-2 59 -63.5 84t-121.5 0t-60 -84v-208z" />
<glyph unicode="&#xbb;" horiz-adv-x="919" d="M14 260l232 336l-228 334l193 117l303 -451l-303 -451zM385 262l227 334l-227 336l195 115l303 -451l-303 -451z" />
<glyph unicode="&#xbc;" horiz-adv-x="1456" d="M-31 1194l115 -127l88 84v-586h215v891h-178zM109 29l888 1460l191 -113l-891 -1460zM645 362l103 -157h333v-205h226v205h73v190h-73v541h-195zM909 393l181 221l-5 -221h-176z" />
<glyph unicode="&#xbd;" horiz-adv-x="1597" d="M-31 1194l115 -127l88 84v-586h215v891h-178zM115 31l889 1458l186 -113l-891 -1460zM860 702l178 -92q61 96 152 99q59 2 86 -32t17.5 -78t-44.5 -73l-385 -381l62 -145h596v207h-322l203 182q106 100 109.5 225t-89 213t-235.5 88q-234 0 -328 -213z" />
<glyph unicode="&#xbe;" horiz-adv-x="1603" d="M-2 768l10 -27q43 -84 117 -133t160 -53q188 -4 288 109q82 86 70 207.5t-133 170.5q59 29 80.5 86.5t10.5 114.5t-46 103q-92 117 -264 106q-193 -8 -285 -180l176 -90l17 22q43 47 108 47q49 0 76 -32.5t12.5 -68.5t-65.5 -42h-88v-162h86q47 4 75.5 -24.5t28.5 -65.5 q0 -27 -14 -49l4 4q-45 -51 -125 -43q-94 4 -131 86zM266 31l891 1458l186 -113l-890 -1460zM811 362l102 -157h334v-205h226v205h73v190h-73v541h-195zM1075 393l180 221l-4 -221h-176z" />
<glyph unicode="&#xbf;" horiz-adv-x="972" d="M31 25q-2 -205 137 -323t332 -118q272 0 424 242l-160 129q-115 -143 -260 -143q-180 0 -225 127q-39 106 36 217q90 131 254 129q35 0 72 -9l-16 449h-203l-16 -254q-164 -27 -268.5 -142.5t-106.5 -303.5zM389 938q0 59 40 99t99.5 40t99.5 -40t40 -99q0 -57 -41 -98 t-99 -41q-59 0 -99 40t-40 99z" />
<glyph unicode="&#xc0;" d="M-6 0h254q23 70 64.5 188.5t66.5 188.5h520l141 -377h248l-524 1450h-248zM254 1837h285l209 -328h-230zM459 614l116 363l50 233h28l45 -229l119 -367h-358z" />
<glyph unicode="&#xc1;" d="M-6 0l522 1450h248l524 -1450h-248l-141 377h-520q-25 -70 -67 -188.5t-64 -188.5h-254zM459 614h358l-119 367l-45 229h-28l-50 -233zM528 1518l211 340h289l-266 -340h-234z" />
<glyph unicode="&#xc2;" d="M-6 0h254q23 70 64.5 188.5t66.5 188.5h520l141 -377h248l-524 1450h-248zM270 1497l283 309h166l282 -309h-260l-106 109l-100 -109h-265zM459 614l116 363l50 233h28l45 -229l119 -367h-358z" />
<glyph unicode="&#xc3;" d="M-6 0h254q23 70 64.5 188.5t66.5 188.5h520l141 -377h248l-524 1450h-248zM342 1563q20 106 78.5 163.5t132.5 57.5q37 0 98 -29q27 -14 39 -19t30.5 -7.5t30 12t21.5 43.5l152 -49q-20 -109 -74.5 -161t-128.5 -52q-37 0 -111 30q-45 27 -73 17.5t-48 -62.5zM459 614 l116 363l50 233h28l45 -229l119 -367h-358z" />
<glyph unicode="&#xc4;" d="M-6 0h254q23 70 64.5 188.5t66.5 188.5h520l141 -377h248l-524 1450h-248zM311 1644.5q0 57.5 39 97.5t96.5 40t96.5 -40t39 -97.5t-39 -96.5t-96.5 -39t-96.5 39t-39 96.5zM459 614l116 363l50 233h28l45 -229l119 -367h-358zM723 1645q0 59 39 98t96 39q59 0 98 -39 t39 -98q0 -57 -40 -96.5t-97 -39.5t-96 39.5t-39 96.5z" />
<glyph unicode="&#xc5;" d="M-6 0h254q23 70 64.5 188.5t66.5 188.5h520l141 -377h248l-524 1450h-248zM412 1718q0 94 68.5 163t164.5 69q94 0 160.5 -71t66.5 -163t-66.5 -161.5t-160.5 -69.5q-96 0 -164.5 68.5t-68.5 164.5zM459 614l116 363l50 233h28l45 -229l119 -367h-358zM569 1716 q0 -27 22.5 -48t51.5 -21t49.5 19t20.5 50q0 29 -20.5 50.5t-49.5 21.5t-51.5 -21.5t-22.5 -50.5z" />
<glyph unicode="&#xc6;" horiz-adv-x="1677" d="M-61 0l772 1450h848v-238h-564v-370h508v-236h-508v-373h564v-233h-795v440h-336l-219 -440h-270zM530 664h234v276l14 225h-12q-70 -180 -76 -198z" />
<glyph unicode="&#xc7;" horiz-adv-x="1196" d="M53 453v544q0 219 166 343t395 124q166 0 312.5 -86t222.5 -245l-211 -105q-51 94 -141 146.5t-189 52.5q-129 0 -224 -60.5t-95 -169.5v-544q0 -109 95 -169.5t224 -60.5q100 0 190.5 51.5t139.5 145.5l211 -98q-66 -137 -181.5 -220.5t-252.5 -105.5l-23 -51 q57 -20 93 -68.5t34 -109.5q-4 -100 -75.5 -155.5t-163.5 -55.5q-76 0 -222 65l52 137l163 -26q29 -4 41 16q4 8 5.5 19.5t-10 23.5t-31 23.5t-57.5 19.5t-87 12l82 146q-197 25 -330 144.5t-133 316.5z" />
<glyph unicode="&#xc8;" horiz-adv-x="1171" d="M111 0v1452h956v-238h-719v-370h662v-238h-662v-368h719v-238h-956zM246 1839h278l205 -328h-225z" />
<glyph unicode="&#xc9;" horiz-adv-x="1171" d="M111 0v1452h956v-238h-719v-370h662v-238h-662v-368h719v-238h-956zM451 1511l202 324h275l-254 -324h-223z" />
<glyph unicode="&#xca;" horiz-adv-x="1171" d="M111 0v1452h956v-238h-719v-370h662v-238h-662v-368h719v-238h-956zM238 1524l286 286h168l287 -286h-264l-109 100l-100 -100h-268z" />
<glyph unicode="&#xcb;" horiz-adv-x="1171" d="M111 0v1452h956v-238h-719v-370h662v-238h-662v-368h719v-238h-956zM264 1661q0 57 39 97t96.5 40t96.5 -40t39 -97t-39 -96t-96.5 -39t-96.5 39t-39 96zM676 1661q0 59 39 98t96 39t97 -39t40 -98q0 -57 -40 -96t-97 -39t-96 39t-39 96z" />
<glyph unicode="&#xcc;" horiz-adv-x="536" d="M-131 1837h276l201 -324h-221zM102 0v1450h236v-1450h-236z" />
<glyph unicode="&#xcd;" horiz-adv-x="536" d="M90 1511l203 324h274l-254 -324h-223zM102 0v1450h236v-1450h-236z" />
<glyph unicode="&#xce;" horiz-adv-x="536" d="M-129 1505l264 289h156l264 -289h-244l-100 105l-92 -105h-248zM102 0v1450h236v-1450h-236z" />
<glyph unicode="&#xcf;" horiz-adv-x="536" d="M-76 1638q0 55 36 92t89 37t90 -36.5t37 -92.5q0 -53 -37 -89t-90 -36t-89 36t-36 89zM102 0v1450h236v-1450h-236zM264 1638q0 55 36 92t89 37q55 0 92 -36.5t37 -92.5q0 -53 -37 -89t-92 -36q-53 0 -89 36t-36 89z" />
<glyph unicode="&#xd0;" horiz-adv-x="1255" d="M-20 618v195h116v637h545q225 0 371.5 -112.5t146.5 -338.5v-550q0 -223 -146.5 -336t-371.5 -113h-545v618h-116zM334 238h307q129 0 206 51t77 160v550q0 111 -77 162t-206 51h-307v-399h233v-195h-233v-380z" />
<glyph unicode="&#xd1;" horiz-adv-x="1411" d="M115 0v1450h250l503 -856l150 -289l14 4l-35 312v829h238v-1450h-277l-493 840l-135 276l-15 -4l37 -303v-809h-237zM385 1567q33 102 96.5 153.5t139.5 42.5q33 -4 94 -39q25 -18 37 -24t29.5 -10t29.5 8t27 41l145 -66q-61 -207 -225 -188q-31 4 -107 41q-31 20 -50 25 t-38 -8t-37 -48z" />
<glyph unicode="&#xd2;" horiz-adv-x="1396" d="M80 438v576q0 221 173 345t413 124q238 0 412.5 -124t174.5 -345v-576q0 -221 -175 -346t-412 -125q-154 0 -284 51.5t-216 161t-86 258.5zM315 438q0 -111 103.5 -173t247 -62t247 62.5t105.5 172.5v576q0 117 -103.5 176t-248.5 59q-145 -2 -248 -61t-103 -174v-576z M317 1839h279l182 -289h-225z" />
<glyph unicode="&#xd3;" horiz-adv-x="1396" d="M80 438v576q0 221 173 345t413 124q238 0 412.5 -124t174.5 -345v-576q0 -221 -175 -346t-412 -125q-154 0 -284 51.5t-216 161t-86 258.5zM315 438q0 -111 103.5 -173t247 -62t247 62.5t105.5 172.5v576q0 117 -103.5 176t-248.5 59q-145 -2 -248 -61t-103 -174v-576z M532 1540l209 311h285l-262 -311h-232z" />
<glyph unicode="&#xd4;" horiz-adv-x="1396" d="M80 438v576q0 221 173 345t413 124q238 0 412.5 -124t174.5 -345v-576q0 -221 -175 -346t-412 -125q-154 0 -284 51.5t-216 161t-86 258.5zM293 1542l287 289h168l286 -289h-262l-108 100l-105 -100h-266zM315 438q0 -111 103.5 -173t247 -62t247 62.5t105.5 172.5v576 q0 117 -103.5 176t-248.5 59q-145 -2 -248 -61t-103 -174v-576z" />
<glyph unicode="&#xd5;" horiz-adv-x="1390" d="M80 438v576q0 221 173 345t413 124q238 0 412.5 -124t174.5 -345v-576q0 -221 -175 -346t-412 -125q-154 0 -284 51.5t-216 161t-86 258.5zM315 438q0 -111 103.5 -173t247 -62t247 62.5t105.5 172.5v576q0 117 -103.5 176t-248.5 59q-145 -2 -248 -61t-103 -174v-576z M375 1610q29 98 89 149t132 43q35 -2 92 -35q27 -18 36 -22t26.5 -8t30 8t24.5 41l141 -62q-29 -104 -85 -149t-128 -37q-31 2 -104 39q-41 27 -67.5 21.5t-51.5 -56.5z" />
<glyph unicode="&#xd6;" horiz-adv-x="1396" d="M80 438v576q0 221 173 345t413 124q238 0 412.5 -124t174.5 -345v-576q0 -221 -175 -346t-412 -125q-154 0 -284 51.5t-216 161t-86 258.5zM315 438q0 -111 103.5 -173t247 -62t247 62.5t105.5 172.5v576q0 117 -103.5 176t-248.5 59q-145 -2 -248 -61t-103 -174v-576z M334 1651q0 55 37 92t90 37t89 -37t36 -92q0 -53 -37 -89t-88 -36q-53 0 -90 36t-37 89zM719 1651q0 55 36 92t91 37t92 -37t37 -92q0 -53 -37 -89t-92 -36t-91 36t-36 89z" />
<glyph unicode="&#xd7;" horiz-adv-x="1048" d="M43 905l158 158l297 -295l290 293l158 -162l-287 -289l285 -284l-158 -160l-286 287l-297 -297l-154 163l291 289z" />
<glyph unicode="&#xd8;" horiz-adv-x="1417" d="M100 438v576q0 221 173 345t413 124q88 0 170 -17q45 111 57 144l220 -78l-60 -154q201 -119 201 -364v-576q0 -221 -175 -346t-413 -125q-80 0 -168 17q-8 -14 -14 -39l-39 -105l-217 78l57 154q-205 133 -205 366zM336 438q0 -78 57 -139q354 891 377 946q-29 4 -84 4 q-145 -2 -247.5 -61t-102.5 -174v-576zM608 207q23 -4 78 -4q141 0 245.5 62.5t106.5 172.5v576q0 86 -55 141l-278 -704z" />
<glyph unicode="&#xd9;" horiz-adv-x="1400" d="M109 451v999h237v-999q0 -115 95.5 -177.5t226.5 -62.5t227 62.5t96 177.5v999h238v-999q0 -152 -84 -262.5t-208 -162t-269 -51.5q-227 0 -393 125t-166 351zM322 1765h317l192 -311h-253z" />
<glyph unicode="&#xda;" horiz-adv-x="1400" d="M109 451v999h237v-999q0 -115 95.5 -177.5t226.5 -62.5t227 62.5t96 177.5v999h238v-999q0 -152 -84 -262.5t-208 -162t-269 -51.5q-227 0 -393 125t-166 351zM504 1454l192 311h318l-256 -311h-254z" />
<glyph unicode="&#xdb;" horiz-adv-x="1400" d="M109 451v999h237v-999q0 -115 95.5 -177.5t226.5 -62.5t227 62.5t96 177.5v999h238v-999q0 -152 -84 -262.5t-208 -162t-269 -51.5q-227 0 -393 125t-166 351zM248 1520l315 307h185l313 -307h-289l-123 108l-108 -108h-293z" />
<glyph unicode="&#xdc;" horiz-adv-x="1400" d="M109 451v999h237v-999q0 -117 95.5 -181.5t226.5 -64.5t227 64.5t96 181.5v999h238v-999q0 -152 -84 -262.5t-208 -162t-269 -51.5q-227 0 -393 125t-166 351zM356 1628.5q0 57.5 39 95t96.5 37.5t96.5 -37.5t39 -95.5q0 -59 -39 -98t-96.5 -39t-96.5 40t-39 97.5z M727 1628q0 57 39 95t96.5 38t95 -37.5t37.5 -95.5q0 -59 -37.5 -98t-95 -39t-96.5 39t-39 98z" />
<glyph unicode="&#xdd;" horiz-adv-x="1187" d="M-47 1450h272l350 -659l349 659h276l-506 -887v-563h-237v563zM408 1481l186 309h305l-244 -309h-247z" />
<glyph unicode="&#xde;" horiz-adv-x="1124" d="M109 2v1462h239v-250q70 4 113 5q283 0 432 -123t149 -351q0 -129 -51 -223t-140 -146t-192.5 -76t-222.5 -24h-88v-274h-239zM348 512h82q98 0 176 17.5t138.5 72.5t60.5 143q0 129 -104.5 182.5t-247.5 53.5q-35 0 -105 -4v-465z" />
<glyph unicode="&#xdf;" horiz-adv-x="1202" d="M104 0v1063q0 188 140.5 295.5t326.5 107.5q188 0 327.5 -102t139.5 -289q0 -90 -34.5 -174t-106.5 -121q201 -98 201 -338q-2 -133 -66.5 -235.5t-163 -149.5t-217 -57t-229.5 41v229q66 -41 143.5 -49t143 14.5t110.5 77t45 129.5q0 111 -71.5 164t-188.5 53h-188v215 h188q84 0 143.5 56.5t59.5 144.5t-70.5 133t-165.5 45q-96 0 -167.5 -50t-71.5 -140v-1063h-228z" />
<glyph unicode="&#xe0;" horiz-adv-x="1034" d="M49 354q0 -129 56.5 -215t145.5 -122.5t201.5 -42t221 14t209.5 56.5v680q0 168 -124 259t-294 91q-233 0 -385 -168l131 -121q63 70 162.5 89.5t183.5 -22.5t100 -134v-66q-88 39 -192.5 42t-197.5 -27.5t-155.5 -112.5t-62.5 -201zM195 1356h276l145 -240h-221z M270 354q4 82 79 117t161 27t147 -37v-273q-66 -18 -130 -22t-126.5 8t-98.5 58.5t-32 121.5z" />
<glyph unicode="&#xe1;" horiz-adv-x="1034" d="M49 354q0 119 62.5 201t155.5 112.5t197.5 27.5t192.5 -42v66q-16 92 -100 134t-183.5 22.5t-162.5 -89.5l-131 121q152 168 385 168q170 0 294 -91t124 -259v-680q-100 -37 -209 -56.5t-221.5 -14t-201.5 42t-145.5 122.5t-56.5 215zM270 354q-4 -76 32 -122t98.5 -58 t126.5 -8t130 22v273q-45 20 -107.5 29.5t-123.5 4t-106.5 -41t-49.5 -99.5zM315 1126l146 240h276l-200 -240h-222z" />
<glyph unicode="&#xe2;" horiz-adv-x="1034" d="M49 354q0 -129 56.5 -215t145.5 -122.5t201.5 -42t221 14t209.5 56.5v680q0 168 -124 259t-294 91q-233 0 -385 -168l131 -121q63 70 162.5 89.5t183.5 -22.5t100 -134v-66q-88 39 -192.5 42t-197.5 -27.5t-155.5 -112.5t-62.5 -201zM174 1112l229 242h136l231 -242h-213 l-86 86l-82 -86h-215zM270 354q4 82 79 117t161 27t147 -37v-273q-66 -18 -130 -22t-126.5 8t-98.5 58.5t-32 121.5z" />
<glyph unicode="&#xe3;" horiz-adv-x="1034" d="M49 354q0 -129 56.5 -215t145.5 -122.5t201.5 -42t221 14t209.5 56.5v680q0 168 -124 259t-294 91q-233 0 -385 -168l131 -121q63 70 162.5 89.5t183.5 -22.5t100 -134v-66q-88 39 -192.5 42t-197.5 -27.5t-155.5 -112.5t-62.5 -201zM197 1180q37 117 119.5 155.5 t170.5 -14.5q31 -27 59.5 -26t51.5 48l129 -55q-51 -186 -199 -172q-33 0 -94 35q-35 25 -61 19.5t-49 -52.5zM270 354q4 82 79 117t161 27t147 -37v-273q-66 -18 -130 -22t-126.5 8t-98.5 58.5t-32 121.5z" />
<glyph unicode="&#xe4;" horiz-adv-x="1034" d="M49 354q0 -129 56.5 -215t145.5 -122.5t201.5 -42t221 14t209.5 56.5v680q0 168 -124 259t-294 91q-233 0 -385 -168l131 -121q63 70 162.5 89.5t183.5 -22.5t100 -134v-66q-88 39 -192.5 42t-197.5 -27.5t-155.5 -112.5t-62.5 -201zM188 1216.5q0 47.5 33 80t80 32.5 t79 -32.5t32 -80t-32 -80t-79 -32.5t-80 32.5t-33 80zM270 354q4 82 79 117t161 27t147 -37v-273q-66 -18 -130 -22t-126.5 8t-98.5 58.5t-32 121.5zM528 1216.5q0 47.5 32 80t81 32.5q47 0 80 -32.5t33 -80t-33 -80t-80 -32.5q-49 0 -81 32.5t-32 80z" />
<glyph unicode="&#xe5;" horiz-adv-x="1034" d="M49 354q0 -129 56.5 -215t145.5 -122.5t201.5 -42t221 14t209.5 56.5v680q0 168 -124 259t-294 91q-233 0 -385 -168l131 -121q63 70 162.5 89.5t183.5 -22.5t100 -134v-66q-88 39 -192.5 42t-197.5 -27.5t-155.5 -112.5t-62.5 -201zM270 354q4 82 79 117t161 27t147 -37 v-273q-66 -18 -130 -22t-126.5 8t-98.5 58.5t-32 121.5zM299 1278q0 68 54.5 118t129.5 50q74 0 126.5 -51.5t52.5 -119t-52.5 -118.5t-126.5 -51q-76 0 -130 50t-54 122zM424 1275.5q0 -20.5 17.5 -35.5t40 -15t39 14t16.5 37q0 20 -16.5 36.5t-39 16.5t-40 -16.5 t-17.5 -37z" />
<glyph unicode="&#xe6;" horiz-adv-x="1609" d="M53 350q0 184 124 269.5t312 85.5q94 0 173 -35v53q0 92 -85 129t-189.5 9.5t-162.5 -97.5l-123 125q90 113 225.5 160t260.5 13t188 -142q72 102 197 138t238.5 6t198.5 -125t85 -228v-283h-608v-86q0 -94 84 -134t183 -14.5t142 99.5l166 -92q-68 -106 -170 -162.5 t-213 -56.5q-199 0 -284 110q-111 -111 -324 -110q-174 0 -296 94t-122 274zM279 350q2 -74 58 -114.5t136 -40.5q137 0 213 38q-16 57 -16 113v135q-102 29 -187 29q-88 0 -145 -38t-59 -122zM887 616h385v97q0 66 -57.5 102.5t-135.5 36.5t-135 -35t-57 -98v-103z" />
<glyph unicode="&#xe7;" horiz-adv-x="927" d="M53 350v359q0 174 124 269t294 95q139 0 255 -68.5t157 -209.5l-205 -78q-27 94 -120 124.5t-181 -8t-98 -122.5v-363q10 -84 98 -123t181 -8t120 125l209 -78q-33 -115 -119 -181.5t-199 -86.5l-12 -27q49 -16 81 -54t30 -83q-4 -78 -67.5 -122t-143.5 -44 q-68 0 -195 51l45 109l146 -23q23 0 34 15q8 14 0 27.5t-48 27.5t-109 21l61 98q-143 20 -240.5 112t-97.5 246z" />
<glyph unicode="&#xe8;" horiz-adv-x="1009" d="M61 342q0 -172 125 -268.5t295 -96.5q111 0 216.5 57t164.5 161l-188 108q-41 -84 -136.5 -107.5t-173 19.5t-75.5 127v84h606v289q0 174 -123 269t-291 95q-172 0 -296 -95t-124 -269v-373zM188 1370h277l145 -240h-221zM289 612v103q-2 57 37 97t96 49t115.5 1 t99.5 -47t41 -96v-107h-389z" />
<glyph unicode="&#xe9;" horiz-adv-x="1009" d="M61 342v373q0 174 124 269t296 95q168 0 291 -95t123 -269v-289h-606v-84q-2 -84 75.5 -127t173 -19.5t136.5 107.5l188 -108q-59 -104 -164.5 -161t-216.5 -57q-170 0 -295 96.5t-125 268.5zM289 612h389v107q0 57 -41 96t-99.5 47t-115.5 -1t-96 -49t-37 -97v-103z M367 1124l145 240h276l-200 -240h-221z" />
<glyph unicode="&#xea;" horiz-adv-x="1009" d="M61 342q0 -172 125 -268.5t295 -96.5q111 0 216.5 57t164.5 161l-188 108q-41 -84 -136.5 -107.5t-173 19.5t-75.5 127v84h606v289q0 174 -123 269t-291 95q-172 0 -296 -95t-124 -269v-373zM182 1112l230 242h135l231 -242h-213l-86 86l-82 -86h-215zM289 612v103 q-2 57 37 97t96 49t115.5 1t99.5 -47t41 -96v-107h-389z" />
<glyph unicode="&#xeb;" horiz-adv-x="1009" d="M61 342q0 -172 125 -268.5t295 -96.5q111 0 216.5 57t164.5 161l-188 108q-41 -84 -136.5 -107.5t-173 19.5t-75.5 127v84h606v289q0 174 -123 269t-291 95q-172 0 -296 -95t-124 -269v-373zM195 1214q0 47 32.5 80t79.5 33t81 -32.5t34 -80.5q0 -45 -34 -76.5t-81 -31.5 t-79.5 31.5t-32.5 76.5zM289 612v103q-2 57 37 97t96 49t115.5 1t99.5 -47t41 -96v-107h-389zM539 1214.5q0 47.5 32.5 80t81.5 32.5t82 -32.5t33 -80t-33 -78t-82 -30.5t-81.5 30.5t-32.5 78z" />
<glyph unicode="&#xec;" horiz-adv-x="491" d="M-76 1282h277l145 -240h-221zM109 0v991h233v-991h-233z" />
<glyph unicode="&#xed;" horiz-adv-x="505" d="M113 1042l145 240h277l-201 -240h-221zM117 0v991h233v-991h-233z" />
<glyph unicode="&#xee;" horiz-adv-x="491" d="M-78 1042l234 256h139l233 -256h-221l-86 86q-8 -8 -36.5 -40.5t-41.5 -45.5h-221zM113 0v991h233v-991h-233z" />
<glyph unicode="&#xef;" horiz-adv-x="503" d="M-53 1174q0 53 35.5 89.5t89.5 36.5q55 0 92 -36.5t37 -89.5q0 -55 -37 -91t-92 -36q-53 0 -89 36t-36 91zM115 0v987h233v-987h-233zM260 1173.5q0 55.5 36 91t93 35.5q53 0 89 -36.5t36 -89.5q0 -55 -36 -91t-89 -36q-57 0 -93 35.5t-36 91z" />
<glyph unicode="&#xf0;" horiz-adv-x="1075" d="M94 350v277q0 117 63.5 196.5t157 108.5t196.5 22.5t185 -47.5v154q0 72 -59 106l-45 -125l-158 45l39 109q-96 0 -174 -66l-133 154q80 70 184.5 106.5t194.5 20.5l39 119l155 -43l-37 -105q102 -35 160 -118.5t58 -202.5v-998q-262 -76 -420 -75q-164 2 -285 97 t-121 265zM317 334q0 -66 55.5 -105t127.5 -39q115 0 196 29v494q-61 43 -150 54t-159 -24.5t-70 -115.5v-293z" />
<glyph unicode="&#xf1;" horiz-adv-x="1081" d="M96 0h226v829q59 37 146 39t158.5 -42t75.5 -128v-698h224v700q0 150 -87 243t-215 117.5t-270.5 6t-257.5 -75.5v-991zM229 1182q20 92 73.5 141t119.5 45q25 2 86 -25q20 -14 31.5 -20t27 -8t26.5 10t21 37l134 -47q-43 -186 -187 -182q-31 4 -96 32q-29 14 -46.5 17.5 t-33 -9t-29.5 -43.5z" />
<glyph unicode="&#xf2;" horiz-adv-x="1028" d="M68 348q0 -174 123.5 -269t295.5 -97q168 2 292 97t124 269v371q0 172 -124 268t-292 98q-170 -2 -294.5 -98t-124.5 -268v-371zM188 1370h277l145 -235h-221zM293 348v371q0 70 58 108.5t136 38.5q74 0 132.5 -39t58.5 -108v-371q0 -72 -59.5 -115t-131.5 -43 q-76 0 -135 43t-59 115z" />
<glyph unicode="&#xf3;" horiz-adv-x="1028" d="M68 348v371q0 172 124.5 268t294.5 98q168 -2 292 -98t124 -268v-371q0 -174 -124 -269t-292 -97q-172 2 -295.5 97t-123.5 269zM293 348q0 -72 59.5 -115t134.5 -43q72 0 131.5 43t59.5 115v371q0 70 -58.5 108.5t-132.5 38.5q-78 0 -136 -39t-58 -108v-371zM377 1139 l145 235h277l-201 -235h-221z" />
<glyph unicode="&#xf4;" horiz-adv-x="1028" d="M68 348q0 -174 123.5 -269t295.5 -97q168 2 292 97t124 269v371q0 172 -124 268t-292 98q-170 -2 -294.5 -98t-124.5 -268v-371zM190 1126l230 242h135l231 -242h-213l-86 86l-81 -86h-216zM293 348v371q0 70 58 108.5t136 38.5q74 0 132.5 -39t58.5 -108v-371 q0 -72 -59.5 -115t-131.5 -43q-76 0 -135 43t-59 115z" />
<glyph unicode="&#xf5;" horiz-adv-x="1028" d="M68 348q0 -174 123.5 -269t295.5 -97q168 2 292 97t124 269v371q0 172 -124 268t-292 98q-170 -2 -294.5 -98t-124.5 -268v-371zM215 1202q37 117 120 156t171 -15q31 -27 59.5 -25.5t50.5 48.5l129 -55q-51 -186 -198 -172q-33 0 -94 35q-35 25 -61.5 19.5t-49.5 -52.5z M293 348v371q0 70 58 108.5t136 38.5q74 0 132.5 -39t58.5 -108v-371q0 -72 -59.5 -115t-131.5 -43q-76 0 -135 43t-59 115z" />
<glyph unicode="&#xf6;" horiz-adv-x="1028" d="M68 348q0 -174 123.5 -269t295.5 -97q168 2 292 97t124 269v371q0 172 -124 268t-292 98q-170 -2 -294.5 -98t-124.5 -268v-371zM205 1235q0 47 32.5 80t80 33t79 -33t31.5 -80t-31.5 -80t-79 -33t-80 33t-32.5 80zM293 348v371q0 70 58 108.5t136 38.5q74 0 132.5 -39 t58.5 -108v-371q0 -72 -59.5 -115t-131.5 -43q-76 0 -135 43t-59 115zM545 1235q0 47 31.5 80t80.5 33q47 0 80 -33t33 -80t-32.5 -80t-80.5 -33q-49 0 -80.5 33t-31.5 80z" />
<glyph unicode="&#xf7;" horiz-adv-x="1093" d="M66 555v231h907v-231h-907zM365 999.5q0 63.5 45 107.5t108.5 44t109.5 -44t46 -107.5t-46 -109.5t-109.5 -46t-108.5 46t-45 109.5zM373 340q0 66 45 107.5t108 44.5q66 0 111 -44.5t45 -107.5q0 -66 -45 -111t-108.5 -45t-109.5 45t-46 111z" />
<glyph unicode="&#xf8;" horiz-adv-x="1032" d="M68 317v402q0 172 124.5 268t294.5 98q63 -4 97 -10l59 144l182 -66l-63 -149q141 -70 141 -269v-387q0 -174 -124 -269t-294 -97q-74 4 -108 10q-10 -23 -29.5 -71t-25.5 -60l-179 76l58 131q-133 65 -133 249zM293 279l207 581h-13q-80 0 -137 -36t-57 -105v-440z M465 205h22q74 0 132.5 37t58.5 106v434z" />
<glyph unicode="&#xf9;" horiz-adv-x="1048" d="M84 348q0 -150 80 -241t205 -113.5t268 -3.5t278 78v993h-223v-850q-49 -27 -114.5 -34t-124 6.5t-100.5 55.5t-44 105v717h-225v-713zM199 1337h276l146 -239h-222z" />
<glyph unicode="&#xfa;" horiz-adv-x="1048" d="M84 348v713h225v-717q2 -63 44 -105t100.5 -55.5t124 -6.5t114.5 34v850h223v-993q-135 -59 -278 -78t-268 3.5t-205 114t-80 240.5zM373 1098l145 239h277l-201 -239h-221z" />
<glyph unicode="&#xfb;" horiz-adv-x="1048" d="M84 348q0 -150 80 -241t205 -113.5t268 -3.5t278 78v993h-223v-850q-49 -27 -114.5 -34t-124 6.5t-100.5 55.5t-44 105v717h-225v-713zM203 1122l229 242h135l232 -242h-213l-86 86l-82 -86h-215z" />
<glyph unicode="&#xfc;" horiz-adv-x="1048" d="M84 348q0 -150 80 -241t205 -113.5t268 -3.5t278 78v993h-223v-850q-49 -27 -114.5 -34t-124 6.5t-100.5 55.5t-44 105v717h-225v-713zM217 1239q0 47 33 81t80 34t79.5 -34t32.5 -81t-32.5 -80t-79.5 -33t-80 33t-33 80zM561 1239q0 49 32 82t81 33t81.5 -34t32.5 -81 t-32.5 -80t-81.5 -33t-81 33t-32 80z" />
<glyph unicode="&#xfd;" horiz-adv-x="1060" d="M74 350v711h225v-713q4 -82 81 -123t169 -34.5t149 47.5v823h224v-1061q0 -113 -49.5 -198t-126 -128t-173 -57t-188.5 3.5t-173 66.5t-128 120l135 130q63 -84 180 -119t212.5 15t95.5 187q-98 -45 -210 -37.5t-205 45.5t-155.5 124t-62.5 198zM391 1098l146 239h276 l-201 -239h-221z" />
<glyph unicode="&#xfe;" horiz-adv-x="1067" d="M94 -354v1757h225v-387q96 41 203 41t197 -36t150.5 -122t60.5 -205v-346q2 -109 -60.5 -193.5t-154.5 -126.5t-200.5 -43t-195.5 50v-389h-225zM319 227q63 -39 150.5 -47t159 35t76.5 133v361q-4 86 -77 124.5t-159.5 31.5t-149.5 -42v-596z" />
<glyph unicode="&#xff;" horiz-adv-x="1060" d="M74 350v711h225v-713q4 -82 81 -123t169 -34.5t149 47.5v823h224v-1061q0 -113 -49.5 -198t-126 -128t-173 -57t-188.5 3.5t-173 66.5t-128 120l135 130q63 -84 180 -114t212.5 21.5t95.5 175.5q-98 -45 -210 -37.5t-205 45.5t-155.5 124t-62.5 198zM182 1245q0 51 35 87 t86 36t86 -36t35 -87q0 -49 -35 -84t-86 -35t-86 35t-35 84zM571 1245q0 53 35 88t86 35t86 -35t35 -88q0 -49 -35 -84t-86 -35t-86 35t-35 84z" />
<glyph unicode="&#x131;" horiz-adv-x="471" d="M102 0v1059h232v-1059h-232z" />
<glyph unicode="&#x152;" horiz-adv-x="1918" d="M90 406v624q-4 133 77 236.5t199.5 149.5t258 41t245.5 -71v62h945v-238h-719v-370h661v-236h-661v-368h719v-238h-945v45q-119 -57 -257 -60t-254.5 41t-193.5 144t-75 238zM326 410q0 -109 99 -158t249 -49q104 0 196 69v879q-74 74 -206 88t-236 -44t-102 -167v-618z " />
<glyph unicode="&#x153;" horiz-adv-x="1622" d="M70 350v363q0 133 86 228t201.5 124t238.5 -7t190 -138q70 104 194 141t239.5 6t200.5 -125t85 -227v-281h-612v-84q0 -61 51 -101t116.5 -47t133 20.5t98.5 84.5l170 -119q-72 -117 -202 -173t-265 -27.5t-213 141.5q-102 -129 -273 -144.5t-305 87t-134 278.5zM293 350 q0 -68 57.5 -103.5t133 -35.5t134 37t58.5 102v365q0 68 -58.5 102.5t-134.5 34.5q-78 0 -134 -35t-56 -104v-363zM893 614h391v103q0 53 -40 90t-97 46t-115.5 1t-98.5 -45t-40 -92v-103z" />
<glyph unicode="&#x178;" horiz-adv-x="1085" d="M-98 1450h270l352 -639q57 113 176 326t170 313h277l-506 -879v-571h-238v571zM178 1628.5q0 59.5 40 100t99.5 40.5t99.5 -40.5t40 -100t-40 -99.5t-99.5 -40t-99.5 40t-40 99.5zM592 1628.5q0 59.5 40 100t99.5 40.5t100 -40.5t40.5 -100t-40.5 -99.5t-100 -40 t-99.5 40t-40 99.5z" />
<glyph unicode="&#x192;" horiz-adv-x="1038" d="M-6 -225l65 182q57 -23 104.5 -2.5t63.5 104.5l115 603h-182v219h221l49 266q25 137 100.5 228t221.5 91q84 0 166 -45l-87 -180q-66 35 -112.5 0t-56.5 -108v2l-48 -254h185v-219h-221l-121 -650q-53 -274 -322 -274q-69 0 -141 37z" />
<glyph unicode="&#x2c6;" horiz-adv-x="802" d="M0 1112l307 338h180l308 -338h-283l-117 119l-108 -119h-287z" />
<glyph unicode="&#x2c7;" horiz-adv-x="591" d="M-164 1442h291l115 -111l110 111h293l-313 -328h-180z" />
<glyph unicode="&#x2d8;" horiz-adv-x="516" d="M-39 1448h205q0 -49 40 -70.5t80 -1t40 71.5h211q0 -106 -59.5 -182t-143.5 -95.5t-169 -3t-144.5 91t-59.5 189.5z" />
<glyph unicode="&#x2d9;" horiz-adv-x="491" d="M82 1243.5q0 65.5 45 109.5t110.5 44t109.5 -44t44 -109.5t-44 -111t-109.5 -45.5t-110.5 45.5t-45 111z" />
<glyph unicode="&#x2da;" horiz-adv-x="491" d="M0 1237q0 94 68.5 162.5t164.5 68.5q94 0 161 -70.5t67 -162.5t-66.5 -161.5t-161.5 -69.5q-96 0 -164.5 68.5t-68.5 164.5zM158 1235q0 -27 22.5 -48.5t51 -21.5t49 19.5t20.5 50.5q0 29 -20.5 50.5t-49 21.5t-51 -21.5t-22.5 -50.5z" />
<glyph unicode="&#x2db;" horiz-adv-x="491" d="M-25 -166q0 78 47 137.5t119 96.5l199 -9q-94 -57 -113 -137q-14 -63 35 -67q35 -4 88 28l82 -151q-119 -104 -231 -105q-100 0 -163 54.5t-63 152.5z" />
<glyph unicode="&#x2dc;" horiz-adv-x="555" d="M-35 1176q20 106 78.5 163.5t132.5 57.5q37 0 98 -29q27 -14 39.5 -19.5t30.5 -7.5t29.5 12.5t21.5 43.5l152 -49q-20 -109 -74.5 -161t-128.5 -52q-37 0 -111 30q-45 27 -72.5 17.5t-47.5 -62.5z" />
<glyph unicode="&#x2dd;" horiz-adv-x="870" d="M10 1071l158 379h295l-236 -379h-217zM397 1071l154 379h297l-232 -379h-219z" />
<glyph unicode="&#x3a9;" horiz-adv-x="1564" d="M43 0v227h223q-211 240 -211 543q0 150 48.5 273.5t129 202.5t186 134.5t221.5 65.5t232.5 -2t222 -68.5t186.5 -135.5t129 -198.5t48 -263.5q0 -283 -215 -551h217v-227h-629v170q168 94 280 255t112 353q0 121 -51.5 218.5t-133.5 149.5t-180 77.5t-197.5 3 t-181.5 -73.5t-133 -152.5t-51 -234.5q0 -178 106.5 -334t276.5 -264v-168h-635z" />
<glyph unicode="&#x3c0;" horiz-adv-x="1110" d="M-35 991q47 31 71.5 43.5t77 25.5t115.5 13h818l-21 -219h-137v-530q0 -57 20.5 -81t77.5 -22l2 -227q-182 8 -254.5 88t-72.5 231v541h-254v-854h-224v852q-61 -4 -172 -41z" />
<glyph unicode="&#x2000;" horiz-adv-x="975" />
<glyph unicode="&#x2001;" horiz-adv-x="1950" />
<glyph unicode="&#x2002;" horiz-adv-x="975" />
<glyph unicode="&#x2003;" horiz-adv-x="1950" />
<glyph unicode="&#x2004;" horiz-adv-x="650" />
<glyph unicode="&#x2005;" horiz-adv-x="487" />
<glyph unicode="&#x2006;" horiz-adv-x="325" />
<glyph unicode="&#x2007;" horiz-adv-x="325" />
<glyph unicode="&#x2008;" horiz-adv-x="243" />
<glyph unicode="&#x2009;" horiz-adv-x="390" />
<glyph unicode="&#x200a;" horiz-adv-x="108" />
<glyph unicode="&#x2010;" horiz-adv-x="706" d="M49 489v230h569v-230h-569z" />
<glyph unicode="&#x2011;" horiz-adv-x="706" d="M49 489v230h569v-230h-569z" />
<glyph unicode="&#x2012;" horiz-adv-x="706" d="M49 489v230h569v-230h-569z" />
<glyph unicode="&#x2013;" horiz-adv-x="1083" d="M35 489v228h964v-228h-964z" />
<glyph unicode="&#x2014;" horiz-adv-x="1939" d="M63 489v228h1747v-228h-1747z" />
<glyph unicode="&#x2018;" horiz-adv-x="481" d="M35 911l176 537h235l-153 -537h-258z" />
<glyph unicode="&#x2019;" horiz-adv-x="489" d="M39 913l149 537h263l-181 -537h-231z" />
<glyph unicode="&#x201a;" horiz-adv-x="518" d="M18 -250l148 510h266l-186 -510h-228z" />
<glyph unicode="&#x201c;" horiz-adv-x="843" d="M43 907l178 537h232l-148 -537h-262zM393 907l180 537h230l-148 -537h-262z" />
<glyph unicode="&#x201d;" horiz-adv-x="866" d="M57 911l150 537h262l-180 -537h-232zM401 911l148 537h262l-178 -537h-232z" />
<glyph unicode="&#x201e;" horiz-adv-x="1005" d="M96 -250l150 502h264l-184 -502h-230zM459 -250l151 502h262l-182 -502h-231z" />
<glyph unicode="&#x2020;" horiz-adv-x="1038" d="M25 834v219h348v399h229v-399h348v-219h-348v-1063h-229v1063h-348z" />
<glyph unicode="&#x2021;" horiz-adv-x="1038" d="M25 166v217h348v451h-348v217h348v399h229v-399h348v-217h-348v-451h348v-217h-348v-395h-229v395h-348z" />
<glyph unicode="&#x2022;" horiz-adv-x="876" d="M100 702q0 127 88 215.5t215 88.5q125 0 213.5 -88.5t88.5 -215.5t-88.5 -216t-213.5 -89q-127 0 -215 89t-88 216z" />
<glyph unicode="&#x2026;" horiz-adv-x="1339" d="M137 137.5q0 63.5 43 106.5t106.5 43t106.5 -43t43 -106.5t-43 -106.5t-106.5 -43t-106.5 43t-43 106.5zM516 137.5q0 63.5 42 106.5t105.5 43t106.5 -43t43 -106.5t-43 -106.5t-106.5 -43t-105.5 43t-42 106.5zM893 137.5q0 63.5 42 106.5t105.5 43t106.5 -43t43 -106.5 t-43 -106.5t-106.5 -43t-105.5 43t-42 106.5z" />
<glyph unicode="&#x202f;" horiz-adv-x="390" />
<glyph unicode="&#x2030;" horiz-adv-x="2236" d="M61 1075q0 168 84 268.5t217 100.5q143 0 223.5 -97.5t80.5 -275.5q0 -172 -85 -273.5t-219 -101.5q-143 0 -222 98.5t-79 280.5zM154 -29l1001 1532l188 -121l-1003 -1532zM240 1075q0 -201 118 -201q125 0 125 197q0 199 -127 199q-117 0 -116 -195zM889 371 q0 168 84 268t217 100q143 0 223 -97t80 -275q0 -172 -85 -273.5t-218 -101.5q-143 0 -222 98t-79 281zM1067 373q0 -201 119 -201q125 0 125 197q0 199 -127 198q-117 0 -117 -194zM1569 371q0 168 84 268t217 100q143 0 223 -97t80 -275q0 -172 -85 -273.5t-218 -101.5 q-143 0 -222 98t-79 281zM1747 373q0 -201 119 -201q125 0 125 197q0 199 -127 198q-117 0 -117 -194z" />
<glyph unicode="&#x2039;" horiz-adv-x="577" d="M35 596l303 451l194 -117l-229 -334l229 -336l-194 -115z" />
<glyph unicode="&#x203a;" horiz-adv-x="589" d="M39 260l229 336l-225 334l195 117l301 -451l-301 -451z" />
<glyph unicode="&#x2044;" horiz-adv-x="425" d="M-281 31l891 1458l187 -113l-891 -1460z" />
<glyph unicode="&#x205f;" horiz-adv-x="487" />
<glyph unicode="&#x20ac;" horiz-adv-x="1183" d="M-10 502l37 178h100v90h-121l33 166h88v76q0 213 149.5 334.5t352.5 121.5q150 0 284 -84t207 -239l-207 -105q-47 94 -124.5 144.5t-159.5 50.5q-111 0 -193 -59.5t-82 -163.5v-76h504l-33 -166h-465v-90h494l-33 -178h-467v-68q0 -104 81 -163.5t190 -59.5 q86 0 163.5 50t124.5 145l207 -101q-76 -158 -210 -240.5t-285 -82.5q-205 0 -351.5 118.5t-146.5 333.5v68h-137z" />
<glyph unicode="&#x2122;" horiz-adv-x="1697" d="M43 1210v211h641v-211h-213v-616h-217v616h-211zM774 594v827h195l207 -415q59 131 128.5 260t81.5 155h189v-827h-217l14 371l-137 -256h-109l-147 262l12 -377h-217z" />
<glyph unicode="&#x2202;" horiz-adv-x="1001" d="M27 442q-6 158 66.5 283t178 180.5t226 41t204.5 -110.5q4 123 -35.5 224t-108.5 152.5t-157 58.5t-178 -54l-92 172q139 88 291 88q205 0 352.5 -178.5t147.5 -528.5t-136.5 -567t-377.5 -217q-180 0 -277.5 132t-103.5 324zM254 446q0 -109 43 -173t113 -64h2 q98 -20 184 112t92 308q-16 45 -83.5 74.5t-147.5 29.5q-82 0 -142.5 -85t-60.5 -202z" />
<glyph unicode="&#x2206;" horiz-adv-x="1208" d="M31 0v150l452 1286h205l451 -1284v-152h-1108zM287 225h581l-286 897q-49 -141 -147.5 -449.5t-147.5 -447.5z" />
<glyph unicode="&#x220f;" horiz-adv-x="1335" d="M25 1229v223h1208v-223h-189v-1354h-227v1354h-381v-1354h-227v1354h-184z" />
<glyph unicode="&#x2211;" horiz-adv-x="1067" d="M8 -4l471 622l-448 627v158h936v-219h-613q74 -109 218.5 -312.5t175.5 -246.5l-422 -568h669v-215h-987v154z" />
<glyph unicode="&#x221a;" horiz-adv-x="1103" d="M14 705l344 131l207 -746l279 1548h235l-403 -1917h-195l-266 824q-4 0 -12 -4q-25 -10 -113 -39z" />
<glyph unicode="&#x221e;" horiz-adv-x="1464" d="M66 584q0 147 95 243.5t240 96.5q162 0 316 -172q80 84 152.5 128t168.5 44q141 -2 229.5 -94.5t88.5 -237.5v-2q0 -147 -99.5 -241.5t-232.5 -94.5q-84 0 -154.5 40t-156.5 128q-76 -82 -151 -125t-173 -43q-135 0 -229 95t-94 235zM272 584q0 -55 34 -91t89 -36h2 q68 0 195 131q-117 133 -211 133q-51 0 -80 -40t-29 -97zM836 592q129 -139 198 -139q57 0 89 38.5t32 92.5q0 66 -34 103.5t-89 37.5q-72 0 -196 -133z" />
<glyph unicode="&#x222b;" horiz-adv-x="690" d="M-37 -231l51 170q201 -86 201 100q0 147 -12 668q-10 614 -10 647q0 160 79.5 248t194.5 88q79 0 188 -70l-47 -139q-104 39 -148 4t-44 -142l8 -479l4 -166q10 -410 10 -661q0 -156 -83 -239t-205 -83q-68 0 -187 54z" />
<glyph unicode="&#x2248;" horiz-adv-x="999" d="M76 424q98 160 231 166q47 2 117 -26.5t121 -54.5t106 -17.5t90 71.5l140 -119q-94 -154 -217 -165q-82 -6 -230 63q-82 41 -119 37q-55 -4 -108 -68zM76 750q98 160 231 165q47 2 117 -26.5t121 -54t106 -17t90 71.5l140 -119q-94 -154 -217 -166q-82 -6 -230 64 q-82 41 -119 37q-55 -4 -108 -68z" />
<glyph unicode="&#x2260;" horiz-adv-x="1064" d="M49 295v219h301l53 129h-354v217h447l86 201l190 -76l-53 -125h235v-217h-323l-58 -129h381v-219h-475l-90 -209l-182 90l49 119h-207z" />
<glyph unicode="&#x2264;" horiz-adv-x="956" d="M51 51v219h809v-219h-809zM61 735v142l760 403v-240l-454 -235q74 -37 227.5 -115t226.5 -115v-237z" />
<glyph unicode="&#x2265;" horiz-adv-x="970" d="M51 41v219h809v-219h-809zM90 328v237q74 37 227.5 115t227.5 115l-455 235v240l760 -404v-141z" />
<glyph unicode="&#x25ca;" horiz-adv-x="1118" d="M4 705l430 761h178l424 -759l-430 -764h-180zM256 709l264 -494l262 490l-266 507z" />
<glyph unicode="&#x25fc;" horiz-adv-x="1064" d="M0 0v1065h1065v-1065h-1065z" />
</font>
</defs>
</svg>
