<?xml version="1.0" standalone="no"?>
<!DOCTYPE svg PUBLIC "-//W3C//DTD SVG 1.1//EN" "http://www.w3.org/Graphics/SVG/1.1/DTD/svg11.dtd" >
<svg xmlns="http://www.w3.org/2000/svg" xmlns:xlink="http://www.w3.org/1999/xlink" version="1.1">
<metadata></metadata>
<defs>
<font id="uni_sans_regularregular" horiz-adv-x="1034" >
<font-face units-per-em="2048" ascent="1548" descent="-500" />
<missing-glyph horiz-adv-x="532" />
<glyph unicode="&#xfb01;" horiz-adv-x="1011" d="M102 0v1106q0 170 111 261t285 93v-160q-111 0 -171.5 -51t-60.5 -143v-197h217v-164h-217v-745h-164zM645 1329q0 49 34 82t81 33q49 0 81.5 -33t32.5 -82q0 -47 -32.5 -81t-81.5 -34q-47 0 -81 34t-34 81zM682 0v1067h164v-1067h-164z" />
<glyph unicode="&#xfb02;" horiz-adv-x="1069" d="M104 0v1106q0 170 111 261t285 93v-160q-111 0 -171.5 -51t-60.5 -143v-197h217v-164h-217v-745h-164zM672 338v1094h164v-1094q-1 -182 196 -182v-164q-172 0 -266 91t-94 255z" />
<glyph horiz-adv-x="0" />
<glyph unicode="&#xd;" horiz-adv-x="681" />
<glyph unicode=" "  horiz-adv-x="532" />
<glyph unicode="&#x09;" horiz-adv-x="532" />
<glyph unicode="&#xa0;" horiz-adv-x="532" />
<glyph unicode="!" horiz-adv-x="600" d="M168 108.5q0 51.5 35 86t86 34.5t86 -34.5t35 -86t-35 -86t-86 -34.5t-86 34.5t-35 86zM205 360v1070h168v-1070h-168z" />
<glyph unicode="&#x22;" horiz-adv-x="712" d="M117 932v498h174l-37 -498h-137zM385 932v498h174l-39 -498h-135z" />
<glyph unicode="#" horiz-adv-x="1464" d="M23 432l34 162h318q10 37 36.5 119t41.5 137h-351l35 164h365l121 413h178l-123 -413h256l123 413h178l-125 -413h309l-45 -164h-313l-74 -256h348l-37 -162h-362q-18 -63 -62.5 -210.5t-64.5 -223.5h-176l127 434h-258q-20 -78 -64.5 -226.5t-60.5 -207.5h-178l127 434 h-303zM553 594h254q66 211 78 256h-256q-10 -33 -36 -117t-40 -139z" />
<glyph unicode="$" horiz-adv-x="1165" d="M27 285l155 69q37 -86 117 -138t182 -66v524q-102 23 -165.5 45t-132 65t-100.5 117t-26 176v-2q6 166 125 263.5t299 117.5v199h150v-199q150 -14 273.5 -92t178.5 -207l-153 -70q-39 86 -119 138.5t-180 62.5v-475q104 -20 172.5 -45t141.5 -73t105.5 -130t26.5 -198 q-10 -168 -137 -270.5t-309 -116.5v-201h-150v201q-152 16 -275.5 94t-178.5 211zM225 1067q-8 -98 57.5 -145.5t198.5 -77.5v442q-106 -14 -178 -71.5t-78 -147.5zM631 150q111 14 188.5 73.5t89.5 151.5q2 113 -70.5 173t-207.5 93v-491z" />
<glyph unicode="%" horiz-adv-x="1572" d="M45 1051q0 178 87 285.5t226 107.5q147 0 231.5 -104.5t84.5 -292.5q0 -182 -88 -290t-228 -108q-150 0 -231.5 103.5t-81.5 298.5zM201 -57l997 1579l137 -88l-999 -1579zM213 1051q0 -123 36 -178.5t109 -55.5q148 1 148 230q0 233 -150 233q-143 0 -143 -229zM899 381 q0 180 87 286.5t226 106.5q147 0 230.5 -104.5t83.5 -292.5q0 -182 -87 -288.5t-227 -106.5q-152 0 -232.5 102t-80.5 297zM1065 381q0 -123 36 -178.5t111 -55.5q148 1 148 230q0 236 -150 235q-145 0 -145 -231z" />
<glyph unicode="&#x26;" horiz-adv-x="1288" d="M88 406q0 76 22.5 136t69.5 109t89 80t112 74q-150 174 -150 311q0 150 109 240t258 90q135 0 234.5 -87t99.5 -222q0 -131 -75 -210t-212 -153l283 -299q16 27 53 88.5t51 87.5l144 -71l-132 -220l240 -276h-219l-119 131q-88 -111 -187.5 -167t-232.5 -56 q-186 0 -312 113.5t-126 300.5zM258 410q0 -115 83 -186.5t204 -71.5q158 0 293 180l-351 362q-104 -63 -166.5 -129.5t-62.5 -154.5zM403 1118q0 -88 132 -237q47 25 79.5 44t70.5 51t57.5 69.5t19.5 82.5q0 72 -48 118t-122 46q-80 0 -134.5 -49t-54.5 -125z" />
<glyph unicode="'" horiz-adv-x="415" d="M111 932v498h172l-27 -498h-145z" />
<glyph unicode="(" horiz-adv-x="563" d="M94 690q0 233 77 469.5t214 429.5l139 -92q-127 -164 -194.5 -382t-67.5 -425q0 -391 264 -813l-133 -86q-143 199 -221 435.5t-78 463.5z" />
<glyph unicode=")" horiz-adv-x="532" d="M-12 -178q129 162 197.5 381t68.5 426q0 436 -262 850l133 88q141 -197 221 -452t80 -486.5t-77 -467.5t-216 -431z" />
<glyph unicode="*" horiz-adv-x="858" d="M20 1096l41 141l281 -90v283h145v-285l271 88l43 -143l-269 -84l170 -232l-114 -88l-174 236l-170 -238l-123 88l174 236z" />
<glyph unicode="+" horiz-adv-x="1271" d="M98 606v168h449v436h166v-436h430v-168h-430v-440h-166v440h-449z" />
<glyph unicode="," horiz-adv-x="503" d="M51 -268l144 497h192l-168 -497h-168z" />
<glyph unicode="-" horiz-adv-x="681" d="M66 526v168h534v-168h-534z" />
<glyph unicode="." horiz-adv-x="475" d="M119 108.5q0 51.5 34.5 86t86 34.5t86 -34.5t34.5 -86t-34.5 -86t-86 -34.5t-86 34.5t-34.5 86z" />
<glyph unicode="/" horiz-adv-x="757" d="M-8 -23l610 1530l152 -53l-609 -1532z" />
<glyph unicode="0" horiz-adv-x="1230" d="M78 406v626q0 139 81 239.5t196.5 143.5t246.5 43t246 -43t195.5 -143.5t80.5 -239.5v-626q0 -205 -157.5 -315.5t-364.5 -110.5q-131 0 -246.5 44t-196.5 143t-81 239zM248 406q0 -90 56 -151.5t133 -84.5t165 -23t165 23t133 84t56 152v626q0 133 -105.5 195.5 t-248.5 62.5t-248.5 -62.5t-105.5 -195.5v-626z" />
<glyph unicode="1" horiz-adv-x="665" d="M6 1071l342 361h156v-1432h-166v1188l-205 -219z" />
<glyph unicode="2" horiz-adv-x="1128" d="M37 125l698 661q131 125 131 254q0 102 -86 171t-227 75q-121 2 -217 -55t-141 -156l-152 64q63 150 203.5 233.5t310.5 79.5q213 -8 346 -127t133 -287q0 -86 -48 -185t-130 -183l-526 -500h704v-168h-946z" />
<glyph unicode="3" horiz-adv-x="1183" d="M14 274l154 74q45 -94 148.5 -145t222.5 -51q145 0 248.5 68.5t103.5 195.5q0 143 -83 214.5t-233 69.5h-141v148h141q115 0 183.5 52t68.5 161q0 111 -82.5 170t-203.5 59q-100 0 -189.5 -45t-134.5 -127l-145 76q61 123 188 191.5t270 68.5q190 0 326.5 -103.5 t136.5 -289.5q0 -203 -166 -279q115 -39 173.5 -140t58.5 -228q-2 -139 -80 -240.5t-194.5 -147.5t-252.5 -46q-164 0 -307 76.5t-211 217.5z" />
<glyph unicode="4" horiz-adv-x="1101" d="M2 510l762 922h176v-916h115v-156h-115v-356h-168v356h-659zM219 516h553l4 678q-86 -106 -270 -328.5t-287 -349.5z" />
<glyph unicode="5" horiz-adv-x="1196" d="M45 274l154 74q45 -90 143 -140t211 -50q145 0 251.5 71.5t106.5 202.5v84q0 129 -99 193.5t-249 64.5q-182 0 -366 -86l-95 -4v746h906v-168h-738v-371q152 57 293 55q133 -2 246 -44t190.5 -141t79.5 -243v-88q-2 -211 -159.5 -328.5t-370.5 -117.5q-160 0 -298 75.5 t-206 214.5z" />
<glyph unicode="6" horiz-adv-x="1265" d="M92 412v608q0 203 160 316.5t379 111.5q162 0 299 -74t205 -209l-127 -63l-39 12q-39 82 -130 124t-208 42q-152 0 -260.5 -68.5t-108.5 -193.5v-258q63 84 165.5 124t203.5 40q217 -2 372.5 -115t155.5 -313v-84q0 -201 -155.5 -314.5t-372.5 -113.5q-139 -2 -259 45 t-199 146t-81 237zM262 414q0 -125 108.5 -193.5t260.5 -68.5q147 0 252.5 68.5t105.5 193.5v80q0 125 -105.5 193.5t-252.5 68.5q-152 0 -260.5 -69t-108.5 -193v-80z" />
<glyph unicode="7" horiz-adv-x="1046" d="M37 1264v168h911l56 -113l-756 -1319h-191l721 1264h-741z" />
<glyph unicode="8" horiz-adv-x="1193" d="M35 416q0 117 59.5 214t173.5 148q-80 29 -125 109t-45 166q2 186 137.5 289.5t321.5 103.5h37q188 0 323.5 -103.5t135.5 -289.5q0 -86 -41 -165t-115 -112q106 -37 163.5 -138t57.5 -222q-4 -207 -158.5 -323t-365.5 -116h-37q-211 0 -365.5 116t-156.5 323zM201 418 q0 -135 107.5 -204t248.5 -69h37q141 0 248.5 69t107.5 204q0 283 -356 282h-37q-356 0 -356 -282zM264 1053q0 -207 293 -207h37q293 0 293 207q0 111 -85 170t-208 59h-37q-123 0 -208 -59.5t-85 -169.5z" />
<glyph unicode="9" horiz-adv-x="1247" d="M55 934v84q0 203 157 315.5t374 112.5q217 2 375.5 -111.5t160.5 -316.5v-608q0 -203 -159.5 -315.5t-376.5 -112.5q-162 0 -299 73.5t-205 208.5l154 78q43 -94 138 -143t212 -49q152 0 260 68.5t108 193.5v252q-102 -156 -368 -156q-217 2 -374 113.5t-157 312.5z M225 936q0 -125 105.5 -193.5t255.5 -68.5q152 0 260 68.5t108 193.5v80q0 127 -107.5 194.5t-260.5 67.5q-150 0 -255.5 -68.5t-105.5 -193.5v-80z" />
<glyph unicode=":" horiz-adv-x="479" d="M115 137q0 51 34.5 86t86 35t86 -35t34.5 -86t-34.5 -85t-86 -34t-86 34t-34.5 85zM115 872.5q0 51.5 34.5 86t86 34.5t86 -34.5t34.5 -86t-34.5 -86t-86 -34.5t-86 34.5t-34.5 86z" />
<glyph unicode=";" horiz-adv-x="507" d="M55 -268l125 497h211l-168 -497h-168zM125 844q0 51 35 86t86 35t85 -35t34 -86t-34 -86t-85 -35t-86 35t-35 86z" />
<glyph unicode="&#x3c;" horiz-adv-x="970" d="M98 553v125l738 440v-192l-531 -310q84 -49 262 -151.5t269 -153.5v-190z" />
<glyph unicode="=" horiz-adv-x="1126" d="M139 371v161h846v-161h-846zM139 682v160h846v-160h-846z" />
<glyph unicode="&#x3e;" horiz-adv-x="983" d="M131 121v190l531 305q-148 85 -531 310v192l739 -440v-125z" />
<glyph unicode="?" horiz-adv-x="974" d="M4 1249l19 23q70 86 176 133t225 47q193 0 330 -112.5t135 -311.5q-2 -190 -114.5 -297.5t-289.5 -142.5q-2 -53 -7 -145.5t-7 -141.5h-145l-13 428q168 2 290 84t120 217q-2 123 -91 189.5t-212 66.5q-174 0 -287 -137zM289 100q0 47 31.5 79t78.5 32t79 -32t32 -79 t-32 -78.5t-79 -31.5t-78.5 31.5t-31.5 78.5z" />
<glyph unicode="@" horiz-adv-x="1548" d="M72 719q0 309 212 522t519 213q289 0 483.5 -172t194.5 -428q0 -242 -146.5 -416t-324.5 -174q-125 0 -131 127q-37 -57 -101.5 -88t-134.5 -31q-115 0 -196.5 93.5t-81.5 209.5q0 225 129 401.5t340 176.5q63 0 123.5 -38t72.5 -101l27 71l162 -6l-179 -551 q-27 -82 -12 -98q10 -8 25 -8q92 0 182 141.5t90 290.5q0 156 -84 262l-4 6q-72 88 -185.5 136.5t-244.5 48.5q-244 0 -412 -175.5t-168 -412.5q0 -270 147.5 -431t426.5 -161q104 0 211 43l69 -131q-150 -57 -280 -57q-360 0 -544.5 205.5t-184.5 531.5zM520 580 q0 -68 38 -111t101 -43q115 0 204 136t89 265q0 172 -127 172q-141 2 -223 -132.5t-82 -286.5z" />
<glyph unicode="A" horiz-adv-x="1267" d="M-8 0l520 1450h209l524 -1450h-180l-168 465h-559q-8 -23 -70.5 -199t-93.5 -266h-182zM395 637h443q-45 123 -117 330t-105 299q-119 -342 -221 -629z" />
<glyph unicode="B" horiz-adv-x="1280" d="M141 0v1452h557q184 0 305 -99.5t121 -283.5q0 -193 -120 -293q188 -96 188 -360q-8 -416 -496 -416h-555zM313 172h385h20q139 0 218 52q84 56 84 194q0 264 -313 264h-9h-385v-510zM313 854h385q258 0 258 215q0 211 -258 211h-385v-426z" />
<glyph unicode="C" horiz-adv-x="1179" d="M78 438v574q0 213 165 332.5t388 119.5q166 0 306 -74.5t206 -215.5l-154 -78q-49 94 -149.5 145t-214.5 51q-152 0 -263.5 -73.5t-111.5 -206.5v-574q0 -133 111.5 -206.5t263.5 -73.5q117 0 217 50t147 144l154 -71q-68 -141 -211.5 -218t-306.5 -77q-221 0 -384 119.5 t-163 332.5z" />
<glyph unicode="D" horiz-adv-x="1302" d="M141 0v1450h492q229 0 390 -110.5t161 -325.5v-580q0 -145 -82 -246.5t-203 -144.5t-266 -43h-492zM311 172h322q160 0 269.5 65.5t109.5 196.5v580q0 133 -109.5 198.5t-269.5 65.5h-322v-1106z" />
<glyph unicode="E" horiz-adv-x="1171" d="M139 0v1452h930v-172h-758v-469h699v-172h-699v-467h758v-172h-930z" />
<glyph unicode="F" horiz-adv-x="1118" d="M139 0v1450h928v-172h-756v-508h664v-172h-664v-598h-172z" />
<glyph unicode="G" horiz-adv-x="1337" d="M72 438v584q0 143 80.5 248.5t203.5 155t265 49.5q162 0 303 -77t209 -218l-156 -74q-45 94 -145.5 145.5t-215.5 51.5q-152 0 -263 -74t-111 -207v-584q0 -135 112.5 -209.5t266 -74.5t267 74.5t113.5 209.5v146h-428v170h598v-316q0 -217 -162.5 -337.5t-388 -120.5 t-387 120.5t-161.5 337.5z" />
<glyph unicode="H" horiz-adv-x="1409" d="M139 0v1450h172v-641h758v641h172v-1450h-172v639h-758v-639h-172z" />
<glyph unicode="I" horiz-adv-x="475" d="M135 0v1450h170v-1450h-170z" />
<glyph unicode="J" horiz-adv-x="1185" d="M-27 371l170 28q23 -121 125.5 -189.5t229.5 -68.5q143 0 247.5 75t104.5 210v852h-465v172h637v-1024q0 -211 -157.5 -331t-372.5 -120q-186 0 -334 103.5t-185 292.5z" />
<glyph unicode="K" horiz-adv-x="1245" d="M141 0v1450h172v-729q106 102 356.5 350t385.5 379h227l-698 -698q68 -74 318.5 -348.5t371.5 -403.5h-223l-590 629l-148 -148v-481h-172z" />
<glyph unicode="L" horiz-adv-x="1021" d="M141 0v1450h172v-1278h697v-172h-869z" />
<glyph unicode="M" horiz-adv-x="1632" d="M137 0v1450h215l449 -1012q315 705 448 1012h215v-1450h-172v1128l-418 -938h-145l-420 936v-1126h-172z" />
<glyph unicode="N" horiz-adv-x="1411" d="M141 0v1450h185l745 -1198v1198h172v-1450h-217l-713 1149v-1149h-172z" />
<glyph unicode="O" horiz-adv-x="1396" d="M104 422v608q0 215 172.5 335t407.5 120q150 0 279 -49.5t215 -154.5t86 -251v-608q0 -145 -86 -252t-215 -156t-279 -49q-236 0 -408 121t-172 336zM274 422q0 -135 121 -211t289 -76q166 0 287 76t123 211v608q0 141 -121 214t-291 73q-168 -2 -288 -75t-120 -212v-608 z" />
<glyph unicode="P" horiz-adv-x="1261" d="M143 0v1450h553q231 0 360.5 -138t129.5 -326.5t-129 -326t-359 -137.5h-385v-522h-170zM313 694h383q152 0 236 86t84 205q0 121 -84 208q-82 85 -229 85h-7h-383v-584z" />
<glyph unicode="Q" horiz-adv-x="1398" d="M106 428v594q0 215 172.5 335t407.5 120q150 0 278 -49.5t214 -155t86 -250.5v-594q-1 -147 -95 -266l97 -115l-133 -90l-91 102q-158 -88 -356 -88q-236 0 -408 121t-172 336zM279 428q-2 -135 118.5 -211t286.5 -76q145 0 256 56q-35 45 -73 91t-66 85l139 88l119 -156 q35 49 35 123v594q0 141 -120 214t-290 73q-168 -2 -286.5 -76t-118.5 -211v-594z" />
<glyph unicode="R" horiz-adv-x="1277" d="M141 0v1450h553q221 0 356.5 -106.5t139.5 -327.5q0 -205 -120.5 -308.5t-319.5 -113.5l467 -594h-211l-469 592h-224v-592h-172zM313 752h383q156 0 239 61t83 203q0 262 -308 262h-14h-383v-526z" />
<glyph unicode="S" horiz-adv-x="1218" d="M61 287l158 71q45 -100 152.5 -156.5t232.5 -56.5q139 0 240.5 61.5t109.5 174.5q1 15 1 28q0 34 -7 63q-10 40 -39.5 68.5t-58.5 48t-83 37t-89 25.5t-103 23q-84 18 -142 34.5t-127.5 48t-111.5 73.5t-72 108t-30 149q10 182 159.5 286t350.5 104q170 0 318.5 -79 t212.5 -224l-156 -70q-43 98 -148.5 152.5t-226.5 54.5q-135 0 -233.5 -60.5t-106.5 -169.5q-1 -9 -1 -17q1 -40 17 -72q20 -38 47 -61.5t83.5 -43t94.5 -28.5t113 -23q82 -16 128.5 -27.5t118 -35t112.5 -54.5t82 -78t57 -115q13 -54 13 -119q0 -16 -1 -34 q-10 -188 -163.5 -293t-362.5 -105q-174 0 -323.5 81t-215.5 231z" />
<glyph unicode="T" horiz-adv-x="1128" d="M2 1280v172h1102v-172h-465v-1280h-172v1280h-465z" />
<glyph unicode="U" horiz-adv-x="1400" d="M135 436v1014h172v-1014q0 -139 111.5 -215t267.5 -76q154 0 266.5 76t112.5 215v1014h172v-1014q0 -217 -164 -340t-387 -123t-387 123t-164 340z" />
<glyph unicode="V" horiz-adv-x="1243" d="M-23 1452h183l446 -1255l445 1255h180l-520 -1450h-211z" />
<glyph unicode="W" horiz-adv-x="1892" d="M-10 1450h178l348 -1245l334 1063h151l332 -1061l350 1243h177l-420 -1450h-209l-305 965q-59 -186 -172 -540.5t-136 -424.5h-208z" />
<glyph unicode="X" horiz-adv-x="1206" d="M-16 0l497 723l-493 727h205l391 -573q94 137 391 573h207l-496 -727q78 -115 249 -361.5t249 -361.5h-209l-391 582l-391 -582h-209z" />
<glyph unicode="Y" horiz-adv-x="1171" d="M-16 1450h198l393 -702q63 117 194.5 352t195.5 350h200l-506 -885v-565h-172v565q-66 115 -239.5 422t-263.5 463z" />
<glyph unicode="Z" horiz-adv-x="1153" d="M20 121l848 1157h-809v172h1004l55 -119l-848 -1159h824v-172h-1024z" />
<glyph unicode="[" horiz-adv-x="524" d="M125 -258v1780h346v-154h-176v-1472h176v-154h-346z" />
<glyph unicode="\" horiz-adv-x="757" d="M-16 1454l153 53l611 -1530l-156 -53z" />
<glyph unicode="]" horiz-adv-x="520" d="M31 -109h174v1485h-174v148h346v-1780h-346v147z" />
<glyph unicode="^" horiz-adv-x="1216" d="M109 854l428 576h116l441 -576h-201l-297 389l-285 -389h-202z" />
<glyph unicode="_" horiz-adv-x="1024" d="M-14 -6h1026v-164h-1026v164z" />
<glyph unicode="`" horiz-adv-x="430" d="M-43 1430h227l191 -308h-174z" />
<glyph unicode="a" d="M74 342q2 178 121.5 260t300.5 82q125 0 231 -61v110q0 88 -73.5 135t-176.5 47q-162 0 -252 -114l-112 108q72 80 173 123t203 43q164 0 283 -90t119 -252v-686q-204 -72 -416 -72h-22q-164 2 -271.5 101.5t-107.5 265.5zM236 342q0 -98 62 -158.5t159 -62.5 q26 -1 51 -1q124 0 219 21v342q-125 43 -238 43q-252 0 -253 -184z" />
<glyph unicode="b" horiz-adv-x="1046" d="M100 51v1383h164v-420q97 65 242 65h4q166 0 289 -95t123 -259v-397q0 -166 -120 -257t-286 -96q-193 0 -416 76zM264 158q100 -31 252 -31q96 0 169 54.5t71 146.5v399q2 88 -71 137t-173 51q-125 0 -248 -47v-710z" />
<glyph unicode="c" horiz-adv-x="937" d="M90 338v387q0 168 122 261t288 93q117 0 220 -54t161 -157l-133 -80l-15 21q-27 53 -92.5 79.5t-140.5 26.5q-100 0 -173 -50t-73 -140v-391q0 -88 72.5 -137.5t173.5 -49.5q86 0 155.5 43t92.5 125l149 -71q-43 -125 -154.5 -192.5t-242.5 -67.5q-166 0 -288 93 t-122 261z" />
<glyph unicode="d" horiz-adv-x="1046" d="M96 328v397q0 164 123 259t287 95q162 0 248 -65v420h164v-1383q-223 -76 -416 -76q-166 4 -286 95.5t-120 257.5zM262 324q-2 -90 71 -146.5t169 -56.5q152 0 252 31v714q-127 49 -248 49q-100 -2 -173 -51t-71 -139v-401z" />
<glyph unicode="e" horiz-adv-x="1017" d="M94 328v401q0 168 122 260t290 92q164 0 284.5 -92t120.5 -260v-285h-651v-116q-2 -92 70.5 -141.5t175.5 -49.5q76 0 143.5 38t98.5 108l147 -74q-53 -113 -160.5 -173.5t-228.5 -60.5q-166 0 -289 93.5t-123 259.5zM260 582h496v151q0 88 -75 137.5t-175 49.5 q-102 0 -175 -49.5t-71 -141.5v-147z" />
<glyph unicode="f" horiz-adv-x="548" d="M102 0v1106q0 170 111 261t285 93v-160q-111 0 -171.5 -51t-60.5 -143v-197h217v-164h-217v-745h-164z" />
<glyph unicode="g" horiz-adv-x="1026" d="M88 338v393q0 164 119 256t280 92q119 0 285 -45q10 -2 59.5 -18.5t67.5 -20.5v-1013q0 -168 -117.5 -255t-283.5 -87h-3q-228 0 -370 155l108 99q33 -43 107 -73t143 -30q104 0 179 49t75 142v59q-86 -55 -241 -55h-7q-160 0 -279 93q-122 95 -122 259zM252 334 q-2 -88 69.5 -139.5t170.5 -55.5q128 4 245 47v693q-129 49 -250 49q-96 0 -166.5 -53.5t-68.5 -143.5v-397z" />
<glyph unicode="h" horiz-adv-x="1081" d="M121 0v1430h164v-431q106 61 243 62h13q156 -1 273 -93q122 -96 122 -259v-709h-162v711q0 88 -71.5 136t-172.5 50q-133 0 -245 -45v-852h-164z" />
<glyph unicode="i" horiz-adv-x="462" d="M96 1329q0 49 34 82t81 33q49 0 82 -33t33 -82q0 -47 -33 -81t-82 -34q-47 0 -81 34t-34 81zM133 0h164v1067h-164v-1067z" />
<glyph unicode="j" horiz-adv-x="450" d="M-59 -201v-164q172 0 266 91.5t94 255.5v1081h-164v-1081q1 -183 -196 -183zM102 1317q0 49 34 82t81 33q49 0 82 -33t33 -82q0 -47 -33 -81t-82 -34q-47 0 -81 34t-34 81z" />
<glyph unicode="k" horiz-adv-x="966" d="M119 0v1430h164v-861q82 82 245.5 246t245.5 246h213l-479 -483l469 -578h-207l-377 461l-110 -111v-350h-164z" />
<glyph unicode="l" horiz-adv-x="518" d="M121 338v1094h164v-1094q-1 -182 196 -182v-164q-172 0 -266 91t-94 255z" />
<glyph unicode="m" horiz-adv-x="1683" d="M133 -4v965q178 96 361 96q201 0 319 -121q106 109 291 117h21q157 0 267 -85q116 -91 117 -266v-706h-163v702v6q0 100 -66 144q-65 44 -161 43h-9q-82 -2 -148.5 -43t-66.5 -111v-741h-160v741q0 86 -86 129q-74 37 -162 37q-15 0 -29 -1q-104 -7 -161 -48v-858h-164z " />
<glyph unicode="n" horiz-adv-x="1089" d="M123 0v973q252 88 414 88q166 -4 282.5 -93t116.5 -255v-713h-162v713q0 90 -71.5 140t-165.5 50q-125 0 -250 -47v-856h-164z" />
<glyph unicode="o" horiz-adv-x="1050" d="M104 334v399q0 166 122 259t290 95q166 -2 287 -95t121 -259v-399q0 -168 -121 -260t-287 -94q-168 2 -290 94t-122 260zM268 334q0 -92 75 -142.5t173 -50.5q96 0 170 50.5t74 142.5v399q0 92 -74 141.5t-170 49.5q-100 0 -174 -49.5t-74 -141.5v-399z" />
<glyph unicode="p" d="M102 -371v1375q230 75 411 75h5q166 -2 286 -93t120 -259v-391q0 -166 -123 -261q-120 -93 -282 -93h-7q-158 0 -246 57v-410h-164zM266 190q127 -47 248 -47q100 2 173 52.5t71 140.5v395q2 88 -71 140.5t-169 52.5q-168 0 -252 -25v-709z" />
<glyph unicode="q" d="M86 336v391q0 168 120 259t286 93q182 0 415 -75v-1375h-164v410q-84 -57 -245 -57h-7q-162 0 -282 93q-123 95 -123 261zM252 332q-2 -86 70.5 -136.5t173.5 -52.5q120 0 247 47v709q-84 25 -251 25q-96 0 -169 -53.5t-71 -143.5v-395z" />
<glyph unicode="r" horiz-adv-x="641" d="M102 0v717q0 137 85.5 227t218.5 117q46 12 95 12q44 0 91 -10v-168q-76 12 -84 13h-2q-12 0 -76 -9q-70 -18 -117 -65.5t-47 -116.5v-717h-164z" />
<glyph unicode="s" horiz-adv-x="872" d="M25 209l122 76q51 -76 135 -114q76 -34 153 -34h16q80 2 139 42q57 39 57 111q0 58 -36 94t-74.5 48t-100.5 25h2q-80 14 -134 30.5t-114.5 50t-92 91t-31.5 139.5q0 154 116.5 230.5t268.5 76.5q190 0 319 -127l-106 -125q-90 92 -213 92q-88 0 -156 -33.5t-68 -113.5 q0 -39 22.5 -66.5t65.5 -45t74 -25.5t78 -17q340 -63 342 -319q0 -147 -104.5 -225t-253.5 -82h-14q-273 0 -412 221z" />
<glyph unicode="t" horiz-adv-x="563" d="M113 344v1108h161v-391h218v-164h-218v-553q0 -98 76 -162q56 -47 136 -47q29 0 61 6v-141q-39 -5 -75 -5q-139 1 -236 77q-123 96 -123 272z" />
<glyph unicode="u" horiz-adv-x="1058" d="M111 334v729h163v-733q0 -88 71 -140.5t167 -54.5q147 0 250 35v893h164v-1004q-218 -77 -409 -77h-5q-164 2 -282.5 94t-118.5 258z" />
<glyph unicode="v" horiz-adv-x="956" d="M-4 1061h174l248 -705l47 -209h12l43 211l246 703h174l-375 -1061h-194z" />
<glyph unicode="w" horiz-adv-x="1458" d="M6 1061h170l199 -664l39 -235h14l29 235q31 129 89 368t72 296h181l164 -664l32 -235h15l34 235l199 664h168l-317 -1061h-197l-186 770l-189 -770h-196z" />
<glyph unicode="x" horiz-adv-x="923" d="M-18 0l366 530l-366 531h200l264 -402q181 271 263 402h200l-364 -531l364 -530h-200l-263 399q-43 -66 -132 -201t-132 -198h-200z" />
<glyph unicode="y" horiz-adv-x="1062" d="M96 348v713h168v-717q-2 -90 72 -140t176 -52q127 0 258 51v858h164v-1073q0 -174 -121 -266.5t-293 -92.5q-106 0 -210.5 43t-174.5 121l113 103q41 -51 112.5 -79t147.5 -28q106 0 184 51t78 148v61q-70 -61 -254 -65h-7q-163 0 -287 97q-126 99 -126 267z" />
<glyph unicode="z" horiz-adv-x="897" d="M4 104l621 805h-576v152h721l86 -107l-631 -804h621v-150h-754z" />
<glyph unicode="{" horiz-adv-x="587" d="M78 559v148q137 0 137 272v283q0 123 52 192.5t145 69.5h125v-148h-99q-37 0 -45 -27.5t-8 -99.5v-311q2 -195 -94 -307q96 -106 94 -303v-318q0 -66 11.5 -92.5t49.5 -26.5h91v-147h-125q-92 0 -144.5 69.5t-52.5 192.5v283q0 270 -137 270z" />
<glyph unicode="|" horiz-adv-x="454" d="M147 -346v1866h164v-1866h-164z" />
<glyph unicode="}" horiz-adv-x="563" d="M25 -109h88q41 0 52 27t11 92v318q-2 197 92 307q-94 104 -92 303v311q0 37 -1 54.5t-6 38t-16.5 27.5t-29.5 7h-98v148h125q92 0 144 -70t52 -192v-283q0 -272 137 -272v-148q-137 0 -137 -270v-283q0 -123 -52 -192.5t-144 -69.5h-125v147z" />
<glyph unicode="~" horiz-adv-x="1112" d="M121 551q115 211 276 211q98 0 211 -80q84 -53 113 -53q45 0 82 37.5t84 109.5l102 -94q-98 -211 -274 -211q-82 0 -193 76q-94 57 -131 57q-72 0 -164 -141z" />
<glyph unicode="&#xa1;" horiz-adv-x="569" d="M152 891q0 51 34.5 85t86 34t85 -34t33.5 -85t-33.5 -86t-85 -35t-86 35t-34.5 86zM186 -432v1069h170v-1069h-170z" />
<glyph unicode="&#xa2;" horiz-adv-x="942" d="M82 348v369q0 150 92 238.5t236 107.5v184h143v-180q213 -25 317 -207l-147 -61q-47 84 -170 104v-739q150 27 186 147l146 -61q-37 -102 -130 -169t-202 -83v-180h-143v182q-139 23 -233.5 113t-94.5 235zM246 344q-2 -70 45 -115t119 -61v729q-74 -14 -120 -60 t-44 -120v-373z" />
<glyph unicode="&#xa3;" horiz-adv-x="1009" d="M49 0v154h201v516h-201v147h201v207q0 76 21.5 146.5t66.5 137t130 106.5t200 40q158 0 305 -133l-121 -113q-86 86 -190 86q-121 0 -183.5 -80.5t-62.5 -175.5v-221h319v-147h-319v-516h532v-154h-899z" />
<glyph unicode="&#xa4;" horiz-adv-x="1148" d="M51 305l109 107q-104 133 -104.5 303t104.5 303q-16 16 -55 54t-54 52l105 113l112 -113q127 96 299 97q168 0 299 -97l36 36l46.5 46.5l30.5 30.5l102 -113l-108 -106q104 -133 104 -303t-104 -303q18 -16 56 -54.5t52 -52.5l-102 -112l-113 112q-133 -96 -299 -96 q-168 0 -299 96q-16 -16 -58 -59t-54 -53zM215 713q0 -145 103.5 -248t244.5 -103q143 0 246.5 102.5t103.5 248.5q0 147 -103 251.5t-247 104.5q-141 0 -244.5 -104.5t-103.5 -251.5z" />
<glyph unicode="&#xa5;" horiz-adv-x="1077" d="M-63 1432h196l385 -709l385 709h199l-445 -777h261l-31 -141h-285v-100h318l-31 -142h-287v-270h-168v270h-321l30 142h291v100h-315l31 141h229q-131 229 -442 777z" />
<glyph unicode="&#xa6;" horiz-adv-x="436" d="M129 -281v736h168v-736h-168zM129 692v733h168v-733h-168z" />
<glyph unicode="&#xa7;" horiz-adv-x="1009" d="M72 -6l153 72q31 -86 100.5 -133.5t151.5 -47.5q84 0 151.5 46t67.5 122q0 47 -40 89t-80.5 64.5t-122.5 59.5q-86 39 -129 62.5t-103.5 68.5t-87.5 103.5t-27 134.5q0 160 177 256q-129 94 -129 242q0 154 115.5 242.5t271.5 88.5q115 0 208 -54t136 -167l-150 -82 q-59 141 -200 142q-82 0 -146.5 -46.5t-64.5 -123.5q0 -35 16 -64t57 -55.5t70 -42t92 -43.5q68 -31 99.5 -47.5t86 -52t81 -68.5t48 -83t21.5 -110q0 -164 -150 -258q123 -98 123 -237q0 -162 -114.5 -257.5t-274.5 -95.5q-137 0 -246.5 69t-160.5 206zM281 639 q0 -61 29.5 -95t90.5 -65v2l195 -92q133 86 133 168q0 96 -143 170l-135 78q-170 -63 -170 -166z" />
<glyph unicode="&#xa8;" horiz-adv-x="575" d="M2 1333q0 45 30.5 77t76 32t76 -32t30.5 -77t-30.5 -75.5t-76 -30.5t-76 30.5t-30.5 75.5zM352 1333q0 47 31 78t76 31t75.5 -32t30.5 -77t-30.5 -75.5t-75.5 -30.5t-76 30.5t-31 75.5z" />
<glyph unicode="&#xa9;" horiz-adv-x="1613" d="M51 715q0 309 220.5 529t531.5 220t530 -220t219 -529t-219 -529.5t-530 -220.5t-531.5 220.5t-220.5 529.5zM209 715q0 -244 174 -419t420 -175q244 0 418 175t174 419q0 246 -174 420t-418 174q-246 0 -420 -174t-174 -420zM420 563q0 -158 114.5 -245t268.5 -87 q123 0 227.5 61.5t143.5 180.5l-140 68q-20 -76 -85.5 -117t-145.5 -41q-94 0 -162 46t-68 130v291q0 86 68 132t162 46q166 0 219 -98l12 -19l125 74q-55 94 -151.5 145.5t-204.5 51.5q-154 0 -268.5 -87t-114.5 -245v-287z" />
<glyph unicode="&#xaa;" horiz-adv-x="681" d="M27 946q2 225 299 225q65 1 120 -30v71q0 41 -40.5 68t-92.5 27q-104 0 -172 -82l-100 94q123 135 281 135q117 0 200.5 -64.5t83.5 -181.5v-467q-154 -51 -309 -47q-119 2 -194.5 67.5t-75.5 184.5zM186 946q0 -51 32 -80.5t81 -31.5q61 0 147 10v190q-74 16 -124 17 q-57 0 -95.5 -26t-40.5 -79z" />
<glyph unicode="&#xab;" horiz-adv-x="882" d="M45 600l291 432l141 -86l-237 -346q10 -14 102 -147.5t135 -198.5l-141 -84zM373 600l289 432l141 -86l-236 -346q176 -258 236 -346l-141 -84z" />
<glyph unicode="&#xac;" horiz-adv-x="1161" d="M72 668v161h981v-499h-162v338h-819z" />
<glyph unicode="&#xad;" horiz-adv-x="681" d="M66 414v168h534v-168h-534z" />
<glyph unicode="&#xae;" horiz-adv-x="1599" d="M39 715q0 309 220 529t529.5 220t529.5 -220t220 -529t-220 -529.5t-529.5 -220.5t-529.5 220.5t-220 529.5zM203 715q0 -242 172 -413t413.5 -171t412.5 171t171 412.5t-171 413.5t-413 172q-244 0 -414.5 -170.5t-170.5 -414.5zM510 319v801h307q145 0 221 -65.5 t76 -186.5q0 -197 -182 -252q33 -45 103.5 -143t109.5 -151h-174l-209 286h-105v-289h-147zM657 748h103q92 0 147.5 23.5t55.5 96.5q0 57 -45.5 85t-106.5 28h-154v-233z" />
<glyph unicode="&#xaf;" horiz-adv-x="491" d="M-45 1243v168h567v-168h-567z" />
<glyph unicode="&#xb0;" horiz-adv-x="714" d="M57 1161q0 119 84 203t205 84q119 0 203 -84t84 -203t-85 -204t-202 -85q-121 0 -205 84t-84 205zM209 1159q0 -55 41 -95t96 -40t95 40t40 95t-40 96t-95 41t-96 -41t-41 -96z" />
<glyph unicode="&#xb1;" horiz-adv-x="1161" d="M121 133v162h891v-162h-891zM125 737v164h354v338h166v-338h363v-164h-363v-340h-166v340h-354z" />
<glyph unicode="&#xb2;" horiz-adv-x="708" d="M8 1241q80 205 316 205q98 0 182 -46t123 -132q14 -43 14 -86q0 -121 -117 -224h2l-278 -253h393v-154h-586l-45 108l410 394q68 49 74 110.5t-42 102.5t-126 41q-70 -2 -123 -40t-74 -81z" />
<glyph unicode="&#xb3;" horiz-adv-x="706" d="M12 770l140 66l18 -41q16 -39 63.5 -61.5t98.5 -26.5q104 -8 164 63v-2q43 70 3 136.5t-132 60.5h-91v116h91q63 4 99 61.5t-7 110.5q-37 43 -115 43q-106 0 -149 -71l-15 -29l-133 57q39 98 117 141.5t164 47.5q63 2 131 -21q72 -27 108 -65q62 -70 62 -164 q0 -102 -101 -158q66 -25 103 -80t37 -123q-4 -102 -68 -172q-98 -111 -278 -102q-90 4 -171 49t-118 123z" />
<glyph unicode="&#xb4;" horiz-adv-x="436" d="M35 1143l190 307h228l-242 -307h-176z" />
<glyph unicode="&#xb5;" horiz-adv-x="1028" d="M96 -442v1491h172v-652q0 -262 199 -262q123 0 203 88t80 252v574h172l4 -1053h-166l-2 98q-98 -117 -291 -117q-117 0 -201 68v-487h-170z" />
<glyph unicode="&#xb6;" horiz-adv-x="1128" d="M23 967q0 188 132 325.5t369 137.5h469v-1676h-168v1528h-188v-1528h-170v762q-209 8 -326.5 141.5t-117.5 309.5z" />
<glyph unicode="&#xb7;" horiz-adv-x="532" d="M139 645q0 51 35 86t86 35t85 -35t34 -86t-34 -86t-85 -35t-86 35t-35 86z" />
<glyph unicode="&#xb8;" horiz-adv-x="491" d="M35 -348l43 115q76 -39 141 -39q47 0 69.5 25.5t5 51t-68.5 25.5q-39 0 -75 -18l-54 55l119 188h129l-63 -102q63 -4 112 -51t47 -113q-2 -90 -67.5 -139t-149.5 -49q-76 0 -188 51z" />
<glyph unicode="&#xb9;" horiz-adv-x="577" d="M59 1184l222 256h133v-879h-152v649l-88 -118z" />
<glyph unicode="&#xba;" horiz-adv-x="763" d="M51 950v226q0 127 97.5 198.5t226.5 71.5q131 0 228 -71.5t97 -198.5v-226q0 -127 -97 -198.5t-228 -71.5q-129 0 -226.5 71.5t-97.5 198.5zM205 950q0 -61 50 -90t119.5 -29t121 29t51.5 90v226q0 61 -51.5 89.5t-121 28.5t-119.5 -28.5t-50 -89.5v-226z" />
<glyph unicode="&#xbb;" horiz-adv-x="880" d="M57 252l238 348q-10 14 -102.5 147.5t-135.5 198.5l142 86l290 -432l-290 -430zM393 252l236 348q-176 258 -236 346l142 86l288 -432l-288 -430z" />
<glyph unicode="&#xbc;" horiz-adv-x="1482" d="M39 1184l115 -92l88 118v-649h151v879h-133zM172 6l913 1499l138 -82l-916 -1499zM692 330l86 -125h389v-209h154v209h80v145h-80v563h-145zM899 350l275 338l-7 -338h-268z" />
<glyph unicode="&#xbd;" horiz-adv-x="1585" d="M39 1184l115 -92l88 118v-649h151v879h-133zM147 6l914 1499l135 -82l-915 -1499zM872 690l123 -55q20 43 73.5 81t123.5 40q78 0 126 -41t42 -102.5t-74 -110.5l-409 -393l45 -109h585v154h-393l279 254h-2q117 102 116 223q0 43 -14 86q-39 86 -123 132t-182 46 q-236 0 -316 -205z" />
<glyph unicode="&#xbe;" horiz-adv-x="1603" d="M12 770l21 -41q37 -78 117.5 -123t171.5 -49q180 -8 278 102q63 70 68 172q0 68 -37 123.5t-103 79.5q101 56 101 158q0 94 -62 164q-37 39 -108 65q-68 23 -131 21q-86 -4 -164 -47t-117 -142l133 -57l15 29q43 72 149 71q78 0 115 -43q43 -53 7 -110.5t-99 -61.5h-91 v-116h91q92 6 132 -60.5t-3 -136.5v2q-59 -72 -164 -63q-51 4 -98.5 26.5t-63.5 61.5l-25 41zM311 6l914 1499l135 -82l-916 -1499zM834 330l86 -125h389v-209h153v209h80v145h-80v563h-145zM1040 350l275 338l-6 -338h-269z" />
<glyph unicode="&#xbf;" horiz-adv-x="952" d="M37 41q-2 -199 135 -311.5t330 -112.5q119 0 225 47t176 133l19 23l-129 100q-113 -137 -287 -137q-123 0 -212 66.5t-91 189.5q-2 135 119.5 217t289.5 84l-12 428h-145q-2 -49 -7.5 -141t-7.5 -146q-176 -35 -288.5 -142.5t-114.5 -297.5zM416 969q0 47 31.5 78.5 t78.5 31.5t79 -31.5t32 -78.5t-32 -79t-79 -32t-78.5 32t-31.5 79z" />
<glyph unicode="&#xc0;" horiz-adv-x="1267" d="M-8 0h182q31 90 93.5 266t70.5 199h559l168 -465h180l-524 1450h-209zM307 1835h228l190 -307h-174zM395 637q102 287 221 629q33 -92 105 -299t117 -330h-443z" />
<glyph unicode="&#xc1;" horiz-adv-x="1267" d="M-8 0l520 1450h209l524 -1450h-180l-168 465h-559q-8 -23 -70.5 -199t-93.5 -266h-182zM395 637h443q-31 86 -103.5 285.5t-118.5 328.5q-43 -125 -123 -344t-98 -270zM537 1526l194 311h230l-246 -311h-178z" />
<glyph unicode="&#xc2;" horiz-adv-x="1267" d="M-8 0h182q31 90 93.5 266t70.5 199h559l168 -465h180l-524 1450h-209zM279 1503l260 285h155l260 -285h-200l-142 146l-133 -146h-200zM395 637q102 287 221 629q33 -92 105 -299t117 -330h-443z" />
<glyph unicode="&#xc3;" horiz-adv-x="1267" d="M-8 0h182q31 90 93.5 266t70.5 199h559l168 -465h180l-524 1450h-209zM334 1550q16 82 66.5 127t115.5 45q29 0 88.5 -27.5t90 -27.5t57.5 55l116 -41q-31 -162 -172 -161q-37 0 -100.5 27.5t-91.5 27.5q-38 0 -58 -66zM395 637q102 287 221 629q33 -92 105 -299 t117 -330h-443z" />
<glyph unicode="&#xc4;" horiz-adv-x="1267" d="M-8 0h182q31 90 93.5 266t70.5 199h559l168 -465h180l-524 1450h-209zM342 1618q0 45 30.5 76.5t76 31.5t76 -31.5t30.5 -76.5t-30.5 -76t-76 -31t-76 31t-30.5 76zM395 637q102 287 221 629q33 -92 105 -299t117 -330h-443zM692 1618q0 47 31 77.5t76 30.5t75.5 -31.5 t30.5 -76.5t-30.5 -76t-75.5 -31t-76 31t-31 76z" />
<glyph unicode="&#xc5;" horiz-adv-x="1267" d="M-8 0h182q31 90 93.5 266t70.5 199h559l168 -465h180l-524 1450h-209zM395 637q102 287 221 629q33 -92 105 -299t117 -330h-443zM408 1698q0 86 61 148.5t149 62.5q86 0 145.5 -64.5t59.5 -148.5q0 -82 -60.5 -145.5t-144.5 -63.5q-88 0 -149 62.5t-61 148.5zM549 1696 q0 -29 19.5 -49.5t48 -20.5t48 21.5t19.5 50t-19.5 50t-48 21.5t-48 -21.5t-19.5 -51.5z" />
<glyph unicode="&#xc6;" horiz-adv-x="1683" d="M12 0l740 1450h831v-172h-594v-469h535v-170h-535v-471h594v-168h-766v465h-377l-231 -465h-197zM512 621h305l10 659z" />
<glyph unicode="&#xc7;" horiz-adv-x="1179" d="M78 438v574q0 213 165 332.5t388 119.5q166 0 306 -74.5t206 -215.5l-154 -78q-49 94 -149.5 145t-214.5 51q-152 0 -263.5 -73.5t-111.5 -206.5v-574q0 -133 111.5 -206.5t263.5 -73.5q117 0 217 50t147 144l154 -71q-66 -139 -207 -215t-303 -80q0 -14 -23 -43 q66 -4 115 -54.5t47 -115.5q-2 -88 -67.5 -133.5t-151.5 -45.5q-72 0 -191 56l48 121q70 -39 139 -39q74 0 74 43q0 41 -72 41q-39 0 -76 -21l-55 55l82 144q-184 29 -304 143.5t-120 300.5z" />
<glyph unicode="&#xc8;" horiz-adv-x="1171" d="M139 0v1452h930v-172h-758v-469h699v-172h-699v-467h758v-172h-930zM301 1831h229l193 -311h-176z" />
<glyph unicode="&#xc9;" horiz-adv-x="1171" d="M139 0v1452h930v-172h-758v-469h699v-172h-699v-467h758v-172h-930zM508 1528l190 307h228l-242 -307h-176z" />
<glyph unicode="&#xca;" horiz-adv-x="1171" d="M139 0v1452h930v-172h-758v-469h699v-172h-699v-467h758v-172h-930zM274 1520l265 288h157l262 -288h-202l-144 147q-20 -25 -66 -74t-67 -73h-205z" />
<glyph unicode="&#xcb;" horiz-adv-x="1171" d="M139 0v1452h930v-172h-758v-469h699v-172h-699v-467h758v-172h-930zM340 1628q0 47 30.5 78t78 31t78 -31t30.5 -78t-30.5 -77.5t-78 -30.5t-78 30.5t-30.5 77.5zM696 1628q0 45 31 77t76 32t76.5 -31t31.5 -78t-31.5 -77.5t-76.5 -30.5t-76 31.5t-31 76.5z" />
<glyph unicode="&#xcc;" horiz-adv-x="475" d="M-121 1833h230l194 -311h-178zM133 0v1450h170v-1450h-170z" />
<glyph unicode="&#xcd;" horiz-adv-x="475" d="M121 1532l190 307h228l-242 -307h-176zM135 0v1450h170v-1450h-170z" />
<glyph unicode="&#xce;" horiz-adv-x="475" d="M-129 1495l262 283h162l266 -283h-207l-143 143q-20 -23 -67.5 -71.5t-67.5 -71.5h-205zM135 0v1450h170v-1450h-170z" />
<glyph unicode="&#xcf;" horiz-adv-x="475" d="M-63 1630q0 45 31.5 77t76.5 32t77 -32t32 -77t-32 -76.5t-77 -31.5t-76.5 31.5t-31.5 76.5zM135 0v1450h170v-1450h-170zM293 1630q0 45 30.5 77t75.5 32q47 0 78 -32t31 -77t-32 -76.5t-77 -31.5t-75.5 31.5t-30.5 76.5z" />
<glyph unicode="&#xd0;" horiz-adv-x="1255" d="M2 637v160h123v653h493q227 0 388 -110.5t161 -325.5v-580q0 -145 -81.5 -246.5t-201.5 -144.5t-266 -43h-493v637h-123zM297 172h321q158 0 268.5 65.5t110.5 196.5v580q0 133 -110.5 198.5t-268.5 65.5h-321v-481h246v-160h-246v-465z" />
<glyph unicode="&#xd1;" horiz-adv-x="1411" d="M141 0v1450h185l745 -1198v1198h172v-1450h-217l-713 1149v-1149h-172zM440 1511q18 84 68.5 128t118.5 44q57 0 114 -30q35 -20 66 -21q33 0 57 54l119 -44q-31 -164 -174 -163q-61 0 -113 26q-53 27 -84 27q-37 -1 -57 -62z" />
<glyph unicode="&#xd2;" horiz-adv-x="1396" d="M104 422v608q0 215 172.5 335t407.5 120q150 0 279 -49.5t215 -154.5t86 -251v-608q0 -145 -86 -252t-215 -156t-279 -49q-236 0 -408 121t-172 336zM274 422q0 -135 121 -211t289 -76q166 0 287 76t123 211v608q0 141 -121 214t-291 73q-168 -2 -288 -75t-120 -212v-608 zM360 1825h232l178 -289h-176z" />
<glyph unicode="&#xd3;" horiz-adv-x="1396" d="M104 422v608q0 215 172.5 335t407.5 120q150 0 279 -49.5t215 -154.5t86 -251v-608q0 -145 -86 -252t-215 -156t-279 -49q-236 0 -408 121t-172 336zM274 422q0 -135 121 -211t289 -76q166 0 287 76t123 211v608q0 141 -121 214t-291 73q-168 -2 -288 -75t-120 -212v-608 zM606 1532l191 307h227l-242 -307h-176z" />
<glyph unicode="&#xd4;" horiz-adv-x="1396" d="M104 422v608q0 215 172.5 335t407.5 120q150 0 279 -49.5t215 -154.5t86 -251v-608q0 -145 -86 -252t-215 -156t-279 -49q-236 0 -408 121t-172 336zM274 422q0 -135 121 -211t289 -76q166 0 287 76t123 211v608q0 141 -121 214t-291 73q-168 -2 -288 -75t-120 -212v-608 zM336 1526l264 291h158l264 -291h-203l-143 149q-117 -127 -135 -149h-205z" />
<glyph unicode="&#xd5;" horiz-adv-x="1396" d="M104 422v608q0 215 172.5 335t407.5 120q150 0 279 -49.5t215 -154.5t86 -251v-608q0 -145 -86 -252t-215 -156t-279 -49q-236 0 -408 121t-172 336zM274 422q0 -135 121 -211t289 -76q166 0 287 76t123 211v608q0 141 -121 214t-291 73q-168 -2 -288 -75t-120 -212v-608 zM408 1579q16 84 66 129t118 45q51 0 117 -31q35 -20 65 -20q33 0 57 53l117 -43q-29 -164 -172 -164q-66 0 -112 27q-66 27 -84 27q-40 -1 -58 -64z" />
<glyph unicode="&#xd6;" horiz-adv-x="1396" d="M104 422v608q0 215 172.5 335t407.5 120q150 0 279 -49.5t215 -154.5t86 -251v-608q0 -145 -86 -252t-215 -156t-279 -49q-236 0 -408 121t-172 336zM274 422q0 -135 121 -211t289 -76q166 0 287 76t123 211v608q0 141 -121 214t-291 73q-168 -2 -288 -75t-120 -212v-608 zM401 1634q0 45 31 77t78 32t77.5 -32t30.5 -77t-31.5 -75.5t-76.5 -30.5t-77 30.5t-32 75.5zM756 1634q0 45 31.5 77t76.5 32t77 -32t32 -77t-32 -75.5t-77 -30.5t-76.5 30.5t-31.5 75.5z" />
<glyph unicode="&#xd7;" horiz-adv-x="978" d="M51 932l117 117l319 -320l312 313l114 -116l-307 -310l305 -305l-116 -118l-308 307l-315 -316l-115 119l312 311z" />
<glyph unicode="&#xd8;" horiz-adv-x="1396" d="M104 422v608q0 215 172.5 335t407.5 120q100 0 205 -25l57 148l156 -56l-62 -155q223 -121 224 -367v-608q0 -145 -86 -252t-215 -156t-279 -49q-102 0 -201 25q-8 -23 -28.5 -74t-28.5 -74l-156 56l58 155q-223 127 -224 369zM274 422q0 -129 119 -211l432 1092 q-59 14 -143 14q-168 -2 -288 -75t-120 -212v-608zM547 150q59 -14 137 -15q164 0 286 76t124 211v608q0 137 -117 209q-57 -145 -430 -1089z" />
<glyph unicode="&#xd9;" horiz-adv-x="1400" d="M135 436v1014h172v-1014q0 -139 111.5 -215t267.5 -76q154 0 266.5 76t112.5 215v1014h172v-1014q0 -217 -164 -340t-387 -123t-387 123t-164 340zM389 1782h232l192 -312h-178z" />
<glyph unicode="&#xda;" horiz-adv-x="1400" d="M135 436v1014h172v-1014q0 -139 111.5 -215t267.5 -76q154 0 266.5 76t112.5 215v1014h172v-1014q0 -217 -164 -340t-387 -123t-387 123t-164 340zM565 1475l191 307h227l-242 -307h-176z" />
<glyph unicode="&#xdb;" horiz-adv-x="1400" d="M135 436v1014h172v-1014q0 -139 111.5 -215t267.5 -76q154 0 266.5 76t112.5 215v1014h172v-1014q0 -217 -164 -340t-387 -123t-387 123t-164 340zM356 1503l265 291h157l264 -291h-202l-146 150q-25 -29 -70.5 -80t-62.5 -70h-205z" />
<glyph unicode="&#xdc;" horiz-adv-x="1400" d="M135 436v1014h172v-1014q0 -141 111.5 -220t267.5 -79q154 0 266.5 79t112.5 220v1014h172v-1014q0 -217 -164 -340t-387 -123t-387 123t-164 340zM403 1624q0 47 32 78t77 31t77 -31t32 -78t-32 -77.5t-77 -30.5t-77 30.5t-32 77.5zM758 1624q0 47 30.5 78t77.5 31 t78 -31t31 -78t-31 -77.5t-78 -30.5t-77.5 30.5t-30.5 77.5z" />
<glyph unicode="&#xdd;" horiz-adv-x="1153" d="M-16 1450h198l393 -702q63 117 194.5 352t195.5 350h200l-506 -885v-565h-172v565q-66 115 -239.5 422t-263.5 463zM455 1475l190 307h227l-241 -307h-176z" />
<glyph unicode="&#xde;" horiz-adv-x="1124" d="M137 2v1462h174v-270q98 8 158 8q281 0 428 -116.5t147 -337.5q0 -125 -51 -217.5t-139 -141.5t-189.5 -71.5t-220.5 -22.5h-79l14 170h59q82 0 153 12t137.5 42t104 88.5t37.5 140.5q0 84 -37.5 143t-102 87t-129 40t-140.5 12q-72 0 -150 -10v-1018h-174z" />
<glyph unicode="&#xdf;" horiz-adv-x="1212" d="M139 -2v1092q0 184 138.5 290.5t322.5 106.5q186 0 324.5 -101.5t138.5 -283.5q0 -203 -131 -305q195 -92 194 -361q-4 -211 -162.5 -326.5t-375.5 -111.5q-98 2 -199 51l2 182q119 -61 195 -61q152 -4 260 65.5t108 200.5q0 135 -87 202t-230 64h-207v164h207 q109 0 182.5 61.5t73.5 174t-86 167t-207 54.5q-119 0 -207 -59.5t-88 -173.5v-1092h-166z" />
<glyph unicode="&#xe0;" d="M74 342q0 -166 107.5 -265.5t271.5 -101.5q223 -4 438 72v686q0 162 -119 252t-283 90q-102 0 -203.5 -43t-172.5 -123l112 -108q90 115 252 114q102 0 176 -47t74 -135v-110q-106 61 -231 61q-180 0 -300 -82t-122 -260zM236 342q2 184 253 184q113 0 238 -43v-342 q-115 -25 -270 -20q-96 2 -158.5 62.5t-62.5 158.5zM236 1382h198l166 -268h-151z" />
<glyph unicode="&#xe1;" d="M74 342q2 178 123.5 268t298.5 90q127 0 231 -38v71q0 88 -73.5 135t-176.5 47q-162 0 -252 -114l-112 108q72 80 173 123t203 43q164 0 283 -90t119 -252v-686q-215 -76 -438 -72q-164 2 -271.5 101.5t-107.5 265.5zM236 342q0 -98 62 -155.5t159 -59.5q155 -5 270 20 v353q-125 43 -238 43q-111 0 -181 -47t-72 -154zM391 1118l170 279h215l-225 -279h-160z" />
<glyph unicode="&#xe2;" d="M74 342q0 -166 107.5 -265.5t271.5 -101.5q223 -4 438 72v686q0 162 -119 252t-283 90q-102 0 -203.5 -43t-172.5 -123l112 -108q90 115 252 114q102 0 176 -47t74 -135v-110q-106 61 -231 61q-180 0 -300 -82t-122 -260zM213 1102l227 246h135l226 -246h-174l-123 123 q-18 -20 -58 -61.5t-59 -61.5h-174zM236 342q2 184 253 184q113 0 238 -43v-342q-115 -25 -270 -20q-96 2 -158.5 62.5t-62.5 158.5z" />
<glyph unicode="&#xe3;" d="M74 342q0 -166 107.5 -265.5t271.5 -101.5q223 -4 438 72v686q0 162 -119 252t-283 90q-102 0 -203.5 -43t-172.5 -123l112 -108q90 115 252 114q102 0 176 -47t74 -135v-110q-106 61 -231 61q-180 0 -300 -82t-122 -260zM236 342q2 184 253 184q113 0 238 -43v-342 q-115 -25 -270 -20q-96 2 -158.5 62.5t-62.5 158.5zM258 1157q14 76 59 116t105 40q27 0 80 -24.5t81.5 -24.5t51.5 49l104 -37q-29 -145 -155 -146q-31 0 -88.5 25t-83.5 25q-36 -1 -52 -60z" />
<glyph unicode="&#xe4;" d="M74 342q0 -166 107.5 -265.5t271.5 -101.5q223 -4 438 72v686q0 162 -119 252t-283 90q-102 0 -203.5 -43t-172.5 -123l112 -108q90 115 252 114q102 0 176 -47t74 -135v-110q-106 61 -231 61q-180 0 -300 -82t-122 -260zM236 342q2 184 253 184q113 0 238 -43v-342 q-115 -25 -270 -20q-96 2 -158.5 62.5t-62.5 158.5zM260 1198q0 39 26.5 65.5t63.5 26.5q39 0 65.5 -26.5t26.5 -65.5t-26.5 -65.5t-65.5 -26.5q-37 0 -63.5 26.5t-26.5 65.5zM561 1198q0 41 25.5 66.5t64.5 25.5t65.5 -26.5t26.5 -65.5t-26.5 -65.5t-65.5 -26.5t-64.5 26.5 t-25.5 65.5z" />
<glyph unicode="&#xe5;" d="M74 342q0 -166 107.5 -265.5t271.5 -101.5q223 -4 438 72v686q0 162 -119 252t-283 90q-102 0 -203.5 -43t-172.5 -123l112 -108q90 115 252 114q102 0 176 -47t74 -135v-110q-106 61 -231 61q-180 0 -300 -82t-122 -260zM236 342q2 184 253 184q113 0 238 -43v-342 q-115 -25 -270 -20q-96 2 -158.5 62.5t-62.5 158.5zM332 1282q0 70 51 121t120.5 51t119 -52t49.5 -122q0 -68 -49.5 -119t-119 -51t-120.5 51t-51 121zM449 1280q0 -23 16 -40t38.5 -17t39 17t16.5 42q0 23 -16.5 41t-38.5 18q-25 0 -40 -18t-15 -43z" />
<glyph unicode="&#xe6;" horiz-adv-x="1673" d="M74 338q0 180 124 272t304 92q157 1 225 -69v104q0 88 -73.5 135.5t-176.5 47.5q-162 0 -252 -115l-112 108q147 166 374 166q98 0 190.5 -46t135.5 -124q43 84 132 126t190 42q166 0 286.5 -93t120.5 -261v-270h-653v-125q0 -88 72.5 -137.5t173.5 -49.5q80 0 147.5 37 t95.5 107l148 -72q-53 -113 -161 -173t-230 -60q-186 0 -306 108q-139 -109 -346 -108q-172 0 -290.5 91t-118.5 267zM238 338q2 -100 71.5 -149.5t175.5 -49.5q141 0 260 72q-18 53 -18 121v170q-119 41 -231.5 41t-184 -48.5t-73.5 -156.5zM889 594h491v133 q0 88 -72.5 137t-172.5 49q-98 0 -171 -47t-75 -133v-139z" />
<glyph unicode="&#xe7;" horiz-adv-x="909" d="M74 338v387q0 168 121.5 261t287.5 93q117 0 220.5 -54t160.5 -157l-139 -90q-33 68 -99.5 102.5t-142.5 34.5q-100 0 -172.5 -49t-72.5 -137v-395q0 -88 72.5 -137.5t172.5 -49.5q86 0 156 43t92 125l150 -73q-41 -113 -138.5 -178.5t-216.5 -77.5l-20 -39 q63 -4 110.5 -51.5t45.5 -114.5q-2 -86 -64.5 -128t-148.5 -42q-82 0 -189 51l43 113q72 -37 141 -37q80 0 80 45q0 41 -73 41q-31 0 -76 -19l-53 54l84 131q-139 25 -235.5 115t-96.5 233z" />
<glyph unicode="&#xe8;" horiz-adv-x="1009" d="M86 328q0 -166 123 -259.5t289 -93.5q121 0 228.5 60.5t160.5 173.5l-148 74q-31 -70 -98.5 -108t-142.5 -38q-102 0 -175 49.5t-71 141.5v116h651v285q0 168 -120.5 260t-284.5 92q-168 0 -290 -92t-122 -260v-401zM252 582v147q-2 92 70.5 141.5t175.5 49.5 q100 0 175 -49.5t75 -137.5v-151h-496zM266 1378h207l158 -256h-158z" />
<glyph unicode="&#xe9;" horiz-adv-x="1009" d="M86 328v401q0 168 122 260t290 92q164 0 285.5 -92t121.5 -260v-289h-653v-112q-2 -92 70.5 -141.5t175.5 -49.5q76 0 143.5 38t97.5 108l148 -74q-53 -113 -161 -173.5t-228 -60.5q-166 0 -289 93.5t-123 259.5zM252 590h489v143q0 88 -72.5 137.5t-170.5 49.5 q-102 0 -175 -49.5t-71 -141.5v-139zM414 1122l170 275h215l-226 -275h-159z" />
<glyph unicode="&#xea;" horiz-adv-x="1009" d="M86 328q0 -166 123 -259.5t289 -93.5q121 0 228.5 60.5t160.5 173.5l-148 74q-31 -70 -98.5 -108t-142.5 -38q-102 0 -175 49.5t-71 141.5v116h651v285q0 168 -120.5 260t-284.5 92q-168 0 -290 -92t-122 -260v-401zM203 1104l229 242h137l230 -242h-178l-125 117 q-20 -23 -60.5 -61t-56.5 -56h-176zM252 582v147q-2 92 70.5 141.5t175.5 49.5q100 0 175 -49.5t75 -137.5v-151h-496z" />
<glyph unicode="&#xeb;" horiz-adv-x="1009" d="M86 328q0 -166 123 -259.5t289 -93.5q121 0 228.5 60.5t160.5 173.5l-148 74q-31 -70 -98.5 -108t-142.5 -38q-102 0 -175 49.5t-71 141.5v116h651v285q0 168 -120.5 260t-284.5 92q-168 0 -290 -92t-122 -260v-401zM252 582v147q-2 92 70.5 141.5t175.5 49.5 q100 0 175 -49.5t75 -137.5v-151h-496zM258 1208q0 41 27.5 69t66.5 28t65.5 -28t26.5 -69q0 -39 -26.5 -66.5t-65.5 -27.5q-41 0 -67.5 26.5t-26.5 67.5zM565 1208q0 41 28 69t66.5 28t66.5 -28t28 -69t-27 -67.5t-68 -26.5t-67.5 26.5t-26.5 67.5z" />
<glyph unicode="&#xec;" horiz-adv-x="491" d="M-72 1307h215l170 -273h-159zM152 0v985h172v-985h-172z" />
<glyph unicode="&#xed;" horiz-adv-x="491" d="M152 0v985h172v-985h-172zM152 1038l167 273h218l-226 -273h-159z" />
<glyph unicode="&#xee;" horiz-adv-x="491" d="M-61 1030l233 264h143l236 -264h-184l-129 131l-117 -131h-182zM152 0v985h172v-985h-172z" />
<glyph unicode="&#xef;" horiz-adv-x="489" d="M18 1147q0 41 28 68.5t69 27.5t69.5 -27.5t28.5 -68.5q0 -43 -28.5 -70.5t-69.5 -27.5t-69 27.5t-28 70.5zM154 0v981h172v-981h-172zM266 1147q0 41 28 68.5t71 27.5q41 0 68.5 -27.5t27.5 -68.5q0 -43 -27.5 -70.5t-68.5 -27.5q-43 0 -71 27.5t-28 70.5z" />
<glyph unicode="&#xf0;" horiz-adv-x="1077" d="M121 338v295q0 162 120.5 257t282.5 93q137 0 244 -45v162q0 106 -115 164l-49 -154l-137 45l43 133q-156 -4 -238 -108l-114 104q74 86 181 127t218 35l45 135l137 -47l-37 -117q227 -88 228 -317v-1026l-127 -39q-176 -47 -287 -47q-160 2 -277.5 94t-117.5 256z M283 336q0 -90 69.5 -138t165.5 -48q127 0 250 49v575q-123 47 -248 47q-98 -2 -167.5 -50t-69.5 -138v-297zM768 774l14 -6l-14 25v-19z" />
<glyph unicode="&#xf1;" horiz-adv-x="1089" d="M123 0h164v856q125 47 250 47q94 0 165.5 -50t71.5 -140v-713h162v713q0 166 -117 255t-282 93q-162 0 -414 -88v-973zM281 1157q14 74 58 114t101 40q27 0 78 -24.5t78 -24.5q29 0 51 49l103 -37q-29 -145 -152 -146q-33 0 -87 26t-81 26q-35 -1 -51 -60z" />
<glyph unicode="&#xf2;" horiz-adv-x="1030" d="M92 334q0 -168 122 -260t290 -94q166 2 286.5 94t120.5 260v399q0 166 -120.5 259t-286.5 95q-168 -2 -290 -95t-122 -259v-399zM238 1382h219l145 -247h-172zM256 334v399q0 92 74 141.5t174 49.5q96 0 170 -49.5t74 -141.5v-399q0 -92 -74 -142.5t-170 -50.5 q-98 0 -173 50.5t-75 142.5z" />
<glyph unicode="&#xf3;" horiz-adv-x="1030" d="M92 334v399q0 166 122 259t290 95q166 -2 286.5 -95t120.5 -259v-399q0 -168 -120.5 -260t-286.5 -94q-168 2 -290 94t-122 260zM256 334q0 -92 75 -142.5t173 -50.5q96 0 170 50.5t74 142.5v399q0 92 -74 141.5t-170 49.5q-100 0 -174 -49.5t-74 -141.5v-399zM420 1135 l135 245h221l-190 -245h-166z" />
<glyph unicode="&#xf4;" horiz-adv-x="1030" d="M92 334q0 -168 122 -260t290 -94q166 2 286.5 94t120.5 260v399q0 166 -120.5 259t-286.5 95q-168 -2 -290 -95t-122 -259v-399zM207 1110l225 246h135l224 -246h-173l-122 125q-20 -25 -61.5 -68t-53.5 -57h-174zM256 334v399q0 92 74 141.5t174 49.5q96 0 170 -49.5 t74 -141.5v-399q0 -92 -74 -142.5t-170 -50.5q-98 0 -173 50.5t-75 142.5z" />
<glyph unicode="&#xf5;" horiz-adv-x="1030" d="M92 334q0 -168 122 -260t290 -94q166 2 286.5 94t120.5 260v399q0 166 -120.5 259t-286.5 95q-168 -2 -290 -95t-122 -259v-399zM256 334v399q0 92 74 141.5t174 49.5q96 0 170 -49.5t74 -141.5v-399q0 -92 -74 -142.5t-170 -50.5q-98 0 -173 50.5t-75 142.5zM260 1165 q14 72 57 111t103 39q25 0 77 -23.5t78.5 -23.5t49.5 47l102 -35q-25 -141 -149 -141q-33 0 -87.5 23.5t-80.5 23.5q-36 -1 -52 -58z" />
<glyph unicode="&#xf6;" horiz-adv-x="1030" d="M92 334q0 -168 122 -260t290 -94q166 2 286.5 94t120.5 260v399q0 166 -120.5 259t-286.5 95q-168 -2 -290 -95t-122 -259v-399zM252 1221q0 41 27.5 68.5t66.5 27.5t67.5 -27.5t28.5 -68.5q0 -39 -27.5 -67t-68.5 -28q-39 0 -66.5 27t-27.5 68zM256 334v399 q0 92 74 141.5t174 49.5q96 0 170 -49.5t74 -141.5v-399q0 -92 -74 -142.5t-170 -50.5q-98 0 -173 50.5t-75 142.5zM563 1221q0 41 27.5 68.5t68.5 27.5q39 0 67 -28.5t28 -67.5t-28 -67t-67 -28q-41 0 -68.5 27t-27.5 68z" />
<glyph unicode="&#xf7;" horiz-adv-x="1081" d="M76 586v170h897v-170h-897zM397 981q0 51 37 88t90.5 37t90 -37t36.5 -88t-36.5 -89t-90 -38t-90.5 38t-37 89zM408 360.5q0 53.5 36.5 88t90.5 36.5q53 0 90 -36.5t37 -88.5q0 -53 -37 -90t-90.5 -37t-90 37t-36.5 90.5z" />
<glyph unicode="&#xf8;" horiz-adv-x="1030" d="M92 334v399q0 166 122 259t290 95q66 -2 129 -18l61 150l148 -56l-68 -157q137 -92 137 -273v-399q0 -168 -120.5 -260t-286.5 -94q-84 4 -142 18l-57 -135l-135 55l59 141q-137 97 -137 275zM256 334q0 -63 37 -111l280 695q-32 6 -69 6q-100 0 -174 -49.5t-74 -141.5 v-399zM424 150q35 -9 80 -9q96 0 170 50.5t74 142.5v399q0 66 -39 111q-53 -133 -149.5 -365.5t-135.5 -328.5z" />
<glyph unicode="&#xf9;" horiz-adv-x="1058" d="M111 334q0 -166 118.5 -258t282.5 -94q193 -1 414 77v1004h-164v-893q-102 -35 -250 -35q-96 2 -167 54.5t-71 140.5v733h-163v-729zM250 1364h205l172 -279h-158z" />
<glyph unicode="&#xfa;" horiz-adv-x="1058" d="M111 334v729h163v-733q0 -88 71 -140.5t167 -54.5q147 0 250 35v893h164v-1004q-221 -78 -414 -77q-164 2 -282.5 94t-118.5 258zM406 1092l169 272h201l-215 -272h-155z" />
<glyph unicode="&#xfb;" horiz-adv-x="1058" d="M111 334q0 -166 118.5 -258t282.5 -94q193 -1 414 77v1004h-164v-893q-102 -35 -250 -35q-96 2 -167 54.5t-71 140.5v733h-163v-729zM229 1124l226 248h135l225 -248h-174l-121 125q-82 -86 -117 -125h-174z" />
<glyph unicode="&#xfc;" horiz-adv-x="1058" d="M111 334q0 -166 118.5 -258t282.5 -94q193 -1 414 77v1004h-164v-893q-102 -35 -250 -35q-96 2 -167 54.5t-71 140.5v733h-163v-729zM270 1247q0 41 28 68.5t66.5 27.5t66.5 -28.5t28 -67.5t-28 -66.5t-66 -27.5q-41 0 -68 27.5t-27 66.5zM580 1247q0 41 26.5 68.5 t67.5 27.5q39 0 66.5 -27.5t27.5 -68.5q0 -39 -27.5 -66.5t-66.5 -27.5q-41 0 -67.5 26.5t-26.5 67.5z" />
<glyph unicode="&#xfd;" horiz-adv-x="1062" d="M96 348v713h168v-717q-2 -90 72 -140t176 -52q127 0 258 51v858h164v-1073q0 -174 -121 -266.5t-293 -92.5q-106 0 -210.5 43t-174.5 121l113 103q41 -51 112.5 -79t147.5 -28q106 0 184 51t78 148v61q-70 -61 -254 -65q-168 -2 -294 97t-126 267zM391 1090l170 272h201 l-215 -272h-156z" />
<glyph unicode="&#xfe;" horiz-adv-x="1067" d="M121 -381v1808h164v-395q129 27 252 27q166 -2 284.5 -93.5t118.5 -258.5v-373q0 -164 -122 -260.5t-288 -93.5q-125 2 -245 47v-408h-164zM266 199l19 -9v-18zM285 190q119 -47 250 -47q100 2 171.5 51.5t69.5 139.5v377q2 88 -68.5 136t-170.5 48q-164 0 -252 -25v-680 z" />
<glyph unicode="&#xff;" horiz-adv-x="1062" d="M96 348v713h168v-717q-2 -90 72 -140t176 -52q127 0 258 51v858h164v-1073q0 -174 -121 -266.5t-293 -92.5q-106 0 -210.5 43t-174.5 121l98 90l39 -2q74 -92 236 -92q106 0 184 51t78 148v41q-90 -41 -254 -45q-168 -2 -294 97t-126 267zM274 1231q0 41 28 69.5t69 28.5 t68.5 -28.5t27.5 -69.5t-27.5 -67.5t-68.5 -26.5t-69 27.5t-28 66.5zM580 1231q0 41 27.5 69.5t66.5 28.5q41 0 69.5 -28.5t28.5 -69.5t-27.5 -67.5t-68.5 -26.5q-96 0 -96 94z" />
<glyph unicode="&#x131;" horiz-adv-x="452" d="M131 0v1038h172v-1038h-172z" />
<glyph unicode="&#x152;" horiz-adv-x="1964" d="M109 432v582q0 215 170 334.5t403 121.5q70 0 144.5 -23.5t103.5 -60.5v62h928v-172h-758v-469h696v-170h-696v-467h758v-172h-928v68q-59 -94 -256 -91q-231 4 -398 124t-167 333zM279 432q0 -135 119.5 -210t285.5 -75q139 0 246 50v1058q-104 47 -246 43 q-168 0 -286.5 -72.5t-118.5 -211.5v-582z" />
<glyph unicode="&#x153;" horiz-adv-x="1701" d="M102 338v389q0 166 120 259t286 93q104 0 193.5 -46t129.5 -136q88 180 328 184q164 -2 286 -94t122 -258v-270h-654v-121q0 -92 74 -141.5t172 -49.5q78 0 144.5 37t97.5 107l147 -72q-53 -113 -159.5 -173t-229.5 -62q-227 0 -328 149q-94 -143 -323 -147 q-166 2 -286 93t-120 259zM264 338q0 -92 73 -140t171 -48q96 0 169 49t73 139v391q0 90 -73 138t-169 48q-98 0 -171 -48t-73 -140v-389zM913 598h490v133q0 90 -73 139.5t-171 49.5t-172 -49.5t-74 -143.5v-129z" />
<glyph unicode="&#x178;" horiz-adv-x="1085" d="M-53 1450h198l394 -702q49 90 184 331.5t205 370.5h200l-505 -885v-565h-172v565q-66 115 -240 422t-264 463zM231 1597q0 45 32 77t77 32t75.5 -32t30.5 -77t-30.5 -76.5t-75.5 -31.5t-77 31.5t-32 76.5zM629 1597q0 45 31.5 77t76.5 32t77 -32t32 -77t-32 -76.5 t-77 -31.5t-76.5 31.5t-31.5 76.5z" />
<glyph unicode="&#x192;" horiz-adv-x="1038" d="M-61 -211l90 137q55 -47 108 -47q59 0 91 47t51 146v2l118 637h-204v157h231q45 229 53 277q25 131 96.5 220t208.5 89q100 0 211 -80l-92 -133q-76 53 -119 53q-104 0 -135 -153v2q-8 -49 -25.5 -137t-25.5 -138h205v-157h-232l-135 -729q-49 -262 -305 -263 q-106 0 -190 70z" />
<glyph unicode="&#x2c6;" horiz-adv-x="536" d="M-82 1145l260 285h156l260 -285h-201l-141 145q-20 -25 -66.5 -73t-66.5 -72h-201z" />
<glyph unicode="&#x2c7;" horiz-adv-x="526" d="M-92 1427h203l141 -135l133 135h207l-262 -272h-160z" />
<glyph unicode="&#x2d8;" horiz-adv-x="491" d="M-51 1421h149q12 -49 45 -76.5t74 -27.5q39 0 72 27.5t41 76.5h121l26 -30q-12 -106 -89 -165t-175 -59t-175 66.5t-89 187.5z" />
<glyph unicode="&#x2d9;" horiz-adv-x="491" d="M119 1294.5q0 53.5 37 90t90 36.5t90 -36.5t37 -90t-37 -90.5t-90 -37t-90 37t-37 90.5z" />
<glyph unicode="&#x2da;" horiz-adv-x="491" d="M31 1288q0 86 61.5 148.5t149.5 62.5q86 0 145 -64.5t59 -148.5q0 -82 -60 -145.5t-144 -63.5q-88 0 -149.5 62.5t-61.5 148.5zM172 1286q0 -29 19.5 -49t48 -20t48 21.5t19.5 50t-19.5 50t-48 21.5t-48 -21.5t-19.5 -52.5z" />
<glyph unicode="&#x2db;" horiz-adv-x="491" d="M-2 -176q0 82 59.5 143.5t137.5 87.5h167q-150 -113 -178 -166q-14 -23 -14 -41q0 -55 51 -55q50 0 105 70l75 -139q-96 -86 -198 -86q-90 0 -147.5 50t-57.5 136z" />
<glyph unicode="&#x2dc;" horiz-adv-x="555" d="M-2 1249q16 82 66.5 127t115.5 45q29 0 88.5 -27.5t90 -27.5t57.5 55l116 -41q-31 -162 -172 -161q-37 0 -100 27.5t-92 27.5q-37 0 -57 -66z" />
<glyph unicode="&#x2dd;" horiz-adv-x="559" d="M14 1102l136 328h221l-203 -328h-154zM299 1102l133 328h221l-200 -328h-154z" />
<glyph unicode="&#x3a9;" horiz-adv-x="1540" d="M63 0v162h287q-262 248 -262 610q0 311 199.5 502.5t494.5 191.5t483.5 -198.5t188.5 -487.5q0 -190 -71.5 -350t-184.5 -268h281v-162h-584v117q172 96 279.5 271t107.5 392q0 203 -139 365t-364.5 162t-371 -153t-145.5 -386q0 -199 108.5 -368t284.5 -283v-117h-592z " />
<glyph unicode="&#x3c0;" horiz-adv-x="1122" d="M-14 1008q106 66 284 65h791l-17 -155h-149v-609q0 -84 22.5 -118.5t83.5 -32.5l3 -162q-154 8 -214.5 84t-60.5 217v621h-350v-918h-162v918q-102 -2 -197 -35z" />
<glyph unicode="&#x2000;" horiz-adv-x="954" />
<glyph unicode="&#x2001;" horiz-adv-x="1909" />
<glyph unicode="&#x2002;" horiz-adv-x="954" />
<glyph unicode="&#x2003;" horiz-adv-x="1909" />
<glyph unicode="&#x2004;" horiz-adv-x="636" />
<glyph unicode="&#x2005;" horiz-adv-x="477" />
<glyph unicode="&#x2006;" horiz-adv-x="318" />
<glyph unicode="&#x2007;" horiz-adv-x="318" />
<glyph unicode="&#x2008;" horiz-adv-x="238" />
<glyph unicode="&#x2009;" horiz-adv-x="381" />
<glyph unicode="&#x200a;" horiz-adv-x="106" />
<glyph unicode="&#x2010;" horiz-adv-x="681" d="M66 526v168h534v-168h-534z" />
<glyph unicode="&#x2011;" horiz-adv-x="681" d="M66 526v168h534v-168h-534z" />
<glyph unicode="&#x2012;" horiz-adv-x="681" d="M66 526v168h534v-168h-534z" />
<glyph unicode="&#x2013;" horiz-adv-x="1083" d="M57 526v166h957v-166h-957z" />
<glyph unicode="&#x2014;" horiz-adv-x="1947" d="M72 526v166h1796v-166h-1796z" />
<glyph unicode="&#x2018;" horiz-adv-x="448" d="M61 932l166 498h172l-141 -498h-197z" />
<glyph unicode="&#x2019;" horiz-adv-x="466" d="M59 932l140 498h198l-168 -498h-170z" />
<glyph unicode="&#x201a;" horiz-adv-x="499" d="M61 -268l138 469h200l-170 -469h-168z" />
<glyph unicode="&#x201c;" horiz-adv-x="831" d="M84 932l168 498h168l-137 -498h-199zM412 932l168 498h168l-138 -498h-198z" />
<glyph unicode="&#x201d;" horiz-adv-x="886" d="M115 932l137 498h199l-168 -498h-168zM432 932l137 498h199l-166 -498h-170z" />
<glyph unicode="&#x201e;" horiz-adv-x="964" d="M137 -268l137 461h201l-170 -461h-168zM455 -268l139 461h199l-168 -461h-170z" />
<glyph unicode="&#x2020;" horiz-adv-x="1038" d="M47 895v158h373v377h170v-377h373v-158h-373v-1141h-170v1141h-373z" />
<glyph unicode="&#x2021;" horiz-adv-x="1038" d="M47 135v154h373v606h-373v156h373v379h170v-379h373v-156h-373v-606h373v-154h-373v-381h-170v381h-373z" />
<glyph unicode="&#x2022;" horiz-adv-x="876" d="M109 715q0 129 90 219t219 90q127 0 217 -90t90 -219q0 -127 -90 -218t-217 -91q-129 0 -219 91t-90 218z" />
<glyph unicode="&#x2026;" horiz-adv-x="1437" d="M162 108.5q0 51.5 34.5 86t86 34.5t86 -34.5t34.5 -86t-34.5 -86t-86 -34.5t-86 34.5t-34.5 86zM567 108.5q0 51.5 35 86t86 34.5t86 -34.5t35 -86t-35 -86t-86 -34.5t-86 34.5t-35 86zM973 108.5q0 51.5 33.5 86t85 34.5t86 -34.5t34.5 -86t-34.5 -86t-86 -34.5 t-85 34.5t-33.5 86z" />
<glyph unicode="&#x202f;" horiz-adv-x="381" />
<glyph unicode="&#x2030;" horiz-adv-x="2267" d="M45 1044q0 178 88 286t227 108q147 0 230.5 -105t83.5 -293q0 -182 -87 -289.5t-227 -107.5q-152 0 -233.5 103.5t-81.5 297.5zM193 -57l999 1579l139 -88l-997 -1579zM213 1044q0 -123 36 -178t111 -55q148 0 148 229q0 233 -150 234q-145 0 -145 -230zM874 393 q0 180 88.5 286.5t227.5 106.5q147 0 230 -104.5t83 -292.5q0 -182 -88 -288.5t-225 -106.5q-152 0 -234 102.5t-82 296.5zM1042 393q0 -123 35 -178t113 -55q145 0 145 229q0 236 -149 236q-143 0 -144 -232zM1579 393q0 180 87 286.5t228 106.5q145 0 228.5 -104.5 t83.5 -292.5q0 -182 -87 -288.5t-225 -106.5q-152 0 -233.5 102.5t-81.5 296.5zM1745 393q0 -123 36 -178t113 -55q146 0 146 229q0 236 -150 236q-145 0 -145 -232z" />
<glyph unicode="&#x2039;" horiz-adv-x="530" d="M41 600l291 432l141 -86l-237 -346q10 -14 102 -147.5t135 -198.5l-141 -84z" />
<glyph unicode="&#x203a;" horiz-adv-x="532" d="M43 252l238 348q-10 14 -102.5 147.5t-135.5 198.5l143 86l289 -432l-289 -430z" />
<glyph unicode="&#x2044;" horiz-adv-x="344" d="M-356 6l913 1499l135 -82l-915 -1499z" />
<glyph unicode="&#x205f;" horiz-adv-x="477" />
<glyph unicode="&#x20ac;" horiz-adv-x="1191" d="M16 530l31 140h107v88h-129l28 141h101v102q0 211 148.5 331t350.5 120q150 0 280 -76t197 -215l-153 -78q-47 96 -136 146.5t-188 50.5q-135 0 -234.5 -75t-99.5 -204v-102h533l-29 -141h-504v-88h537l-29 -140h-508v-102q0 -131 97.5 -204.5t232.5 -73.5 q102 0 191.5 50t136.5 144l153 -74q-68 -141 -198.5 -215.5t-282.5 -74.5q-203 0 -349 117.5t-146 330.5v102h-138z" />
<glyph unicode="&#x2122;" horiz-adv-x="1697" d="M31 1298v150h659v-150h-252v-661h-155v661h-252zM768 637v811h162l229 -500q33 74 112 243t118 257h161v-811h-155l6 491l-182 -401h-121l-178 391l4 -481h-156z" />
<glyph unicode="&#x2202;" horiz-adv-x="1007" d="M49 436q0 225 125 365.5t293 140.5q164 0 285 -125q0 231 -91.5 388t-234.5 157q-129 0 -254 -100l-68 137q147 119 332 119q199 0 339 -185.5t140 -544.5q0 -362 -128 -582t-367 -220q-176 0 -273.5 131t-97.5 319zM217 440q0 -133 56.5 -214t148.5 -81h2 q121 0 211 137.5t98 321.5q-23 68 -96.5 125t-163.5 57q-104 0 -180 -102t-76 -244z" />
<glyph unicode="&#x2206;" horiz-adv-x="1239" d="M49 0v115l473 1347h168l471 -1345v-117h-1112zM248 164h704q-305 889 -350 1022zM582 1249l20 -18l23 16l-23 -61q-6 14 -20 63z" />
<glyph unicode="&#x220f;" horiz-adv-x="1335" d="M41 1270v162h1221v-162h-203v-1405h-166v1405h-487v-1405h-166v1405h-199z" />
<glyph unicode="&#x2211;" horiz-adv-x="1067" d="M29 -55l514 680l-490 684v118h926v-157h-694l452 -639l-485 -647h758v-154h-981v115z" />
<glyph unicode="&#x221a;" horiz-adv-x="1103" d="M45 694l295 113l240 -780l338 1654h172l-418 -1980h-148l-288 895q-12 -4 -63.5 -23.5t-72.5 -25.5z" />
<glyph unicode="&#x221e;" horiz-adv-x="1501" d="M82 588q0 141 91 233t230 92q96 0 176 -53t164 -149q59 66 100.5 102.5t108 68t135.5 31.5q135 -2 218.5 -90t83.5 -227v-2q0 -141 -94.5 -231.5t-221.5 -90.5q-86 0 -161.5 47.5t-174.5 151.5q-88 -96 -165.5 -147.5t-180.5 -51.5q-129 0 -219 91.5t-90 224.5zM244 588 q0 -68 43.5 -114t113.5 -46h2q90 0 232 156l6 6q-45 53 -75.5 82.5t-79 57.5t-97.5 28q-68 0 -106.5 -49.5t-38.5 -120.5zM840 594q84 -90 135 -128t104 -38q68 0 109 48t41 112q0 80 -42 125t-110 45q-86 0 -225 -150z" />
<glyph unicode="&#x222b;" horiz-adv-x="667" d="M-6 -266l39 137q66 -27 100 -27q57 0 91 43t34 115q0 160 -12 717q-12 549 -13 696q0 152 75 236t181 84q76 -1 160 -54l-37 -147q-70 47 -114 47q-47 0 -76 -48t-27 -130l11 -514q14 -756 14 -889q0 -150 -78 -227.5t-192 -77.5q-66 0 -156 39z" />
<glyph unicode="&#x2248;" horiz-adv-x="1099" d="M84 436q111 168 266 168q72 0 191 -61l12 -8l-8 6l26 -17l11 -4q92 -55 147 -55t123 90l117 -86q-109 -162 -248 -162q-39 0 -79 12.5t-65.5 24.5t-89.5 47q-102 57 -149 58q-66 0 -137 -107zM84 715q117 168 266 168q88 0 197 -68l-2 2l26 -14l23 -15l-4 3q4 -4 12 -7 q76 -43 127 -43q61 1 129 105l109 -96q-109 -162 -246 -162q-86 0 -232 84q-98 57 -151 57q-61 0 -139 -106z" />
<glyph unicode="&#x2260;" horiz-adv-x="1081" d="M72 330v157h325q14 33 38 90.5t44 100.5h-407v158h481l39 92l63 133l133 -62l-75 -163h270v-158h-338q-12 -29 -37.5 -87.5t-46.5 -103.5h422v-157h-491q-6 -16 -20.5 -47t-22.5 -47q-8 -18 -31 -68.5t-31 -69.5l-135 70l76 162h-256z" />
<glyph unicode="&#x2264;" horiz-adv-x="956" d="M57 88v158h791v-158h-791zM84 727v119l737 422v-187l-530 -297l530 -288v-185z" />
<glyph unicode="&#x2265;" horiz-adv-x="964" d="M80 88v158h790v-158h-790zM106 305v184l531 289l-531 297v187l738 -422v-119z" />
<glyph unicode="&#x25ca;" horiz-adv-x="1118" d="M31 717l438 780h145l433 -778l-439 -780h-147zM227 721l308 -549l4 -8q2 6 10 18l301 535l-305 536q-4 8 -10 17l-13 -23zM512 92l11 33t16 39l22 -72q0 -2 1 -4t1 -4z" />
<glyph unicode="&#x25fc;" horiz-adv-x="1064" d="M0 0v1065h1065v-1065h-1065z" />
</font>
</defs>
</svg>
